SplineFontDB: 3.0
FontName: DEV-MauryaBold
FullName: DEV Maurya Bold
FamilyName: DEV Maurya
Weight: Bold
Copyright: Copyright (c) 2009-2015, NLCI (http://www.nlci.in/fonts/)
Version: 1.0 Fri Sep 29 16:00:35 1995
ItalicAngle: 0
UnderlinePosition: -290
UnderlineWidth: 20
Ascent: 800
Descent: 200
InvalidEm: 0
LayerCount: 2
Layer: 0 0 "Back" 1
Layer: 1 0 "Fore" 0
XUID: [1021 452 120895201 12938096]
FSType: 0
OS2Version: 0
OS2_WeightWidthSlopeOnly: 0
OS2_UseTypoMetrics: 1
CreationTime: 1258090179
ModificationTime: 1433224172
PfmFamily: 81
TTFWeight: 700
TTFWidth: 5
LineGap: 0
VLineGap: 0
Panose: 5 0 0 0 0 0 0 0 0 0
OS2TypoAscent: 44
OS2TypoAOffset: 1
OS2TypoDescent: -184
OS2TypoDOffset: 1
OS2TypoLinegap: 0
OS2WinAscent: -336
OS2WinAOffset: 1
OS2WinDescent: -153
OS2WinDOffset: 1
HheadAscent: -336
HheadAOffset: 1
HheadDescent: 153
HheadDOffset: 1
OS2SubXSize: 700
OS2SubYSize: 650
OS2SubXOff: 0
OS2SubYOff: 143
OS2SupXSize: 700
OS2SupYSize: 650
OS2SupXOff: 0
OS2SupYOff: 453
OS2StrikeYSize: 50
OS2StrikeYPos: 259
OS2Vendor: 'Alts'
OS2UnicodeRanges: 00000000.00000000.00000000.00000000
Lookup: 1 0 0 "Wide I-matra" { "Wide I-matra-1"  } []
Lookup: 1 0 0 "'nukt' Nukta Forms in Devanagari lookup 6" { "'locl' Local Forms in Devanagari lookup 6-1"  } ['nukt' ('deva' <'NEP ' > ) ]
Lookup: 4 0 0 "'akhn' Akhand in Devanagari lookup 0" { "'akhn' Akhand in Devanagari lookup 0 subtable"  } ['akhn' ('deva' <'HIN ' 'NEP ' 'dflt' > ) ]
Lookup: 4 0 0 "'rphf' Reph Form in Devanagari lookup 1" { "'rphf' Reph Form in Devanagari lookup 1 subtable"  } ['rphf' ('deva' <'HIN ' 'NEP ' 'dflt' > ) ]
Lookup: 4 0 0 "'blwf' Below Base Forms in Devanagari lookup 2" { "'blwf' Below Base Forms in Devanagari lookup 2 subtable"  } ['blwf' ('deva' <'HIN ' 'NEP ' 'dflt' > ) ]
Lookup: 4 8 0 "'half' Half Forms in Devanagari lookup 3" { "'half' Half Forms in Devanagari lookup 3 subtable"  } ['half' ('deva' <'HIN ' 'NEP ' 'dflt' > ) ]

StartChar: .notdef
Encoding: 65536 -1 0
Width: 1024
Flags: HW
LayerCount: 2
Back
Fore
SplineSet
64 0 m 1
 64 1383 l 1
 960 1383 l 1
 960 0 l 1
 64 0 l 1
896 64 m 1
 896 1319 l 1
 128 1319 l 1
 128 64 l 1
 896 64 l 1
EndSplineSet
EndChar

StartChar: quotedbl
Encoding: 34 34 3
Width: 401
VWidth: 1024
GlyphClass: 2
Flags: HW
LayerCount: 2
Back
Fore
SplineSet
81 427 m 1
 41 666.5 l 1
 41 685.5 45.5830078125 701 54.75 713 c 128
 63.9169921875 725 78.8330078125 731 99.5 731 c 256
 120.166992188 731 135.166992188 725 144.5 713 c 128
 153.833007812 701 158.5 685.5 158.5 666.5 c 1
 119 427 l 1
 81 427 l 1
281.5 427 m 1
 241.5 666.5 l 1
 241.5 685.5 246.083007812 701 255.25 713 c 128
 264.416992188 725 279.333007812 731 300 731 c 0
 321 731 336.333007812 725 346 713 c 128
 355.666992188 701 360.5 685.5 360.5 666.5 c 1
 319.5 427 l 1
 281.5 427 l 1
EndSplineSet
EndChar

StartChar: numbersign
Encoding: 35 35 4
Width: 759
VWidth: 1024
GlyphClass: 2
Flags: HW
LayerCount: 2
Back
Fore
SplineSet
339 424 m 1
 294 289 l 1
 421 289 l 1
 468 424 l 1
 339 424 l 1
539.5 424 m 1
 495.5 289 l 1
 654.5 289 l 1
 654.5 224.5 l 1
 473 224.5 l 1
 395.5 -24.5 l 1
 324.5 -7 l 1
 400.5 224.5 l 1
 272.5 224.5 l 1
 192.5 -24.5 l 1
 124 -6 l 1
 200.5 224.5 l 1
 63.5 224.5 l 1
 63.5 289 l 1
 221 289 l 1
 265 424 l 1
 113.5 424 l 1
 113.5 491.5 l 1
 286.5 491.5 l 1
 365.5 727 l 1
 434 708.5 l 1
 358.5 491.5 l 1
 491.5 491.5 l 1
 567.5 727 l 1
 638 707.5 l 1
 561 491.5 l 1
 695.5 491.5 l 1
 695.5 424 l 1
 539.5 424 l 1
EndSplineSet
EndChar

StartChar: dollar
Encoding: 36 36 5
Width: 601
VWidth: 1024
GlyphClass: 2
Flags: HW
LayerCount: 2
Back
Fore
SplineSet
417 173 m 0
 417 190 413.833007812 204.333007812 407.5 216 c 128
 401.166992188 227.666992188 393.416992188 237.333007812 384.25 245 c 128
 375.083007812 252.666992188 365.166992188 258.75 354.5 263.25 c 128
 343.833007812 267.75 334.166992188 271.166992188 325.5 273.5 c 1
 325.5 66.5 l 1
 342.5 68.8330078125 357.666992188 74.1669921875 371 82.5 c 0
 376.666992188 85.8330078125 382.25 90.1669921875 387.75 95.5 c 128
 393.25 100.833007812 398.166992188 107.083007812 402.5 114.25 c 128
 406.833007812 121.416992188 410.333007812 129.833007812 413 139.5 c 128
 415.666992188 149.166992188 417 160.333007812 417 173 c 0
265 618.5 m 1
 251.333007812 616.5 239 612 228 605 c 0
 218.666992188 598.666992188 210.25 589.333007812 202.75 577 c 128
 195.25 564.666992188 191.5 547.5 191.5 525.5 c 0
 191.5 504.5 195.25 487.5 202.75 474.5 c 128
 210.25 461.5 218.666992188 451.333007812 228 444 c 0
 239 435.333007812 251.333007812 429 265 425 c 1
 265 618.5 l 1
547 210 m 0
 547 180.666992188 541.583007812 154.166992188 530.75 130.5 c 128
 519.916992188 106.833007812 504.666992188 86.1669921875 485 68.5 c 128
 465.333007812 50.8330078125 441.916992188 36.3330078125 414.75 25 c 128
 387.583007812 13.6669921875 357.833007812 5.6669921875 325.5 1 c 1
 325.5 -104.5 l 1
 265 -104.5 l 1
 265 0 l 1
 241.333007812 1 217.333007812 3 193 6 c 0
 172 8.6669921875 149.333007812 12.1669921875 125 16.5 c 128
 100.666992188 20.8330078125 77.5 26.6669921875 55.5 34 c 1
 55.5 211 l 1
 128 211 l 1
 149.5 91 l 1
 160.166992188 84.3330078125 172.166992188 79.1669921875 185.5 75.5 c 128
 198.833007812 71.8330078125 211.333007812 69.1669921875 223 67.5 c 0
 236.666992188 65.5 250.666992188 64.1669921875 265 63.5 c 1
 265 289 l 1
 252.333007812 292.666992188 238.5 297 223.5 302 c 128
 208.5 307 193.416992188 313 178.25 320 c 128
 163.083007812 327 148.5 335.416992188 134.5 345.25 c 128
 120.5 355.083007812 108.083007812 366.75 97.25 380.25 c 128
 86.4169921875 393.75 77.75 409.416992188 71.25 427.25 c 128
 64.75 445.083007812 61.5 465.5 61.5 488.5 c 0
 61.5 511.833007812 64.4169921875 532.5 70.25 550.5 c 128
 76.0830078125 568.5 83.75 584.333007812 93.25 598 c 128
 102.75 611.666992188 113.583007812 623.25 125.75 632.75 c 128
 137.916992188 642.25 150.333007812 650.166992188 163 656.5 c 0
 193 671.5 227 680.666992188 265 684 c 1
 265 760 l 1
 325.5 760 l 1
 325.5 684 l 1
 346.5 684 367.916992188 682.416992188 389.75 679.25 c 128
 411.583007812 676.083007812 431.5 672.666992188 449.5 669 c 0
 470.5 664.666992188 491 659.833007812 511 654.5 c 1
 511 483.5 l 1
 440.5 483.5 l 1
 421 597 l 2
 420.333007812 599.333007812 415.75 601.916992188 407.25 604.75 c 128
 398.75 607.583007812 389.083007812 610.25 378.25 612.75 c 128
 367.416992188 615.25 356.916992188 617.333007812 346.75 619 c 128
 336.583007812 620.666992188 329.5 621.5 325.5 621.5 c 1
 325.5 410.5 l 1
 336.833007812 407.5 350.166992188 403.75 365.5 399.25 c 128
 380.833007812 394.75 396.666992188 389.083007812 413 382.25 c 128
 429.333007812 375.416992188 445.5 367.083007812 461.5 357.25 c 128
 477.5 347.416992188 491.833007812 335.583007812 504.5 321.75 c 128
 517.166992188 307.916992188 527.416992188 291.833007812 535.25 273.5 c 128
 543.083007812 255.166992188 547 234 547 210 c 0
EndSplineSet
EndChar

StartChar: percent
Encoding: 37 37 6
Width: 915
VWidth: 1024
GlyphClass: 2
Flags: HW
LayerCount: 2
Back
Fore
SplineSet
270.5 489.5 m 0
 270.5 520.833007812 268.833007812 547.166992188 265.5 568.5 c 128
 262.166992188 589.833007812 257.666992188 606.916992188 252 619.75 c 128
 246.333007812 632.583007812 239.5 641.75 231.5 647.25 c 128
 223.5 652.75 215 655.5 206 655.5 c 0
 196.333007812 655.5 187.166992188 652.75 178.5 647.25 c 128
 169.833007812 641.75 162.083007812 632.583007812 155.25 619.75 c 128
 148.416992188 606.916992188 143 589.833007812 139 568.5 c 128
 135 547.166992188 133 520.833007812 133 489.5 c 0
 133 457.833007812 135 431.333007812 139 410 c 128
 143 388.666992188 148.416992188 371.5 155.25 358.5 c 128
 162.083007812 345.5 169.833007812 336.25 178.5 330.75 c 128
 187.166992188 325.25 196.333007812 322.5 206 322.5 c 0
 215 322.5 223.5 325.25 231.5 330.75 c 128
 239.5 336.25 246.333007812 345.5 252 358.5 c 128
 257.666992188 371.5 262.166992188 388.666992188 265.5 410 c 128
 268.833007812 431.333007812 270.5 457.833007812 270.5 489.5 c 0
774 197.5 m 0
 774 228.833007812 772.416992188 255.166992188 769.25 276.5 c 128
 766.083007812 297.833007812 761.666992188 314.916992188 756 327.75 c 128
 750.333007812 340.583007812 743.5 349.75 735.5 355.25 c 128
 727.5 360.75 718.833007812 363.5 709.5 363.5 c 0
 700.5 363.5 691.75 360.75 683.25 355.25 c 128
 674.75 349.75 667.333007812 340.583007812 661 327.75 c 128
 654.666992188 314.916992188 649.583007812 297.833007812 645.75 276.5 c 128
 641.916992188 255.166992188 640 228.833007812 640 197.5 c 0
 640 165.833007812 641.916992188 139.416992188 645.75 118.25 c 128
 649.583007812 97.0830078125 654.666992188 80.0830078125 661 67.25 c 128
 667.333007812 54.4169921875 674.75 45.25 683.25 39.75 c 128
 691.75 34.25 700.5 31.5 709.5 31.5 c 0
 718.833007812 31.5 727.5 34.25 735.5 39.75 c 128
 743.5 45.25 750.333007812 54.4169921875 756 67.25 c 128
 761.666992188 80.0830078125 766.083007812 97.0830078125 769.25 118.25 c 128
 772.416992188 139.416992188 774 165.833007812 774 197.5 c 0
381 489.5 m 256
 381 456.166992188 377.333007812 426.25 370 399.75 c 128
 362.666992188 373.25 351.75 350.75 337.25 332.25 c 128
 322.75 313.75 304.5 299.5 282.5 289.5 c 128
 260.5 279.5 235 274.5 206 274.5 c 0
 176.666992188 274.5 151 279.5 129 289.5 c 128
 107 299.5 88.5830078125 313.75 73.75 332.25 c 128
 58.9169921875 350.75 47.8330078125 373.25 40.5 399.75 c 128
 33.1669921875 426.25 29.5 456.166992188 29.5 489.5 c 256
 29.5 522.833007812 33.1669921875 552.666992188 40.5 579 c 128
 47.8330078125 605.333007812 58.9169921875 627.75 73.75 646.25 c 128
 88.5830078125 664.75 107 678.916992188 129 688.75 c 128
 151 698.583007812 176.666992188 703.5 206 703.5 c 0
 235 703.5 260.5 698.583007812 282.5 688.75 c 128
 304.5 678.916992188 322.75 664.75 337.25 646.25 c 128
 351.75 627.75 362.666992188 605.333007812 370 579 c 128
 377.333007812 552.666992188 381 522.833007812 381 489.5 c 256
281.5 0 m 1
 209 0 l 1
 634 687 l 1
 707.5 687 l 1
 281.5 0 l 1
886 197.5 m 256
 886 164.166992188 882.25 134.333007812 874.75 108 c 128
 867.25 81.6669921875 856.166992188 59.25 841.5 40.75 c 128
 826.833007812 22.25 808.5 8.0830078125 786.5 -1.75 c 128
 764.5 -11.5830078125 738.833007812 -16.5 709.5 -16.5 c 0
 680.5 -16.5 655.083007812 -11.5830078125 633.25 -1.75 c 128
 611.416992188 8.0830078125 593.25 22.25 578.75 40.75 c 128
 564.25 59.25 553.416992188 81.6669921875 546.25 108 c 128
 539.083007812 134.333007812 535.5 164.166992188 535.5 197.5 c 256
 535.5 230.833007812 539.083007812 260.75 546.25 287.25 c 128
 553.416992188 313.75 564.25 336.166992188 578.75 354.5 c 128
 593.25 372.833007812 611.416992188 386.916992188 633.25 396.75 c 128
 655.083007812 406.583007812 680.5 411.5 709.5 411.5 c 0
 738.833007812 411.5 764.5 406.583007812 786.5 396.75 c 128
 808.5 386.916992188 826.833007812 372.833007812 841.5 354.5 c 128
 856.166992188 336.166992188 867.25 313.75 874.75 287.25 c 128
 882.25 260.75 886 230.833007812 886 197.5 c 256
EndSplineSet
EndChar

StartChar: ampersand
Encoding: 38 38 7
Width: 752
VWidth: 1024
GlyphClass: 2
Flags: HW
LayerCount: 2
Back
Fore
SplineSet
513 0 m 1
 513 24.5 l 1
 470 72.5 l 1
 454 56.5 435.5 42.3330078125 414.5 30 c 0
 405.5 24.6669921875 395.5 19.4169921875 384.5 14.25 c 128
 373.5 9.0830078125 361.5 4.5 348.5 0.5 c 128
 335.5 -3.5 321.583007812 -6.6669921875 306.75 -9 c 128
 291.916992188 -11.3330078125 276.333007812 -12.5 260 -12.5 c 0
 227 -12.5 196.916992188 -7.6669921875 169.75 2 c 128
 142.583007812 11.6669921875 119.333007812 25.25 100 42.75 c 128
 80.6669921875 60.25 65.6669921875 81.3330078125 55 106 c 128
 44.3330078125 130.666992188 39 158.166992188 39 188.5 c 0
 39 212.833007812 42.4169921875 234.333007812 49.25 253 c 128
 56.0830078125 271.666992188 65.8330078125 288.166992188 78.5 302.5 c 128
 91.1669921875 316.833007812 106.333007812 329 124 339 c 128
 141.666992188 349 161.166992188 357.5 182.5 364.5 c 1
 181.5 365.166992188 178.833007812 367.166992188 174.5 370.5 c 0
 169.5 374.166992188 163.5 379.25 156.5 385.75 c 128
 149.5 392.25 142 400.083007812 134 409.25 c 128
 126 418.416992188 118.583007812 428.916992188 111.75 440.75 c 128
 104.916992188 452.583007812 99.25 465.666992188 94.75 480 c 128
 90.25 494.333007812 88 509.833007812 88 526.5 c 0
 88 554.833007812 93.9169921875 579.833007812 105.75 601.5 c 128
 117.583007812 623.166992188 133.583007812 641.333007812 153.75 656 c 128
 173.916992188 670.666992188 197.5 681.75 224.5 689.25 c 128
 251.5 696.75 280.166992188 700.5 310.5 700.5 c 0
 323.833007812 700.5 338.083007812 699.5 353.25 697.5 c 128
 368.416992188 695.5 383.5 692 398.5 687 c 128
 413.5 682 427.916992188 675.5 441.75 667.5 c 128
 455.583007812 659.5 467.75 649.583007812 478.25 637.75 c 128
 488.75 625.916992188 497.166992188 611.833007812 503.5 595.5 c 128
 509.833007812 579.166992188 513 560.5 513 539.5 c 0
 513 516.5 509.5 496.5 502.5 479.5 c 128
 495.5 462.5 486.666992188 447.75 476 435.25 c 128
 465.333007812 422.75 453.666992188 412.416992188 441 404.25 c 128
 428.333007812 396.083007812 416.333007812 389.583007812 405 384.75 c 128
 393.666992188 379.916992188 383.75 376.416992188 375.25 374.25 c 128
 366.75 372.083007812 361.5 370.833007812 359.5 370.5 c 1
 517 207 l 1
 525 217.333007812 532.5 228.5 539.5 240.5 c 0
 545.5 250.833007812 551.5 262.916992188 557.5 276.75 c 128
 563.5 290.583007812 568.166992188 305.5 571.5 321.5 c 0
 571.833007812 324.5 570.666992188 328 568 332 c 128
 565.333007812 336 563 338.333007812 561 339 c 2
 508 348 l 1
 508 396.5 l 1
 723 396.5 l 1
 723 348 l 1
 652.5 334 l 1
 644.166992188 307 634.5 283 623.5 262 c 128
 612.5 241 602.166992188 223.166992188 592.5 208.5 c 0
 580.833007812 191.5 569 176.666992188 557 164 c 1
 653.5 60.5 l 1
 736.5 52 l 1
 736.5 0 l 1
 513 0 l 1
225.5 328.5 m 1
 216.166992188 322.166992188 208 314.666992188 201 306 c 0
 195 298.333007812 189.5 288.666992188 184.5 277 c 128
 179.5 265.333007812 177 251.5 177 235.5 c 0
 177 206.5 181.416992188 181.833007812 190.25 161.5 c 128
 199.083007812 141.166992188 210.666992188 124.666992188 225 112 c 128
 239.333007812 99.3330078125 255.5 90.1669921875 273.5 84.5 c 128
 291.5 78.8330078125 309.5 76 327.5 76 c 0
 344.833007812 76 359.75 78.0830078125 372.25 82.25 c 128
 384.75 86.4169921875 395.166992188 91 403.5 96 c 0
 413.166992188 102 421.333007812 108.833007812 428 116.5 c 1
 225.5 328.5 l 1
386 537.5 m 0
 386 551.5 384.166992188 564.666992188 380.5 577 c 128
 376.833007812 589.333007812 371.5 600.083007812 364.5 609.25 c 128
 357.5 618.416992188 349 625.666992188 339 631 c 128
 329 636.333007812 317.666992188 639 305 639 c 0
 293.333007812 639 282.5 637 272.5 633 c 128
 262.5 629 253.833007812 623.5 246.5 616.5 c 128
 239.166992188 609.5 233.416992188 601.083007812 229.25 591.25 c 128
 225.083007812 581.416992188 223 570.666992188 223 559 c 0
 223 547.666992188 224.75 536.416992188 228.25 525.25 c 128
 231.75 514.083007812 237.416992188 502.5 245.25 490.5 c 128
 253.083007812 478.5 263.166992188 465.666992188 275.5 452 c 128
 287.833007812 438.333007812 302.833007812 423.5 320.5 407.5 c 1
 330.833007812 416.833007812 340.083007812 426.166992188 348.25 435.5 c 128
 356.416992188 444.833007812 363.333007812 454.583007812 369 464.75 c 128
 374.666992188 474.916992188 378.916992188 485.916992188 381.75 497.75 c 128
 384.583007812 509.583007812 386 522.833007812 386 537.5 c 0
EndSplineSet
EndChar

StartChar: quotesingle
Encoding: 39 39 8
Width: 180
VWidth: 1024
GlyphClass: 2
Flags: HW
LayerCount: 2
Back
Fore
SplineSet
71.5 427 m 1
 31.5 666.5 l 1
 31.5 685.5 36 701 45 713 c 128
 54 725 69 731 90 731 c 0
 110.666992188 731 125.75 725 135.25 713 c 128
 144.75 701 149.5 685.5 149.5 666.5 c 1
 108.5 427 l 1
 71.5 427 l 1
EndSplineSet
EndChar

StartChar: asterisk
Encoding: 42 42 9
Width: 512
VWidth: 1024
GlyphClass: 2
Flags: HW
LayerCount: 2
Back
Fore
SplineSet
209 366.5 m 1
 131 346 l 1
 128 426 l 1
 237.5 506 l 1
 250 493.5 l 1
 209 366.5 l 1
231.5 519 m 1
 98.5 518 l 1
 54.5 584.5 l 1
 128 614.5 l 1
 237.5 533.5 l 1
 231.5 519 l 1
381 346 m 1
 303 366.5 l 1
 262 493.5 l 1
 274.5 506 l 1
 384 426 l 1
 381 346 l 1
264 546 m 1
 247 546 l 1
 205 674 l 1
 256 735 l 1
 307 674 l 1
 264 546 l 1
412.5 518 m 1
 280.5 519 l 1
 273.5 534.5 l 1
 382 614.5 l 1
 457.5 584.5 l 1
 412.5 518 l 1
EndSplineSet
EndChar

StartChar: plus
Encoding: 43 43 10
Width: 1024
VWidth: 1024
GlyphClass: 2
Flags: HW
LayerCount: 2
Back
Fore
SplineSet
543.5 275.5 m 1
 543.5 0 l 1
 480.5 0 l 1
 480.5 275.5 l 1
 205 275.5 l 1
 205 339 l 1
 480.5 339 l 1
 480.5 614.5 l 1
 543.5 614.5 l 1
 543.5 339 l 1
 819 339 l 1
 819 275.5 l 1
 543.5 275.5 l 1
EndSplineSet
EndChar

StartChar: less
Encoding: 60 60 11
Width: 1024
VWidth: 1024
GlyphClass: 2
Flags: HW
LayerCount: 2
Back
Fore
SplineSet
205 275.5 m 1
 205 339 l 1
 819 574.5 l 1
 819 511 l 1
 270.5 307 l 1
 819 103.5 l 1
 819 40 l 1
 205 275.5 l 1
EndSplineSet
EndChar

StartChar: equal
Encoding: 61 61 12
Width: 1024
VWidth: 1024
GlyphClass: 2
Flags: HW
LayerCount: 2
Back
Fore
SplineSet
205 182.5 m 1
 205 246 l 1
 819 246 l 1
 819 182.5 l 1
 205 182.5 l 1
205 368.5 m 1
 205 432 l 1
 819 432 l 1
 819 368.5 l 1
 205 368.5 l 1
EndSplineSet
EndChar

StartChar: greater
Encoding: 62 62 13
Width: 1024
VWidth: 1024
GlyphClass: 2
Flags: HW
LayerCount: 2
Back
Fore
SplineSet
205 40 m 1
 205 103.5 l 1
 753.5 307 l 1
 205 511 l 1
 205 574.5 l 1
 819 339 l 1
 819 275.5 l 1
 205 40 l 1
EndSplineSet
EndChar

StartChar: at
Encoding: 64 64 14
Width: 958
VWidth: 1024
GlyphClass: 2
Flags: HW
LayerCount: 2
Back
Fore
SplineSet
899 377 m 0
 899 343 895.25 311.416992188 887.75 282.25 c 128
 880.25 253.083007812 870.083007812 226.416992188 857.25 202.25 c 128
 844.416992188 178.083007812 829.416992188 156.583007812 812.25 137.75 c 128
 795.083007812 118.916992188 776.666992188 103.083007812 757 90.25 c 128
 737.333007812 77.4169921875 717.083007812 67.6669921875 696.25 61 c 128
 675.416992188 54.3330078125 655 51 635 51 c 0
 619.333007812 51 606.25 53 595.75 57 c 128
 585.25 61 576.583007812 66.25 569.75 72.75 c 128
 562.916992188 79.25 557.75 86.8330078125 554.25 95.5 c 128
 550.75 104.166992188 548.333007812 113.333007812 547 123 c 1
 536.333007812 114 525.5 105.25 514.5 96.75 c 128
 503.5 88.25 492.166992188 80.6669921875 480.5 74 c 128
 468.833007812 67.3330078125 456.833007812 62 444.5 58 c 128
 432.166992188 54 419.5 52 406.5 52 c 0
 383.166992188 52 362.666992188 56.25 345 64.75 c 128
 327.333007812 73.25 312.5 85.0830078125 300.5 100.25 c 128
 288.5 115.416992188 279.416992188 133.333007812 273.25 154 c 128
 267.083007812 174.666992188 264 197.333007812 264 222 c 0
 264 260.333007812 271.083007812 296.416992188 285.25 330.25 c 128
 299.416992188 364.083007812 318.666992188 393.75 343 419.25 c 128
 367.333007812 444.75 395.916992188 464.916992188 428.75 479.75 c 128
 461.583007812 494.583007812 496.5 502 533.5 502 c 0
 541.5 502 549.583007812 501 557.75 499 c 128
 565.916992188 497 574 494.416992188 582 491.25 c 128
 590 488.083007812 597.75 484.666992188 605.25 481 c 128
 612.75 477.333007812 619.833007812 474 626.5 471 c 1
 640 496.5 l 1
 726 496.5 l 1
 721 477.5 l 2
 718.666992188 467.5 715.75 455.166992188 712.25 440.5 c 128
 708.75 425.833007812 704.916992188 409.5 700.75 391.5 c 128
 696.583007812 373.5 692.333007812 355.333007812 688 337 c 0
 678 294 666.833007812 245.833007812 654.5 192.5 c 0
 651.833007812 181.166992188 649.833007812 170.833007812 648.5 161.5 c 128
 647.166992188 152.166992188 647.166992188 144.166992188 648.5 137.5 c 128
 649.833007812 130.833007812 652.75 125.666992188 657.25 122 c 128
 661.75 118.333007812 668.666992188 116.5 678 116.5 c 0
 684.666992188 116.5 692.916992188 119.083007812 702.75 124.25 c 128
 712.583007812 129.416992188 722.75 137 733.25 147 c 128
 743.75 157 754.166992188 169.416992188 764.5 184.25 c 128
 774.833007812 199.083007812 784.083007812 216.083007812 792.25 235.25 c 128
 800.416992188 254.416992188 807.083007812 275.75 812.25 299.25 c 128
 817.416992188 322.75 820 348.333007812 820 376 c 0
 820 408.333007812 816.166992188 437.583007812 808.5 463.75 c 128
 800.833007812 489.916992188 790.5 513.166992188 777.5 533.5 c 128
 764.5 553.833007812 749.083007812 571.416992188 731.25 586.25 c 128
 713.416992188 601.083007812 694.5 613.333007812 674.5 623 c 128
 654.5 632.666992188 633.666992188 639.833007812 612 644.5 c 128
 590.333007812 649.166992188 569 651.5 548 651.5 c 0
 512 651.5 477.583007812 647.083007812 444.75 638.25 c 128
 411.916992188 629.416992188 381.25 616.916992188 352.75 600.75 c 128
 324.25 584.583007812 298.333007812 564.833007812 275 541.5 c 128
 251.666992188 518.166992188 231.666992188 491.916992188 215 462.75 c 128
 198.333007812 433.583007812 185.5 401.916992188 176.5 367.75 c 128
 167.5 333.583007812 163 297.333007812 163 259 c 0
 163 206.333007812 171.166992188 157.916992188 187.5 113.75 c 128
 203.833007812 69.5830078125 227 31.3330078125 257 -1 c 128
 287 -33.3330078125 323.166992188 -58.5 365.5 -76.5 c 128
 407.833007812 -94.5 455 -103.5 507 -103.5 c 0
 534 -103.5 559.666992188 -101.25 584 -96.75 c 128
 608.333007812 -92.25 631.833007812 -86.1669921875 654.5 -78.5 c 128
 677.166992188 -70.8330078125 699.416992188 -61.75 721.25 -51.25 c 128
 743.083007812 -40.75 764.833007812 -29.5 786.5 -17.5 c 1
 808 -68.5 l 1
 785 -80.5 761.166992188 -92.0830078125 736.5 -103.25 c 128
 711.833007812 -114.416992188 686.166992188 -124.25 659.5 -132.75 c 128
 632.833007812 -141.25 604.75 -148.083007812 575.25 -153.25 c 128
 545.75 -158.416992188 514.833007812 -161 482.5 -161 c 0
 442.5 -161 404.333007812 -156.75 368 -148.25 c 128
 331.666992188 -139.75 297.833007812 -127.333007812 266.5 -111 c 128
 235.166992188 -94.6669921875 206.75 -74.8330078125 181.25 -51.5 c 128
 155.75 -28.1669921875 134 -1.5830078125 116 28.25 c 128
 98 58.0830078125 84.0830078125 90.75 74.25 126.25 c 128
 64.4169921875 161.75 59.5 199.833007812 59.5 240.5 c 0
 59.5 290.166992188 65.5 336.166992188 77.5 378.5 c 128
 89.5 420.833007812 106.25 459.166992188 127.75 493.5 c 128
 149.25 527.833007812 174.833007812 558.083007812 204.5 584.25 c 128
 234.166992188 610.416992188 266.583007812 632.333007812 301.75 650 c 128
 336.916992188 667.666992188 374.25 681 413.75 690 c 128
 453.25 699 493.5 703.5 534.5 703.5 c 0
 589.833007812 703.5 640 696.166992188 685 681.5 c 128
 730 666.833007812 768.333007812 645.583007812 800 617.75 c 128
 831.666992188 589.916992188 856.083007812 555.75 873.25 515.25 c 128
 890.416992188 474.75 899 428.666992188 899 377 c 0
583.5 397.5 m 2
 584.5 401.5 584.25 406.583007812 582.75 412.75 c 128
 581.25 418.916992188 578.666992188 424.833007812 575 430.5 c 128
 571.333007812 436.166992188 566.333007812 441.083007812 560 445.25 c 128
 553.666992188 449.416992188 546.166992188 451.5 537.5 451.5 c 0
 516.833007812 451.5 497.416992188 446 479.25 435 c 128
 461.083007812 424 445.166992188 408.75 431.5 389.25 c 128
 417.833007812 369.75 407 346.5 399 319.5 c 128
 391 292.5 387 263.166992188 387 231.5 c 0
 387 212.166992188 388.916992188 195.75 392.75 182.25 c 128
 396.583007812 168.75 401.666992188 157.75 408 149.25 c 128
 414.333007812 140.75 421.333007812 134.583007812 429 130.75 c 128
 436.666992188 126.916992188 444.5 125 452.5 125 c 0
 463.5 125 473.416992188 127.083007812 482.25 131.25 c 128
 491.083007812 135.416992188 499.083007812 140.666992188 506.25 147 c 128
 513.416992188 153.333007812 520 160.166992188 526 167.5 c 128
 532 174.833007812 537.5 181.5 542.5 187.5 c 1
 583.5 397.5 l 2
EndSplineSet
EndChar

StartChar: A
Encoding: 65 65 15
Width: 702
VWidth: 1024
GlyphClass: 2
Flags: HW
LayerCount: 2
Back
Fore
SplineSet
315.5 546 m 1
 229.5 300 l 1
 403.5 300 l 1
 315.5 546 l 1
414.5 0 m 1
 414.5 52 l 1
 475 59.5 l 2
 478.333007812 60.1669921875 481.166992188 62.3330078125 483.5 66 c 128
 485.833007812 69.6669921875 486.166992188 73.3330078125 484.5 77 c 1
 429 239.5 l 1
 210 239.5 l 1
 153.5 81 l 2
 151.5 75.6669921875 152.5 70.8330078125 156.5 66.5 c 128
 160.5 62.1669921875 164.333007812 59.8330078125 168 59.5 c 2
 225.5 52 l 1
 225.5 0 l 1
 5 0 l 1
 5 52 l 1
 62.5 60.5 l 1
 292 703.5 l 1
 408.5 703.5 l 1
 636 79 l 1
 638.666992188 72.6669921875 641.25 68.25 643.75 65.75 c 128
 646.25 63.25 651.166992188 61.1669921875 658.5 59.5 c 2
 697.5 52 l 1
 697.5 0 l 1
 414.5 0 l 1
EndSplineSet
EndChar

StartChar: B
Encoding: 66 66 16
Width: 654
VWidth: 1024
GlyphClass: 2
Flags: HW
LayerCount: 2
Back
Fore
SplineSet
616.5 199.5 m 0
 616.5 167.5 613 140.416992188 606 118.25 c 128
 599 96.0830078125 589.583007812 77.5830078125 577.75 62.75 c 128
 565.916992188 47.9169921875 552.083007812 36.3330078125 536.25 28 c 128
 520.416992188 19.6669921875 503.75 13.4169921875 486.25 9.25 c 128
 468.75 5.0830078125 450.916992188 2.5 432.75 1.5 c 128
 414.583007812 0.5 397 0 380 0 c 2
 28.5 0 l 1
 28.5 52 l 1
 84 57.5 l 2
 90.3330078125 58.1669921875 95.6669921875 60.4169921875 100 64.25 c 128
 104.333007812 68.0830078125 106.5 73.3330078125 106.5 80 c 2
 106.5 607 l 2
 106.5 613.666992188 104.333007812 619 100 623 c 128
 95.6669921875 627 90.3330078125 629.333007812 84 630 c 2
 28.5 635 l 1
 28.5 687 l 1
 358.5 687 l 2
 370.833007812 687 384.75 686.416992188 400.25 685.25 c 128
 415.75 684.083007812 431.583007812 681.583007812 447.75 677.75 c 128
 463.916992188 673.916992188 479.666992188 668.5 495 661.5 c 128
 510.333007812 654.5 524.083007812 645.083007812 536.25 633.25 c 128
 548.416992188 621.416992188 558.166992188 606.916992188 565.5 589.75 c 128
 572.833007812 572.583007812 576.5 552.166992188 576.5 528.5 c 0
 576.5 507.833007812 573.666992188 489.666992188 568 474 c 128
 562.333007812 458.333007812 555 444.666992188 546 433 c 128
 537 421.333007812 527 411.5 516 403.5 c 128
 505 395.5 494.083007812 388.833007812 483.25 383.5 c 128
 472.416992188 378.166992188 462.333007812 374.083007812 453 371.25 c 128
 443.666992188 368.416992188 436.5 366.5 431.5 365.5 c 1
 443.833007812 365.166992188 457.083007812 364 471.25 362 c 128
 485.416992188 360 499.333007812 356.583007812 513 351.75 c 128
 526.666992188 346.916992188 539.75 340.5 552.25 332.5 c 128
 564.75 324.5 575.75 314.416992188 585.25 302.25 c 128
 594.75 290.083007812 602.333007812 275.583007812 608 258.75 c 128
 613.666992188 241.916992188 616.5 222.166992188 616.5 199.5 c 0
463 192.5 m 0
 463 236.5 450.333007812 269.166992188 425 290.5 c 128
 399.666992188 311.833007812 359.333007812 322.5 304 322.5 c 2
 285.5 322.5 l 2
 278.166992188 322.5 267.333007812 322.166992188 253 321.5 c 1
 253 60.5 l 1
 260.666992188 60.1669921875 267.833007812 59.8330078125 274.5 59.5 c 0
 280.166992188 59.1669921875 285.583007812 58.9169921875 290.75 58.75 c 128
 295.916992188 58.5830078125 299.333007812 58.5 301 58.5 c 0
 327 58.5 350.083007812 60.8330078125 370.25 65.5 c 128
 390.416992188 70.1669921875 407.416992188 77.8330078125 421.25 88.5 c 128
 435.083007812 99.1669921875 445.5 113 452.5 130 c 128
 459.5 147 463 167.833007812 463 192.5 c 0
426 512 m 0
 426 527 424.333007812 541.583007812 421 555.75 c 128
 417.666992188 569.916992188 411.25 582.5 401.75 593.5 c 128
 392.25 604.5 378.916992188 613.333007812 361.75 620 c 128
 344.583007812 626.666992188 322.333007812 630 295 630 c 2
 290 630 l 2
 289 630 287.25 629.916992188 284.75 629.75 c 128
 282.25 629.583007812 278.583007812 629.333007812 273.75 629 c 128
 268.916992188 628.666992188 262 628.166992188 253 627.5 c 1
 253 384 l 1
 256.666992188 383.666992188 260.333007812 383.5 264 383.5 c 1
 267 383.166992188 269.833007812 383 272.5 383 c 2
 278.5 383 l 2
 307.833007812 383 332 386.333007812 351 393 c 128
 370 399.666992188 385.083007812 408.75 396.25 420.25 c 128
 407.416992188 431.75 415.166992188 445.416992188 419.5 461.25 c 128
 423.833007812 477.083007812 426 494 426 512 c 0
EndSplineSet
EndChar

StartChar: C
Encoding: 67 67 17
Width: 651
VWidth: 1024
GlyphClass: 2
Flags: HW
LayerCount: 2
Back
Fore
SplineSet
614.5 24.5 m 1
 608.166992188 21.8330078125 598.25 18.25 584.75 13.75 c 128
 571.25 9.25 555 4.75 536 0.25 c 128
 517 -4.25 495.75 -8.1669921875 472.25 -11.5 c 128
 448.75 -14.8330078125 423.833007812 -16.5 397.5 -16.5 c 0
 362.5 -16.5 329.333007812 -12.5 298 -4.5 c 128
 266.666992188 3.5 237.666992188 15 211 30 c 128
 184.333007812 45 160.333007812 63.1669921875 139 84.5 c 128
 117.666992188 105.833007812 99.5 129.916992188 84.5 156.75 c 128
 69.5 183.583007812 58 212.75 50 244.25 c 128
 42 275.75 38 309 38 344 c 0
 38 397.333007812 47.25 446 65.75 490 c 128
 84.25 534 109.666992188 571.833007812 142 603.5 c 128
 174.333007812 635.166992188 212.5 659.75 256.5 677.25 c 128
 300.5 694.75 347.833007812 703.5 398.5 703.5 c 0
 417.833007812 703.5 435.5 702.666992188 451.5 701 c 128
 467.5 699.333007812 483.583007812 696.75 499.75 693.25 c 128
 515.916992188 689.75 533.083007812 685.333007812 551.25 680 c 128
 569.416992188 674.666992188 590.5 668.166992188 614.5 660.5 c 1
 614.5 486.5 l 1
 534.5 486.5 l 1
 512 601 l 2
 512 602.666992188 510.666992188 605.416992188 508 609.25 c 128
 505.333007812 613.083007812 502.166992188 615.833007812 498.5 617.5 c 0
 495.833007812 618.833007812 491.75 620.416992188 486.25 622.25 c 128
 480.75 624.083007812 474.583007812 625.833007812 467.75 627.5 c 128
 460.916992188 629.166992188 453.833007812 630.666992188 446.5 632 c 128
 439.166992188 633.333007812 432.333007812 634 426 634 c 0
 391 634 359.416992188 627.083007812 331.25 613.25 c 128
 303.083007812 599.416992188 279.166992188 579.75 259.5 554.25 c 128
 239.833007812 528.75 224.75 498.083007812 214.25 462.25 c 128
 203.75 426.416992188 198.5 386.333007812 198.5 342 c 0
 198.5 318 200.333007812 294.166992188 204 270.5 c 128
 207.666992188 246.833007812 213.416992188 224.166992188 221.25 202.5 c 128
 229.083007812 180.833007812 239.25 160.75 251.75 142.25 c 128
 264.25 123.75 279.166992188 107.666992188 296.5 94 c 128
 313.833007812 80.3330078125 333.916992188 69.5830078125 356.75 61.75 c 128
 379.583007812 53.9169921875 405.333007812 50 434 50 c 0
 446.666992188 50 458.333007812 51.5830078125 469 54.75 c 128
 479.666992188 57.9169921875 487.833007812 60.8330078125 493.5 63.5 c 0
 496.166992188 64.5 499.5 67.25 503.5 71.75 c 128
 507.5 76.25 510 80 511 83 c 1
 533.5 204 l 1
 614.5 204 l 1
 614.5 24.5 l 1
EndSplineSet
EndChar

StartChar: D
Encoding: 68 68 18
Width: 741
VWidth: 1024
GlyphClass: 2
Flags: HW
LayerCount: 2
Back
Fore
SplineSet
538.5 340 m 0
 538.5 379.333007812 535.5 413.75 529.5 443.25 c 128
 523.5 472.75 515.25 498.083007812 504.75 519.25 c 128
 494.25 540.416992188 481.833007812 558 467.5 572 c 128
 453.166992188 586 437.833007812 597.083007812 421.5 605.25 c 128
 405.166992188 613.416992188 388.166992188 619.166992188 370.5 622.5 c 128
 352.833007812 625.833007812 335.166992188 627.5 317.5 627.5 c 2
 253 627.5 l 1
 253 60.5 l 1
 338 62.5 l 2
 352.666992188 62.8330078125 367.833007812 64.8330078125 383.5 68.5 c 128
 399.166992188 72.1669921875 414.416992188 78.1669921875 429.25 86.5 c 128
 444.083007812 94.8330078125 458.083007812 105.916992188 471.25 119.75 c 128
 484.416992188 133.583007812 496 150.75 506 171.25 c 128
 516 191.75 523.916992188 215.916992188 529.75 243.75 c 128
 535.583007812 271.583007812 538.5 303.666992188 538.5 340 c 0
703.5 351 m 0
 703.5 292.333007812 695.083007812 241.083007812 678.25 197.25 c 128
 661.416992188 153.416992188 637.416992188 116.833007812 606.25 87.5 c 128
 575.083007812 58.1669921875 537.5 36.25 493.5 21.75 c 128
 449.5 7.25 400.333007812 0 346 0 c 2
 26.5 0 l 1
 26.5 52 l 1
 83 57.5 l 2
 89 58.1669921875 94.4169921875 60.4169921875 99.25 64.25 c 128
 104.083007812 68.0830078125 106.5 73.3330078125 106.5 80 c 2
 106.5 607 l 2
 106.5 613.666992188 104.083007812 619 99.25 623 c 128
 94.4169921875 627 89 629.333007812 83 630 c 2
 26.5 635 l 1
 26.5 687 l 1
 340 687 l 2
 398.333007812 687 450.083007812 678.833007812 495.25 662.5 c 128
 540.416992188 646.166992188 578.416992188 623.25 609.25 593.75 c 128
 640.083007812 564.25 663.5 528.916992188 679.5 487.75 c 128
 695.5 446.583007812 703.5 401 703.5 351 c 0
EndSplineSet
EndChar

StartChar: E
Encoding: 69 69 19
Width: 612
VWidth: 1024
GlyphClass: 2
Flags: HW
LayerCount: 2
Back
Fore
SplineSet
26.5 0 m 1
 26.5 52 l 1
 83 57.5 l 2
 89 58.1669921875 94.4169921875 60.4169921875 99.25 64.25 c 128
 104.083007812 68.0830078125 106.5 73.3330078125 106.5 80 c 2
 106.5 607 l 2
 106.5 613.666992188 104.083007812 619 99.25 623 c 128
 94.4169921875 627 89 629.333007812 83 630 c 2
 26.5 635 l 1
 26.5 687 l 1
 549 687 l 1
 549 523.5 l 1
 475 523.5 l 1
 459 608.5 l 1
 457.666992188 613.5 455.416992188 617.916992188 452.25 621.75 c 128
 449.083007812 625.583007812 445.166992188 627.5 440.5 627.5 c 2
 250 627.5 l 1
 250 387 l 1
 371.5 387 l 2
 376.166992188 387 380.083007812 389.166992188 383.25 393.5 c 128
 386.416992188 397.833007812 388.333007812 401.833007812 389 405.5 c 2
 398.5 475 l 1
 462 475 l 1
 462 234.5 l 1
 398.5 234.5 l 1
 389 304 l 2
 388.333007812 307.666992188 386.416992188 311.666992188 383.25 316 c 128
 380.083007812 320.333007812 376.166992188 322.5 371.5 322.5 c 2
 250 322.5 l 1
 250 61.5 l 1
 473 61.5 l 2
 477.333007812 61.5 481.333007812 63.8330078125 485 68.5 c 128
 488.666992188 73.1669921875 490.833007812 77.3330078125 491.5 81 c 2
 507 187.5 l 1
 581.5 187.5 l 1
 581.5 0 l 1
 26.5 0 l 1
EndSplineSet
EndChar

StartChar: F
Encoding: 70 70 20
Width: 572
VWidth: 1024
GlyphClass: 2
Flags: HW
LayerCount: 2
Back
Fore
SplineSet
471 512 m 1
 456.5 605 l 2
 455.5 610.333007812 453.416992188 614.916992188 450.25 618.75 c 128
 447.083007812 622.583007812 443.166992188 624.5 438.5 624.5 c 2
 253 624.5 l 1
 253 372.5 l 1
 380 372.5 l 2
 384.666992188 372.5 388.583007812 374.666992188 391.75 379 c 128
 394.916992188 383.333007812 396.833007812 387.333007812 397.5 391 c 2
 407.5 461 l 1
 471 461 l 1
 471 219 l 1
 407.5 219 l 1
 397.5 289 l 2
 396.833007812 292.666992188 394.75 296.583007812 391.25 300.75 c 128
 387.75 304.916992188 384 307 380 307 c 2
 253 307 l 1
 253 80 l 2
 253 73.3330078125 255.166992188 68.0830078125 259.5 64.25 c 128
 263.833007812 60.4169921875 269.166992188 58.1669921875 275.5 57.5 c 2
 342 52 l 1
 342 0 l 1
 27.5 0 l 1
 27.5 52 l 1
 83 57.5 l 2
 89 58.1669921875 94.4169921875 60.4169921875 99.25 64.25 c 128
 104.083007812 68.0830078125 106.5 73.3330078125 106.5 80 c 2
 106.5 607 l 2
 106.5 613.666992188 104.083007812 619 99.25 623 c 128
 94.4169921875 627 89 629.333007812 83 630 c 2
 24.5 635 l 1
 24.5 687 l 1
 545 687 l 1
 545 512 l 1
 471 512 l 1
EndSplineSet
EndChar

StartChar: G
Encoding: 71 71 21
Width: 733
VWidth: 1024
GlyphClass: 2
Flags: HW
LayerCount: 2
Back
Fore
SplineSet
657.5 282.5 m 2
 651.166992188 281.833007812 645.666992188 279.583007812 641 275.75 c 128
 636.333007812 271.916992188 634 266.666992188 634 260 c 2
 634 31.5 l 1
 613.666992188 22.5 591.166992188 14.5 566.5 7.5 c 0
 545.166992188 1.5 520.083007812 -4 491.25 -9 c 128
 462.416992188 -14 430.833007812 -16.5 396.5 -16.5 c 0
 345.166992188 -16.5 297.666992188 -7.9169921875 254 9.25 c 128
 210.333007812 26.4169921875 172.5 50.8330078125 140.5 82.5 c 128
 108.5 114.166992188 83.4169921875 152.166992188 65.25 196.5 c 128
 47.0830078125 240.833007812 38 290.333007812 38 345 c 0
 38 400.333007812 47.1669921875 450.166992188 65.5 494.5 c 128
 83.8330078125 538.833007812 109.25 576.5 141.75 607.5 c 128
 174.25 638.5 212.916992188 662.25 257.75 678.75 c 128
 302.583007812 695.25 351.5 703.5 404.5 703.5 c 0
 438.166992188 703.5 469 701.416992188 497 697.25 c 128
 525 693.083007812 549.333007812 688.5 570 683.5 c 0
 594 677.5 615.666992188 670.833007812 635 663.5 c 1
 635 486.5 l 1
 555 486.5 l 1
 534.5 597 l 2
 533.833007812 600.666992188 531.666992188 604.75 528 609.25 c 128
 524.333007812 613.75 520.333007812 616.833007812 516 618.5 c 0
 500 624.5 485.166992188 628.916992188 471.5 631.75 c 128
 457.833007812 634.583007812 448.166992188 636 442.5 636 c 0
 412.833007812 636 386.083007812 632.25 362.25 624.75 c 128
 338.416992188 617.25 317.416992188 606.916992188 299.25 593.75 c 128
 281.083007812 580.583007812 265.5 565 252.5 547 c 128
 239.5 529 228.833007812 509.333007812 220.5 488 c 128
 212.166992188 466.666992188 206.083007812 444.25 202.25 420.75 c 128
 198.416992188 397.25 196.5 373.333007812 196.5 349 c 0
 196.5 305 202 265.25 213 229.75 c 128
 224 194.25 240.083007812 163.916992188 261.25 138.75 c 128
 282.416992188 113.583007812 308.5 94.25 339.5 80.75 c 128
 370.5 67.25 406.166992188 60.5 446.5 60.5 c 0
 451.166992188 60.5 456.916992188 60.25 463.75 59.75 c 128
 470.583007812 59.25 480.166992188 59.5 492.5 60.5 c 1
 492.5 260 l 2
 492.5 266.666992188 490.166992188 272.083007812 485.5 276.25 c 128
 480.833007812 280.416992188 475.333007812 282.5 469 282.5 c 1
 400.5 287.5 l 1
 400.5 340 l 1
 709.5 340 l 1
 709.5 287.5 l 1
 657.5 282.5 l 2
EndSplineSet
EndChar

StartChar: H
Encoding: 72 72 22
Width: 787
VWidth: 1024
GlyphClass: 2
Flags: HW
LayerCount: 2
Back
Fore
SplineSet
459 0 m 1
 459 52 l 1
 512 57.5 l 2
 518.333007812 58.1669921875 523.666992188 60.4169921875 528 64.25 c 128
 532.333007812 68.0830078125 534.5 73.3330078125 534.5 80 c 2
 534.5 327.5 l 1
 253 327.5 l 1
 253 80 l 2
 253 73.3330078125 255.166992188 68.0830078125 259.5 64.25 c 128
 263.833007812 60.4169921875 269.166992188 58.1669921875 275.5 57.5 c 2
 329.5 52 l 1
 329.5 0 l 1
 30.5 0 l 1
 30.5 52 l 1
 84 57.5 l 2
 90.3330078125 58.1669921875 95.6669921875 60.4169921875 100 64.25 c 128
 104.333007812 68.0830078125 106.5 73.3330078125 106.5 80 c 2
 106.5 607 l 2
 106.5 613.666992188 104.333007812 619 100 623 c 128
 95.6669921875 627 90.3330078125 629.333007812 84 630 c 2
 30.5 635 l 1
 30.5 687 l 1
 329.5 687 l 1
 329.5 635 l 1
 275.5 630 l 2
 269.166992188 629.333007812 263.833007812 627 259.5 623 c 128
 255.166992188 619 253 613.666992188 253 607 c 2
 253 393 l 1
 534.5 393 l 1
 534.5 607 l 2
 534.5 613.666992188 532.333007812 619 528 623 c 128
 523.666992188 627 518.333007812 629.333007812 512 630 c 2
 459 635 l 1
 459 687 l 1
 756.5 687 l 1
 756.5 635 l 1
 703.5 630 l 2
 697.833007812 629.333007812 692.666992188 627 688 623 c 128
 683.333007812 619 681 613.666992188 681 607 c 2
 681 80 l 2
 681 73.3330078125 683.166992188 68.0830078125 687.5 64.25 c 128
 691.833007812 60.4169921875 697.166992188 58.1669921875 703.5 57.5 c 2
 756.5 52 l 1
 756.5 0 l 1
 459 0 l 1
EndSplineSet
EndChar

StartChar: I
Encoding: 73 73 23
Width: 367
VWidth: 1024
GlyphClass: 2
Flags: HW
LayerCount: 2
Back
Fore
SplineSet
23.5 0 m 1
 23.5 52 l 1
 87 57.5 l 2
 93.3330078125 58.1669921875 98.6669921875 60.4169921875 103 64.25 c 128
 107.333007812 68.0830078125 109.5 73.3330078125 109.5 80 c 2
 109.5 607 l 2
 109.5 613.666992188 107.333007812 619 103 623 c 128
 98.6669921875 627 93.3330078125 629.333007812 87 630 c 2
 23.5 635 l 1
 23.5 687 l 1
 343 687 l 1
 343 635 l 1
 279.5 630 l 2
 273.833007812 629.333007812 268.5 627 263.5 623 c 128
 258.5 619 256 613.666992188 256 607 c 2
 256 80 l 2
 256 73.3330078125 258.5 68.0830078125 263.5 64.25 c 128
 268.5 60.4169921875 273.833007812 58.1669921875 279.5 57.5 c 2
 343 52 l 1
 343 0 l 1
 23.5 0 l 1
EndSplineSet
EndChar

StartChar: J
Encoding: 74 74 24
Width: 524
VWidth: 1024
GlyphClass: 2
Flags: HW
LayerCount: 2
Back
Fore
SplineSet
439.5 630 m 2
 433.166992188 629.333007812 427.833007812 627 423.5 623 c 128
 419.166992188 619 417 613.666992188 417 607 c 2
 417 248 l 2
 417 208.333007812 412.333007812 172.333007812 403 140 c 128
 393.666992188 107.666992188 379.25 79.8330078125 359.75 56.5 c 128
 340.25 33.1669921875 315.416992188 15.1669921875 285.25 2.5 c 128
 255.083007812 -10.1669921875 219 -16.5 177 -16.5 c 0
 163 -16.5 148.666992188 -15.5 134 -13.5 c 128
 119.333007812 -11.5 105.25 -9.0830078125 91.75 -6.25 c 128
 78.25 -3.4169921875 65.6669921875 -0.3330078125 54 3 c 128
 42.3330078125 6.3330078125 32.5 9.5 24.5 12.5 c 1
 24.5 199.5 l 1
 104.5 199.5 l 1
 128 62.5 l 1
 129 59.1669921875 130.666992188 56.1669921875 133 53.5 c 0
 135 51.1669921875 137.666992188 49.1669921875 141 47.5 c 128
 144.333007812 45.8330078125 148.833007812 45 154.5 45 c 0
 173.5 45 190.25 48.5 204.75 55.5 c 128
 219.25 62.5 231.5 74 241.5 90 c 128
 251.5 106 259 127.166992188 264 153.5 c 128
 269 179.833007812 271.5 212.333007812 271.5 251 c 2
 271.5 607 l 2
 271.5 613.666992188 269.166992188 619 264.5 623 c 128
 259.833007812 627 254.666992188 629.333007812 249 630 c 2
 185.5 635 l 1
 185.5 687 l 1
 502 687 l 1
 502 635 l 1
 439.5 630 l 2
EndSplineSet
EndChar

StartChar: K
Encoding: 75 75 25
Width: 698
VWidth: 1024
GlyphClass: 2
Flags: HW
LayerCount: 2
Back
Fore
SplineSet
476 0 m 1
 476 38 l 1
 309 300 l 1
 253 300 l 1
 253 80 l 2
 253 73.3330078125 255.166992188 68.0830078125 259.5 64.25 c 128
 263.833007812 60.4169921875 269.166992188 58.1669921875 275.5 57.5 c 2
 329.5 52 l 1
 329.5 0 l 1
 29.5 0 l 1
 29.5 52 l 1
 84 57.5 l 2
 90.3330078125 58.1669921875 95.6669921875 60.4169921875 100 64.25 c 128
 104.333007812 68.0830078125 106.5 73.3330078125 106.5 80 c 2
 106.5 607 l 2
 106.5 613.666992188 104.333007812 619 100 623 c 128
 95.6669921875 627 90.3330078125 629.333007812 84 630 c 2
 29.5 635 l 1
 29.5 687 l 1
 329.5 687 l 1
 329.5 635 l 1
 275.5 630 l 2
 269.166992188 629.333007812 263.833007812 627 259.5 623 c 128
 255.166992188 619 253 613.666992188 253 607 c 2
 253 349 l 1
 281.5 349 l 1
 502 617.5 l 2
 503.666992188 619.5 504.083007812 622.083007812 503.25 625.25 c 128
 502.416992188 628.416992188 500.166992188 630 496.5 630 c 2
 438.5 635 l 1
 438.5 687 l 1
 673 687 l 1
 673 635 l 1
 665.666992188 634.333007812 657.833007812 633.666992188 649.5 633 c 0
 642.5 632.333007812 634.75 631.583007812 626.25 630.75 c 128
 617.75 629.916992188 609.333007812 629.166992188 601 628.5 c 1
 410.5 401.5 l 1
 625.5 58.5 l 1
 698.5 52 l 1
 698.5 0 l 1
 476 0 l 1
EndSplineSet
EndChar

StartChar: L
Encoding: 76 76 26
Width: 567
VWidth: 1024
GlyphClass: 2
Flags: HW
LayerCount: 2
Back
Fore
SplineSet
27.5 0 m 1
 27.5 52 l 1
 84 57.5 l 2
 90.3330078125 58.1669921875 95.6669921875 60.4169921875 100 64.25 c 128
 104.333007812 68.0830078125 106.5 73.3330078125 106.5 80 c 2
 106.5 607 l 2
 106.5 613.666992188 104.333007812 619 100 623 c 128
 95.6669921875 627 90.3330078125 629.333007812 84 630 c 2
 27.5 635 l 1
 27.5 687 l 1
 333 687 l 1
 333 635 l 1
 275.5 630 l 2
 269.166992188 629.333007812 263.833007812 627 259.5 623 c 128
 255.166992188 619 253 613.666992188 253 607 c 2
 253 62.5 l 1
 431 62.5 l 2
 434.666992188 62.5 437.916992188 63.3330078125 440.75 65 c 128
 443.583007812 66.6669921875 446.083007812 68.75 448.25 71.25 c 128
 450.416992188 73.75 452.083007812 76.3330078125 453.25 79 c 128
 454.416992188 81.6669921875 455.166992188 84 455.5 86 c 2
 469 204 l 1
 551 204 l 1
 551 0 l 1
 27.5 0 l 1
EndSplineSet
EndChar

StartChar: M
Encoding: 77 77 27
Width: 924
VWidth: 1024
GlyphClass: 2
Flags: HW
LayerCount: 2
Back
Fore
SplineSet
598 0 m 1
 598 52 l 1
 648 57.5 l 2
 653.666992188 58.1669921875 658.833007812 60.4169921875 663.5 64.25 c 128
 668.166992188 68.0830078125 670.5 73.3330078125 670.5 80 c 2
 670.5 617.5 l 1
 465 0 l 1
 386 0 l 1
 184.5 613.5 l 1
 184.5 80 l 2
 184.5 73.3330078125 186.833007812 68.0830078125 191.5 64.25 c 128
 196.166992188 60.4169921875 201.333007812 58.1669921875 207 57.5 c 2
 262 52 l 1
 262 0 l 1
 25.5 0 l 1
 25.5 52 l 1
 83 57.5 l 2
 89 58.1669921875 94.4169921875 60.4169921875 99.25 64.25 c 128
 104.083007812 68.0830078125 106.5 73.3330078125 106.5 80 c 2
 106.5 607 l 2
 106.5 613.666992188 104.083007812 619 99.25 623 c 128
 94.4169921875 627 89 629.333007812 83 630 c 2
 25.5 635 l 1
 25.5 687 l 1
 319.5 687 l 1
 319.5 658.5 l 1
 464 220 l 1
 607 658.5 l 1
 607 687 l 1
 898 687 l 1
 898 635 l 1
 839.5 630 l 2
 833.5 629.333007812 828.25 627 823.75 623 c 128
 819.25 619 817 613.666992188 817 607 c 2
 817 80 l 2
 817 73.3330078125 819.25 68.0830078125 823.75 64.25 c 128
 828.25 60.4169921875 833.5 58.1669921875 839.5 57.5 c 2
 898 52 l 1
 898 0 l 1
 598 0 l 1
EndSplineSet
EndChar

StartChar: N
Encoding: 78 78 28
Width: 762
VWidth: 1024
GlyphClass: 2
Flags: HW
LayerCount: 2
Back
Fore
SplineSet
677 630 m 2
 671.333007812 629.333007812 666.166992188 627 661.5 623 c 128
 656.833007812 619 654.5 613.666992188 654.5 607 c 2
 654.5 0 l 1
 529.5 0 l 1
 184.5 541.5 l 1
 184.5 80 l 2
 184.5 73.3330078125 186.833007812 68.0830078125 191.5 64.25 c 128
 196.166992188 60.4169921875 201.333007812 58.1669921875 207 57.5 c 2
 264 52 l 1
 264 0 l 1
 27.5 0 l 1
 27.5 52 l 1
 84 57.5 l 2
 90.3330078125 58.1669921875 95.6669921875 60.4169921875 100 64.25 c 128
 104.333007812 68.0830078125 106.5 73.3330078125 106.5 80 c 2
 106.5 607 l 2
 106.5 613.666992188 104.333007812 619 100 623 c 128
 95.6669921875 627 90.3330078125 629.333007812 84 630 c 2
 28.5 635 l 1
 28.5 687 l 1
 281.5 687 l 1
 281.5 659.5 l 1
 576.5 197.5 l 1
 576.5 607 l 2
 576.5 613.666992188 574.083007812 619 569.25 623 c 128
 564.416992188 627 559 629.333007812 553 630 c 2
 494.5 635 l 1
 494.5 687 l 1
 732 687 l 1
 732 635 l 1
 677 630 l 2
EndSplineSet
EndChar

StartChar: O
Encoding: 79 79 29
Width: 774
VWidth: 1024
GlyphClass: 2
Flags: HW
LayerCount: 2
Back
Fore
SplineSet
572.5 336 m 0
 572.5 376 568.75 414.083007812 561.25 450.25 c 128
 553.75 486.416992188 542.5 518.166992188 527.5 545.5 c 128
 512.5 572.833007812 493.75 594.583007812 471.25 610.75 c 128
 448.75 626.916992188 422.666992188 635 393 635 c 0
 369.333007812 635 348.166992188 631 329.5 623 c 128
 310.833007812 615 294.416992188 604.083007812 280.25 590.25 c 128
 266.083007812 576.416992188 254 560.166992188 244 541.5 c 128
 234 522.833007812 225.833007812 502.75 219.5 481.25 c 128
 213.166992188 459.75 208.583007812 437.416992188 205.75 414.25 c 128
 202.916992188 391.083007812 201.5 368 201.5 345 c 0
 201.5 320.666992188 203.083007812 296.5 206.25 272.5 c 128
 209.416992188 248.5 214.166992188 225.5 220.5 203.5 c 128
 226.833007812 181.5 235 161 245 142 c 128
 255 123 266.666992188 106.583007812 280 92.75 c 128
 293.333007812 78.9169921875 308.583007812 68 325.75 60 c 128
 342.916992188 52 362 48 383 48 c 0
 405.666992188 48 426.166992188 52.0830078125 444.5 60.25 c 128
 462.833007812 68.4169921875 479 79.5 493 93.5 c 128
 507 107.5 519 123.833007812 529 142.5 c 128
 539 161.166992188 547.25 181.166992188 553.75 202.5 c 128
 560.25 223.833007812 565 245.916992188 568 268.75 c 128
 571 291.583007812 572.5 314 572.5 336 c 0
737.5 340 m 0
 737.5 291 729.25 244.916992188 712.75 201.75 c 128
 696.25 158.583007812 672.833007812 120.833007812 642.5 88.5 c 128
 612.166992188 56.1669921875 575.833007812 30.5830078125 533.5 11.75 c 128
 491.166992188 -7.0830078125 444.333007812 -16.5 393 -16.5 c 0
 342 -16.5 294.75 -8.4169921875 251.25 7.75 c 128
 207.75 23.9169921875 170.25 47.5 138.75 78.5 c 128
 107.25 109.5 82.5830078125 147.666992188 64.75 193 c 128
 46.9169921875 238.333007812 38 290 38 348 c 0
 38 398.333007812 45.8330078125 445.25 61.5 488.75 c 128
 77.1669921875 532.25 99.75 569.833007812 129.25 601.5 c 128
 158.75 633.166992188 194.916992188 658.083007812 237.75 676.25 c 128
 280.583007812 694.416992188 329.333007812 703.5 384 703.5 c 0
 419.333007812 703.5 452.666992188 699.083007812 484 690.25 c 128
 515.333007812 681.416992188 544.083007812 669.083007812 570.25 653.25 c 128
 596.416992188 637.416992188 619.833007812 618.416992188 640.5 596.25 c 128
 661.166992188 574.083007812 678.666992188 549.5 693 522.5 c 128
 707.333007812 495.5 718.333007812 466.583007812 726 435.75 c 128
 733.666992188 404.916992188 737.5 373 737.5 340 c 0
EndSplineSet
EndChar

StartChar: P
Encoding: 80 80 30
Width: 626
VWidth: 1024
GlyphClass: 2
Flags: HW
LayerCount: 2
Back
Fore
SplineSet
589 479 m 0
 589 449.666992188 585.416992188 423.75 578.25 401.25 c 128
 571.083007812 378.75 561.166992188 359.083007812 548.5 342.25 c 128
 535.833007812 325.416992188 520.916992188 311.25 503.75 299.75 c 128
 486.583007812 288.25 468.083007812 279 448.25 272 c 128
 428.416992188 265 407.583007812 259.916992188 385.75 256.75 c 128
 363.916992188 253.583007812 342.166992188 252 320.5 252 c 0
 310.833007812 252 300.666992188 251.916992188 290 251.75 c 128
 279.333007812 251.583007812 267 252.333007812 253 254 c 1
 253 80 l 2
 253 73.3330078125 255.166992188 68.0830078125 259.5 64.25 c 128
 263.833007812 60.4169921875 269.166992188 58.1669921875 275.5 57.5 c 2
 340 52 l 1
 340 0 l 1
 26.5 0 l 1
 26.5 52 l 1
 83 57.5 l 2
 89 58.1669921875 94.4169921875 60.4169921875 99.25 64.25 c 128
 104.083007812 68.0830078125 106.5 73.3330078125 106.5 80 c 2
 106.5 607 l 2
 106.5 613.666992188 104.083007812 619 99.25 623 c 128
 94.4169921875 627 89 629.333007812 83 630 c 2
 23.5 635 l 1
 23.5 687 l 1
 310.5 687 l 2
 333.5 687 356.333007812 686.083007812 379 684.25 c 128
 401.666992188 682.416992188 423.333007812 678.75 444 673.25 c 128
 464.666992188 667.75 483.833007812 660.25 501.5 650.75 c 128
 519.166992188 641.25 534.5 628.75 547.5 613.25 c 128
 560.5 597.75 570.666992188 579 578 557 c 128
 585.333007812 535 589 509 589 479 c 0
436 474 m 0
 436 498 433 519.333007812 427 538 c 128
 421 556.666992188 412.5 572.416992188 401.5 585.25 c 128
 390.5 598.083007812 377.333007812 607.833007812 362 614.5 c 128
 346.666992188 621.166992188 329.5 624.5 310.5 624.5 c 2
 253 624.5 l 1
 253 315.5 l 1
 257 315.166992188 260.25 314.916992188 262.75 314.75 c 128
 265.25 314.583007812 267.333007812 314.5 269 314.5 c 2
 280.5 314.5 l 1
 304.166992188 314.833007812 325.583007812 317.833007812 344.75 323.5 c 128
 363.916992188 329.166992188 380.25 338.333007812 393.75 351 c 128
 407.25 363.666992188 417.666992188 380.083007812 425 400.25 c 128
 432.333007812 420.416992188 436 445 436 474 c 0
EndSplineSet
EndChar

StartChar: Q
Encoding: 81 81 31
Width: 774
VWidth: 1024
GlyphClass: 2
Flags: HW
LayerCount: 2
Back
Fore
SplineSet
572.5 336 m 0
 572.5 376 568.75 414.083007812 561.25 450.25 c 128
 553.75 486.416992188 542.5 518.166992188 527.5 545.5 c 128
 512.5 572.833007812 493.75 594.583007812 471.25 610.75 c 128
 448.75 626.916992188 422.666992188 635 393 635 c 0
 369.333007812 635 348.166992188 631 329.5 623 c 128
 310.833007812 615 294.416992188 604.083007812 280.25 590.25 c 128
 266.083007812 576.416992188 254 560.166992188 244 541.5 c 128
 234 522.833007812 225.833007812 502.75 219.5 481.25 c 128
 213.166992188 459.75 208.583007812 437.416992188 205.75 414.25 c 128
 202.916992188 391.083007812 201.5 368 201.5 345 c 0
 201.5 320.666992188 203.083007812 296.5 206.25 272.5 c 128
 209.416992188 248.5 214.166992188 225.5 220.5 203.5 c 128
 226.833007812 181.5 235 161 245 142 c 128
 255 123 266.666992188 106.583007812 280 92.75 c 128
 293.333007812 78.9169921875 308.583007812 68 325.75 60 c 128
 342.916992188 52 362 48 383 48 c 0
 405.666992188 48 426.166992188 52.0830078125 444.5 60.25 c 128
 462.833007812 68.4169921875 479 79.5 493 93.5 c 128
 507 107.5 519 123.833007812 529 142.5 c 128
 539 161.166992188 547.25 181.166992188 553.75 202.5 c 128
 560.25 223.833007812 565 245.916992188 568 268.75 c 128
 571 291.583007812 572.5 314 572.5 336 c 0
703.5 -165 m 1
 668.166992188 -173 636 -178.916992188 607 -182.75 c 128
 578 -186.583007812 549.666992188 -188.5 522 -188.5 c 0
 485.333007812 -188.5 454 -184.25 428 -175.75 c 128
 402 -167.25 380.833007812 -155.25 364.5 -139.75 c 128
 348.166992188 -124.25 336.166992188 -105.5 328.5 -83.5 c 128
 320.833007812 -61.5 316.833007812 -37 316.5 -10 c 1
 275.166992188 -2.6669921875 237.416992188 10.5830078125 203.25 29.75 c 128
 169.083007812 48.9169921875 139.75 73.6669921875 115.25 104 c 128
 90.75 134.333007812 71.75 169.916992188 58.25 210.75 c 128
 44.75 251.583007812 38 297.333007812 38 348 c 0
 38 398.333007812 45.8330078125 445.25 61.5 488.75 c 128
 77.1669921875 532.25 99.75 569.833007812 129.25 601.5 c 128
 158.75 633.166992188 194.916992188 658.083007812 237.75 676.25 c 128
 280.583007812 694.416992188 329.333007812 703.5 384 703.5 c 0
 419.333007812 703.5 452.666992188 699.083007812 484 690.25 c 128
 515.333007812 681.416992188 544.083007812 669.083007812 570.25 653.25 c 128
 596.416992188 637.416992188 619.833007812 618.416992188 640.5 596.25 c 128
 661.166992188 574.083007812 678.666992188 549.5 693 522.5 c 128
 707.333007812 495.5 718.333007812 466.583007812 726 435.75 c 128
 733.666992188 404.916992188 737.5 373 737.5 340 c 0
 737.5 297.333007812 731.166992188 256.833007812 718.5 218.5 c 128
 705.833007812 180.166992188 687.833007812 145.583007812 664.5 114.75 c 128
 641.166992188 83.9169921875 612.916992188 57.8330078125 579.75 36.5 c 128
 546.583007812 15.1669921875 509.666992188 0.3330078125 469 -8 c 1
 468.333007812 -26.6669921875 471.75 -43.0830078125 479.25 -57.25 c 128
 486.75 -71.4169921875 496.916992188 -83.4169921875 509.75 -93.25 c 128
 522.583007812 -103.083007812 537.583007812 -110.5 554.75 -115.5 c 128
 571.916992188 -120.5 589.833007812 -123 608.5 -123 c 0
 618.5 -123 631.166992188 -122.25 646.5 -120.75 c 128
 661.833007812 -119.25 680.833007812 -115.833007812 703.5 -110.5 c 1
 703.5 -165 l 1
EndSplineSet
EndChar

StartChar: R
Encoding: 82 82 32
Width: 721
VWidth: 1024
GlyphClass: 2
Flags: HW
LayerCount: 2
Back
Fore
SplineSet
721 0 m 1
 698.333007812 -2.6669921875 678.916992188 -6.0830078125 662.75 -10.25 c 128
 646.583007812 -14.4169921875 632.166992188 -16.5 619.5 -16.5 c 0
 586.5 -16.5 559 -11.9169921875 537 -2.75 c 128
 515 6.4169921875 496.75 18.4169921875 482.25 33.25 c 128
 467.75 48.0830078125 456 65 447 84 c 128
 438 103 429.916992188 122.416992188 422.75 142.25 c 128
 415.583007812 162.083007812 408.5 181.5 401.5 200.5 c 128
 394.5 219.5 385.666992188 236.416992188 375 251.25 c 128
 364.333007812 266.083007812 351 278.083007812 335 287.25 c 128
 319 296.416992188 298.5 301 273.5 301 c 2
 253 301 l 1
 253 80 l 2
 253 73.3330078125 255.166992188 68.0830078125 259.5 64.25 c 128
 263.833007812 60.4169921875 269.166992188 58.1669921875 275.5 57.5 c 2
 332 52 l 1
 332 0 l 1
 28.5 0 l 1
 28.5 52 l 1
 83 57.5 l 2
 89 58.1669921875 94.4169921875 60.4169921875 99.25 64.25 c 128
 104.083007812 68.0830078125 106.5 73.3330078125 106.5 80 c 2
 106.5 607 l 2
 106.5 613.666992188 104.083007812 619 99.25 623 c 128
 94.4169921875 627 89 629.333007812 83 630 c 2
 28.5 635 l 1
 28.5 687 l 1
 368.5 687 l 2
 381.166992188 687 395.5 686.166992188 411.5 684.5 c 128
 427.5 682.833007812 443.75 679.75 460.25 675.25 c 128
 476.75 670.75 492.916992188 664.5 508.75 656.5 c 128
 524.583007812 648.5 538.666992188 638.25 551 625.75 c 128
 563.333007812 613.25 573.25 598.083007812 580.75 580.25 c 128
 588.25 562.416992188 592 541.333007812 592 517 c 0
 592 494 588.916992188 473.833007812 582.75 456.5 c 128
 576.583007812 439.166992188 568.416992188 424.083007812 558.25 411.25 c 128
 548.083007812 398.416992188 536.583007812 387.583007812 523.75 378.75 c 128
 510.916992188 369.916992188 497.833007812 362.75 484.5 357.25 c 128
 471.166992188 351.75 458.333007812 347.5 446 344.5 c 128
 433.666992188 341.5 422.833007812 339.333007812 413.5 338 c 1
 435.833007812 333.666992188 454.833007812 327.25 470.5 318.75 c 128
 486.166992188 310.25 499.333007812 300.333007812 510 289 c 128
 520.666992188 277.666992188 529.416992188 265.333007812 536.25 252 c 128
 543.083007812 238.666992188 548.916992188 224.916992188 553.75 210.75 c 128
 558.583007812 196.583007812 562.916992188 182.5 566.75 168.5 c 128
 570.583007812 154.5 575 141.166992188 580 128.5 c 128
 585 115.833007812 590.916992188 104.25 597.75 93.75 c 128
 604.583007812 83.25 613.333007812 74.4169921875 624 67.25 c 128
 634.666992188 60.0830078125 647.833007812 55.0830078125 663.5 52.25 c 128
 679.166992188 49.4169921875 698.333007812 49.3330078125 721 52 c 1
 721 0 l 1
438.5 497.5 m 0
 438.5 540.833007812 425.5 573 399.5 594 c 128
 373.5 615 335.5 625.5 285.5 625.5 c 1
 282.833007812 625.833007812 279.666992188 626 276 626 c 2
 265.5 626 l 2
 261.5 626 257.333007812 625.833007812 253 625.5 c 1
 253 363.5 l 1
 261.666992188 362.833007812 268.75 362.333007812 274.25 362 c 128
 279.75 361.666992188 283.833007812 361.5 286.5 361.5 c 0
 302.5 361.5 319.416992188 363.083007812 337.25 366.25 c 128
 355.083007812 369.416992188 371.5 375.916992188 386.5 385.75 c 128
 401.5 395.583007812 413.916992188 409.416992188 423.75 427.25 c 128
 433.583007812 445.083007812 438.5 468.5 438.5 497.5 c 0
EndSplineSet
EndChar

StartChar: S
Encoding: 83 83 33
Width: 549
VWidth: 1024
GlyphClass: 2
Flags: HW
LayerCount: 2
Back
Fore
SplineSet
511 200.5 m 0
 511 164.5 503.5 132.916992188 488.5 105.75 c 128
 473.5 78.5830078125 453.416992188 56 428.25 38 c 128
 403.083007812 20 374 6.4169921875 341 -2.75 c 128
 308 -11.9169921875 273.5 -16.5 237.5 -16.5 c 0
 210.5 -16.5 185.083007812 -14.5 161.25 -10.5 c 128
 137.416992188 -6.5 116.333007812 -2 98 3 c 0
 76.6669921875 8.6669921875 56.6669921875 15.1669921875 38 22.5 c 1
 38 210 l 1
 119 210 l 1
 136 86 l 2
 136.666992188 82 138.666992188 78.4169921875 142 75.25 c 128
 145.333007812 72.0830078125 147.833007812 70.5 149.5 70.5 c 1
 157.5 67.1669921875 165.833007812 64.1669921875 174.5 61.5 c 0
 182.166992188 59.1669921875 190.666992188 57.1669921875 200 55.5 c 128
 209.333007812 53.8330078125 218.833007812 53 228.5 53 c 0
 243.5 53 258.833007812 54.8330078125 274.5 58.5 c 128
 290.166992188 62.1669921875 304.416992188 67.8330078125 317.25 75.5 c 128
 330.083007812 83.1669921875 340.5 93.1669921875 348.5 105.5 c 128
 356.5 117.833007812 360.5 132.5 360.5 149.5 c 0
 360.5 170.833007812 355.5 189.25 345.5 204.75 c 128
 335.5 220.25 322.5 234.25 306.5 246.75 c 128
 290.5 259.25 272.416992188 270.75 252.25 281.25 c 128
 232.083007812 291.75 211.833007812 302.5 191.5 313.5 c 0
 173.5 323.166992188 156.083007812 333.583007812 139.25 344.75 c 128
 122.416992188 355.916992188 107.5 368.666992188 94.5 383 c 128
 81.5 397.333007812 71.1669921875 413.666992188 63.5 432 c 128
 55.8330078125 450.333007812 52 471.5 52 495.5 c 0
 52 528.833007812 58.6669921875 558.416992188 72 584.25 c 128
 85.3330078125 610.083007812 103.333007812 631.833007812 126 649.5 c 128
 148.666992188 667.166992188 174.916992188 680.583007812 204.75 689.75 c 128
 234.583007812 698.916992188 266 703.5 299 703.5 c 0
 325 703.5 349.666992188 701.333007812 373 697 c 128
 396.333007812 692.666992188 417 688 435 683 c 0
 455.666992188 677 474.833007812 670.166992188 492.5 662.5 c 1
 492.5 494.5 l 1
 413.5 494.5 l 1
 396.5 604 l 2
 396.166992188 605.333007812 395.25 606.833007812 393.75 608.5 c 128
 392.25 610.166992188 390.666992188 611.833007812 389 613.5 c 0
 387 615.166992188 384.666992188 616.833007812 382 618.5 c 1
 378.333007812 621.5 373.5 624.166992188 367.5 626.5 c 0
 362.5 628.5 356.166992188 630.416992188 348.5 632.25 c 128
 340.833007812 634.083007812 331.5 635 320.5 635 c 0
 303.5 635 287.416992188 633 272.25 629 c 128
 257.083007812 625 243.75 619.166992188 232.25 611.5 c 128
 220.75 603.833007812 211.583007812 594.166992188 204.75 582.5 c 128
 197.916992188 570.833007812 194.5 557.5 194.5 542.5 c 0
 194.5 524.5 198.333007812 508.583007812 206 494.75 c 128
 213.666992188 480.916992188 223.916992188 468.5 236.75 457.5 c 128
 249.583007812 446.5 264.333007812 436.5 281 427.5 c 128
 297.666992188 418.5 315 409.5 333 400.5 c 0
 354.333007812 389.833007812 375.583007812 378.666992188 396.75 367 c 128
 417.916992188 355.333007812 437 341.916992188 454 326.75 c 128
 471 311.583007812 484.75 293.833007812 495.25 273.5 c 128
 505.75 253.166992188 511 228.833007812 511 200.5 c 0
EndSplineSet
EndChar

StartChar: T
Encoding: 84 84 34
Width: 623
VWidth: 1024
GlyphClass: 2
Flags: HW
LayerCount: 2
Back
Fore
SplineSet
532.5 499.5 m 1
 514 613.5 l 2
 513 621.5 508.166992188 625.5 499.5 625.5 c 2
 385 625.5 l 1
 385 80 l 2
 385 73.3330078125 387.25 68.0830078125 391.75 64.25 c 128
 396.25 60.4169921875 401.5 58.1669921875 407.5 57.5 c 2
 468 52 l 1
 468 0 l 1
 155.5 0 l 1
 155.5 52 l 1
 215 57.5 l 2
 221.333007812 58.1669921875 226.833007812 60.4169921875 231.5 64.25 c 128
 236.166992188 68.0830078125 238.5 73.3330078125 238.5 80 c 2
 238.5 625.5 l 1
 124 625.5 l 2
 114.666992188 625.5 109.5 621.5 108.5 613.5 c 2
 90 499.5 l 1
 16.5 499.5 l 1
 16.5 687 l 1
 607 687 l 1
 607 499.5 l 1
 532.5 499.5 l 1
EndSplineSet
EndChar

StartChar: U
Encoding: 85 85 35
Width: 746
VWidth: 1024
GlyphClass: 2
Flags: HW
LayerCount: 2
Back
Fore
SplineSet
665.5 630 m 2
 659.833007812 629.333007812 654.666992188 627 650 623 c 128
 645.333007812 619 643 613.666992188 643 607 c 2
 643 260 l 2
 643 209.666992188 637.333007812 166.916992188 626 131.75 c 128
 614.666992188 96.5830078125 597.5 68 574.5 46 c 128
 551.5 24 522.416992188 8.0830078125 487.25 -1.75 c 128
 452.083007812 -11.5830078125 410.5 -16.5 362.5 -16.5 c 0
 274.5 -16.5 209 7.0830078125 166 54.25 c 128
 123 101.416992188 101.5 170 101.5 260 c 2
 101.5 607 l 2
 101.5 613.666992188 99.0830078125 619 94.25 623 c 128
 89.4169921875 627 84 629.333007812 78 630 c 2
 22.5 635 l 1
 22.5 687 l 1
 325.5 687 l 1
 325.5 635 l 1
 270.5 630 l 2
 264.833007812 629.333007812 259.666992188 627 255 623 c 128
 250.333007812 619 248 613.666992188 248 607 c 2
 248 252 l 2
 248 188 261.5 141.416992188 288.5 112.25 c 128
 315.5 83.0830078125 357.166992188 68.5 413.5 68.5 c 0
 440.5 68.5 463.5 72.9169921875 482.5 81.75 c 128
 501.5 90.5830078125 517.166992188 103 529.5 119 c 128
 541.833007812 135 550.833007812 154.25 556.5 176.75 c 128
 562.166992188 199.25 565 224.333007812 565 252 c 2
 565 607 l 2
 565 613.666992188 562.833007812 619 558.5 623 c 128
 554.166992188 627 548.833007812 629.333007812 542.5 630 c 2
 484.5 635 l 1
 484.5 687 l 1
 720 687 l 1
 720 635 l 1
 665.5 630 l 2
EndSplineSet
EndChar

StartChar: V
Encoding: 86 86 36
Width: 723
VWidth: 1024
GlyphClass: 2
Flags: HW
LayerCount: 2
Back
Fore
SplineSet
648 626.5 m 1
 412.5 -16.5 l 1
 315.5 -16.5 l 1
 76 625.5 l 1
 10 635 l 1
 10 687 l 1
 302 687 l 1
 302 635 l 1
 244.5 627.5 l 2
 238.5 626.5 234.916992188 623.583007812 233.75 618.75 c 128
 232.583007812 613.916992188 232.833007812 609.333007812 234.5 605 c 2
 396.5 159.5 l 1
 553 606 l 1
 554 610.333007812 553.75 614.75 552.25 619.25 c 128
 550.75 623.75 546.166992188 626.5 538.5 627.5 c 2
 483.5 635 l 1
 483.5 687 l 1
 712.5 687 l 1
 712.5 635 l 1
 648 626.5 l 1
EndSplineSet
EndChar

StartChar: W
Encoding: 87 87 37
Width: 989
VWidth: 1024
GlyphClass: 2
Flags: HW
LayerCount: 2
Back
Fore
SplineSet
916.5 626.5 m 1
 755.5 -16.5 l 1
 658.5 -16.5 l 1
 498.5 516 l 1
 342 -16.5 l 1
 243.5 -16.5 l 1
 72.5 626.5 l 1
 10 635 l 1
 10 687 l 1
 289 687 l 1
 289 635 l 1
 228.5 628.5 l 2
 222.166992188 627.833007812 218.75 625.166992188 218.25 620.5 c 128
 217.75 615.833007812 218 611.333007812 219 607 c 2
 327.5 201.5 l 1
 471 687 l 1
 581.5 687 l 1
 730 190.5 l 1
 832.5 607 l 2
 833.5 611.333007812 833.166992188 615.75 831.5 620.25 c 128
 829.833007812 624.75 825.333007812 627.5 818 628.5 c 2
 752.5 635 l 1
 752.5 687 l 1
 979 687 l 1
 979 635 l 1
 916.5 626.5 l 1
EndSplineSet
EndChar

StartChar: X
Encoding: 88 88 38
Width: 687
VWidth: 1024
GlyphClass: 2
Flags: HW
LayerCount: 2
Back
Fore
SplineSet
369.5 0 m 1
 369.5 52 l 1
 432 56.5 l 2
 436.666992188 57.1669921875 439.75 59.8330078125 441.25 64.5 c 128
 442.75 69.1669921875 441.333007812 74.6669921875 437 81 c 2
 322.5 261 l 1
 184.5 82 l 2
 181.833007812 79 180.333007812 76.0830078125 180 73.25 c 128
 179.666992188 70.4169921875 180 67.8330078125 181 65.5 c 128
 182 63.1669921875 183.416992188 61.3330078125 185.25 60 c 128
 187.083007812 58.6669921875 188.833007812 57.8330078125 190.5 57.5 c 2
 252 52 l 1
 252 0 l 1
 10 0 l 1
 10 52 l 1
 76 60.5 l 1
 279.5 327.5 l 1
 88 625.5 l 1
 23.5 635 l 1
 23.5 687 l 1
 323.5 687 l 1
 323.5 635 l 1
 269.5 630 l 1
 265.833007812 630 263 627.5 261 622.5 c 128
 259 617.5 260 611.666992188 264 605 c 2
 366.5 443.5 l 1
 492.5 606 l 2
 497.166992188 611.666992188 498.5 617.25 496.5 622.75 c 128
 494.5 628.25 491.166992188 631 486.5 631 c 1
 432 635 l 1
 432 687 l 1
 665.5 687 l 1
 665.5 635 l 1
 601 625.5 l 1
 409.5 377 l 1
 612.5 60.5 l 1
 677 52 l 1
 677 0 l 1
 369.5 0 l 1
EndSplineSet
EndChar

StartChar: Y
Encoding: 89 89 39
Width: 679
VWidth: 1024
GlyphClass: 2
Flags: HW
LayerCount: 2
Back
Fore
SplineSet
609.5 625.5 m 1
 420 297 l 1
 420 80 l 2
 420 73.3330078125 422.166992188 68.0830078125 426.5 64.25 c 128
 430.833007812 60.4169921875 436.166992188 58.1669921875 442.5 57.5 c 2
 505 52 l 1
 505 0 l 1
 187.5 0 l 1
 187.5 52 l 1
 250 57.5 l 2
 255.666992188 58.1669921875 261 60.4169921875 266 64.25 c 128
 271 68.0830078125 273.5 73.3330078125 273.5 80 c 2
 273.5 268.5 l 1
 76 625.5 l 1
 10 635 l 1
 10 687 l 1
 301 687 l 1
 301 635 l 1
 247 630 l 1
 243.333007812 630 240.583007812 627.5 238.75 622.5 c 128
 236.916992188 617.5 237.833007812 611.666992188 241.5 605 c 2
 370.5 362.5 l 1
 510 606 l 2
 513.666992188 612.333007812 514.916992188 618.083007812 513.75 623.25 c 128
 512.583007812 628.416992188 509.666992188 631 505 631 c 2
 442.5 635 l 1
 442.5 687 l 1
 668.5 687 l 1
 668.5 635 l 1
 609.5 625.5 l 1
EndSplineSet
EndChar

StartChar: Z
Encoding: 90 90 40
Width: 595
VWidth: 1024
GlyphClass: 2
Flags: HW
LayerCount: 2
Back
Fore
SplineSet
38 0 m 1
 38 60.5 l 1
 389 624.5 l 1
 163 624.5 l 2
 154.333007812 624.5 149.5 620.5 148.5 612.5 c 2
 130 500.5 l 1
 55.5 500.5 l 1
 55.5 687 l 1
 552 687 l 1
 552 626.5 l 1
 201.5 63.5 l 1
 446.5 63.5 l 2
 454.833007812 63.5 460 67.3330078125 462 75 c 1
 482.5 201.5 l 1
 557 201.5 l 1
 557 0 l 1
 38 0 l 1
EndSplineSet
EndChar

StartChar: bracketleft
Encoding: 91 91 41
Width: 561
VWidth: 1024
GlyphClass: 2
Flags: HW
LayerCount: 2
Back
Fore
SplineSet
240 -135 m 1
 240 725 l 1
 524 725 l 1
 524 663.5 l 1
 367 663.5 l 1
 367 -76 l 1
 524 -76 l 1
 524 -135 l 1
 240 -135 l 1
EndSplineSet
EndChar

StartChar: backslash
Encoding: 92 92 42
Width: 506
VWidth: 1024
GlyphClass: 2
Flags: HW
LayerCount: 2
Back
Fore
SplineSet
426 -95 m 1
 0 687 l 1
 80 687 l 1
 506 -95 l 1
 426 -95 l 1
EndSplineSet
EndChar

StartChar: bracketright
Encoding: 93 93 43
Width: 603
VWidth: 1024
GlyphClass: 2
Flags: HW
LayerCount: 2
Back
Fore
SplineSet
37 -135 m 1
 37 -76 l 1
 193.5 -76 l 1
 193.5 663.5 l 1
 37 663.5 l 1
 37 725 l 1
 320.5 725 l 1
 320.5 -135 l 1
 37 -135 l 1
EndSplineSet
EndChar

StartChar: asciicircum
Encoding: 94 94 44
Width: 348
VWidth: 1024
GlyphClass: 2
Flags: HW
LayerCount: 2
Back
Fore
SplineSet
263 564 m 1
 174 661.5 l 1
 85 564 l 1
 0 564 l 1
 113.5 739.5 l 1
 234.5 739.5 l 1
 348 564 l 1
 263 564 l 1
EndSplineSet
EndChar

StartChar: underscore
Encoding: 95 95 45
Width: 348
VWidth: 1024
GlyphClass: 2
Flags: HW
LayerCount: 2
Back
Fore
SplineSet
0 -170 m 1
 0 -87.5 l 1
 348 -87.5 l 1
 348 -170 l 1
 0 -170 l 1
EndSplineSet
EndChar

StartChar: grave
Encoding: 96 96 46
Width: 383
VWidth: 1024
GlyphClass: 2
Flags: HW
LayerCount: 2
Back
Fore
SplineSet
191.5 564 m 1
 25.5 654.5 l 2
 21.8330078125 656.5 18.5 659.25 15.5 662.75 c 128
 12.5 666.25 9.8330078125 670 7.5 674 c 128
 5.1669921875 678 3.3330078125 682.083007812 2 686.25 c 128
 0.6669921875 690.416992188 0 694.166992188 0 697.5 c 0
 0 703.5 1 709.75 3 716.25 c 128
 5 722.75 8.25 728.583007812 12.75 733.75 c 128
 17.25 738.916992188 23.25 743.166992188 30.75 746.5 c 128
 38.25 749.833007812 47.5 751.5 58.5 751.5 c 0
 65.5 751.5 71.6669921875 751 77 750 c 128
 82.3330078125 749 87.4169921875 747.25 92.25 744.75 c 128
 97.0830078125 742.25 101.916992188 738.916992188 106.75 734.75 c 128
 111.583007812 730.583007812 117 725.333007812 123 719 c 2
 263 564 l 1
 191.5 564 l 1
EndSplineSet
EndChar

StartChar: a
Encoding: 97 97 47
Width: 566
VWidth: 1024
GlyphClass: 2
Flags: HW
LayerCount: 2
Back
Fore
SplineSet
358.5 0 m 1
 345 51 l 1
 327.333007812 39 308.833007812 28.3330078125 289.5 19 c 0
 272.5 11 253.5 3.75 232.5 -2.75 c 128
 211.5 -9.25 189.666992188 -12.5 167 -12.5 c 0
 148.333007812 -12.5 130.916992188 -9.4169921875 114.75 -3.25 c 128
 98.5830078125 2.9169921875 84.4169921875 11.75 72.25 23.25 c 128
 60.0830078125 34.75 50.5 48.6669921875 43.5 65 c 128
 36.5 81.3330078125 33 99.6669921875 33 120 c 0
 33 135.333007812 34.25 149.5 36.75 162.5 c 128
 39.25 175.5 44.25 187.583007812 51.75 198.75 c 128
 59.25 209.916992188 70 220.583007812 84 230.75 c 128
 98 240.916992188 116.583007812 250.833007812 139.75 260.5 c 128
 162.916992188 270.166992188 191.333007812 279.833007812 225 289.5 c 128
 258.666992188 299.166992188 299 309.166992188 346 319.5 c 1
 346 332 l 2
 346 337 346.166992188 341.5 346.5 345.5 c 1
 346.5 350.166992188 346.666992188 354.833007812 347 359.5 c 0
 347.333007812 369.166992188 346.333007812 379.583007812 344 390.75 c 128
 341.666992188 401.916992188 337 412.25 330 421.75 c 128
 323 431.25 313.166992188 439.083007812 300.5 445.25 c 128
 287.833007812 451.416992188 271.333007812 454.5 251 454.5 c 0
 244 454.5 237.75 454.333007812 232.25 454 c 128
 226.75 453.666992188 222.166992188 453.166992188 218.5 452.5 c 0
 214.166992188 451.833007812 210.333007812 451.166992188 207 450.5 c 1
 207 353.5 l 1
 101.5 353.5 l 1
 92.8330078125 352.833007812 85.1669921875 353.666992188 78.5 356 c 0
 72.8330078125 358 67.5830078125 361.5 62.75 366.5 c 128
 57.9169921875 371.5 55.5 379.333007812 55.5 390 c 0
 55.5 409 62.25 426 75.75 441 c 128
 89.25 456 106.916992188 468.75 128.75 479.25 c 128
 150.583007812 489.75 175.083007812 497.833007812 202.25 503.5 c 128
 229.416992188 509.166992188 256.5 512 283.5 512 c 0
 312.833007812 512 339.666992188 509.833007812 364 505.5 c 128
 388.333007812 501.166992188 409.25 492.75 426.75 480.25 c 128
 444.25 467.75 457.75 450.166992188 467.25 427.5 c 128
 476.75 404.833007812 481.5 375 481.5 338 c 2
 481.5 75 l 2
 481.5 68.6669921875 483.666992188 63.25 488 58.75 c 128
 492.333007812 54.25 497.666992188 51.6669921875 504 51 c 2
 549 48 l 1
 549 0 l 1
 358.5 0 l 1
345 264 m 1
 312 257.333007812 284.75 250.5 263.25 243.5 c 128
 241.75 236.5 224.666992188 228.5 212 219.5 c 128
 199.333007812 210.5 190.5 200.25 185.5 188.75 c 128
 180.5 177.25 178 163.833007812 178 148.5 c 0
 178 137.833007812 179.75 127.916992188 183.25 118.75 c 128
 186.75 109.583007812 191.75 101.583007812 198.25 94.75 c 128
 204.75 87.9169921875 212.5 82.5 221.5 78.5 c 128
 230.5 74.5 240.333007812 72.5 251 72.5 c 0
 262 72.5 273.083007812 73.6669921875 284.25 76 c 128
 295.416992188 78.3330078125 305.5 80.8330078125 314.5 83.5 c 0
 325.166992188 86.8330078125 335.333007812 90.6669921875 345 95 c 1
 345 264 l 1
EndSplineSet
EndChar

StartChar: b
Encoding: 98 98 48
Width: 612
VWidth: 1024
GlyphClass: 2
Flags: HW
LayerCount: 2
Back
Fore
SplineSet
579.5 280.5 m 0
 579.5 241.166992188 572.833007812 204.416992188 559.5 170.25 c 128
 546.166992188 136.083007812 526.75 106.416992188 501.25 81.25 c 128
 475.75 56.0830078125 444.416992188 36.25 407.25 21.75 c 128
 370.083007812 7.25 327.5 0 279.5 0 c 2
 92 0 l 1
 92 664.5 l 1
 20.5 664.5 l 1
 20.5 706.5 l 1
 177 758 l 1
 229.5 758 l 1
 229.5 465 l 1
 243.833007812 473.666992188 259 481.5 275 488.5 c 1
 289 494.166992188 304.833007812 499.5 322.5 504.5 c 128
 340.166992188 509.5 358.666992188 512 378 512 c 0
 405.333007812 512 431.25 506.833007812 455.75 496.5 c 128
 480.25 486.166992188 501.666992188 471.083007812 520 451.25 c 128
 538.333007812 431.416992188 552.833007812 407.166992188 563.5 378.5 c 128
 574.166992188 349.833007812 579.5 317.166992188 579.5 280.5 c 0
431 250 m 0
 431 277.666992188 427.833007812 302.416992188 421.5 324.25 c 128
 415.166992188 346.083007812 405.833007812 364.666992188 393.5 380 c 128
 381.166992188 395.333007812 365.75 407 347.25 415 c 128
 328.75 423 307.5 427 283.5 427 c 0
 277.166992188 427 270.916992188 426.666992188 264.75 426 c 128
 258.583007812 425.333007812 252.833007812 424.666992188 247.5 424 c 2
 229.5 421 l 1
 229.5 57.5 l 1
 235.5 57.5 239.75 57.3330078125 242.25 57 c 128
 244.75 56.6669921875 247.666992188 56.5 251 56.5 c 0
 279.333007812 56.5 304.666992188 59.75 327 66.25 c 128
 349.333007812 72.75 368.166992188 83.5830078125 383.5 98.75 c 128
 398.833007812 113.916992188 410.583007812 133.833007812 418.75 158.5 c 128
 426.916992188 183.166992188 431 213.666992188 431 250 c 0
EndSplineSet
EndChar

StartChar: c
Encoding: 99 99 49
Width: 514
VWidth: 1024
GlyphClass: 2
Flags: HW
LayerCount: 2
Back
Fore
SplineSet
482.5 45 m 1
 473.833007812 41 463.25 35.8330078125 450.75 29.5 c 128
 438.25 23.1669921875 423.75 16.8330078125 407.25 10.5 c 128
 390.75 4.1669921875 372 -1.25 351 -5.75 c 128
 330 -10.25 306.5 -12.5 280.5 -12.5 c 0
 240.5 -12.5 205.166992188 -5.6669921875 174.5 8 c 128
 143.833007812 21.6669921875 118 40.0830078125 97 63.25 c 128
 76 86.4169921875 60.0830078125 113.166992188 49.25 143.5 c 128
 38.4169921875 173.833007812 33 205.833007812 33 239.5 c 0
 33 279.833007812 39.9169921875 316.75 53.75 350.25 c 128
 67.5830078125 383.75 86.4169921875 412.5 110.25 436.5 c 128
 134.083007812 460.5 162 479.083007812 194 492.25 c 128
 226 505.416992188 260.333007812 512 297 512 c 0
 324 512 348.333007812 509.25 370 503.75 c 128
 391.666992188 498.25 410.25 490.5 425.75 480.5 c 128
 441.25 470.5 453.166992188 458.583007812 461.5 444.75 c 128
 469.833007812 430.916992188 474 415.833007812 474 399.5 c 0
 474 387.833007812 471.916992188 377.333007812 467.75 368 c 128
 463.583007812 358.666992188 458.166992188 350.583007812 451.5 343.75 c 128
 444.833007812 336.916992188 437.166992188 331.666992188 428.5 328 c 128
 419.833007812 324.333007812 410.833007812 322.5 401.5 322.5 c 0
 390.833007812 322.5 381.916992188 323.166992188 374.75 324.5 c 128
 367.583007812 325.833007812 361.5 327.583007812 356.5 329.75 c 128
 351.5 331.916992188 347.166992188 334.25 343.5 336.75 c 128
 339.833007812 339.25 336.333007812 341.666992188 333 344 c 1
 333 459 l 1
 328.666992188 459 325.25 459.166992188 322.75 459.5 c 128
 320.25 459.833007812 317.166992188 460 313.5 460 c 0
 297.833007812 460 282.25 456 266.75 448 c 128
 251.25 440 237.333007812 428.083007812 225 412.25 c 128
 212.666992188 396.416992188 202.666992188 376.583007812 195 352.75 c 128
 187.333007812 328.916992188 183.5 301.166992188 183.5 269.5 c 0
 183.5 239.5 187.083007812 212.416992188 194.25 188.25 c 128
 201.416992188 164.083007812 211.666992188 143.5 225 126.5 c 128
 238.333007812 109.5 254.666992188 96.4169921875 274 87.25 c 128
 293.333007812 78.0830078125 315 73.5 339 73.5 c 0
 354.666992188 73.5 370.333007812 75.6669921875 386 80 c 128
 401.666992188 84.3330078125 416.083007812 89.3330078125 429.25 95 c 128
 442.416992188 100.666992188 453.75 106.25 463.25 111.75 c 128
 472.75 117.25 479.166992188 121.333007812 482.5 124 c 1
 482.5 45 l 1
EndSplineSet
EndChar

StartChar: d
Encoding: 100 100 50
Width: 623
VWidth: 1024
GlyphClass: 2
Flags: HW
LayerCount: 2
Back
Fore
SplineSet
395.5 432 m 1
 387.5 435.333007812 379.166992188 438.333007812 370.5 441 c 0
 363.166992188 443.333007812 355.25 445.5 346.75 447.5 c 128
 338.25 449.5 330.166992188 450.5 322.5 450.5 c 0
 298.833007812 450.5 278.166992188 445.666992188 260.5 436 c 128
 242.833007812 426.333007812 228.25 413 216.75 396 c 128
 205.25 379 196.666992188 359 191 336 c 128
 185.333007812 313 182.5 288.333007812 182.5 262 c 0
 182.5 235 185.25 210.5 190.75 188.5 c 128
 196.25 166.5 204.5 147.583007812 215.5 131.75 c 128
 226.5 115.916992188 240.333007812 103.666992188 257 95 c 128
 273.666992188 86.3330078125 293.166992188 82 315.5 82 c 0
 324.833007812 82 334.25 82.9169921875 343.75 84.75 c 128
 353.25 86.5830078125 361.833007812 88.8330078125 369.5 91.5 c 0
 378.5 94.5 387.166992188 97.8330078125 395.5 101.5 c 1
 395.5 432 l 1
395.5 0 m 1
 395.5 59.5 l 1
 391.5 57.5 384.333007812 52.5830078125 374 44.75 c 128
 363.666992188 36.9169921875 351.166992188 28.75 336.5 20.25 c 128
 321.833007812 11.75 305.666992188 4.1669921875 288 -2.5 c 128
 270.333007812 -9.1669921875 252.166992188 -12.5 233.5 -12.5 c 0
 202.166992188 -12.5 174.083007812 -6.1669921875 149.25 6.5 c 128
 124.416992188 19.1669921875 103.416992188 36.6669921875 86.25 59 c 128
 69.0830078125 81.3330078125 55.9169921875 107.833007812 46.75 138.5 c 128
 37.5830078125 169.166992188 33 202.5 33 238.5 c 0
 33 282.5 39.6669921875 321.5 53 355.5 c 128
 66.3330078125 389.5 84.8330078125 418.083007812 108.5 441.25 c 128
 132.166992188 464.416992188 160.333007812 482 193 494 c 128
 225.666992188 506 261.333007812 512 300 512 c 0
 309.666992188 512 320.083007812 511.333007812 331.25 510 c 128
 342.416992188 508.666992188 352.833007812 507.166992188 362.5 505.5 c 0
 373.5 503.833007812 384.5 501.833007812 395.5 499.5 c 1
 395.5 664.5 l 1
 319.5 664.5 l 1
 319.5 706.5 l 1
 479 758 l 1
 531.5 758 l 1
 531.5 75 l 2
 531.5 68.6669921875 533.666992188 63.25 538 58.75 c 128
 542.333007812 54.25 547.666992188 51.6669921875 554 51 c 2
 597 48 l 1
 597 0 l 1
 395.5 0 l 1
EndSplineSet
EndChar

StartChar: e
Encoding: 101 101 51
Width: 541
VWidth: 1024
GlyphClass: 2
Flags: HW
LayerCount: 2
Back
Fore
SplineSet
363.5 334 m 2
 363.5 350.333007812 362 365.666992188 359 380 c 128
 356 394.333007812 351.083007812 406.75 344.25 417.25 c 128
 337.416992188 427.75 328.666992188 436.083007812 318 442.25 c 128
 307.333007812 448.416992188 294.5 451.5 279.5 451.5 c 0
 260.5 451.5 244.583007812 447.25 231.75 438.75 c 128
 218.916992188 430.25 208.583007812 419.25 200.75 405.75 c 128
 192.916992188 392.25 187.333007812 377.166992188 184 360.5 c 128
 180.666992188 343.833007812 179 327.5 179 311.5 c 1
 363.5 311.5 l 1
 363.5 334 l 2
510 48 m 1
 492.333007812 36.3330078125 472.5 26.1669921875 450.5 17.5 c 0
 431.5 9.8330078125 408.833007812 2.9169921875 382.5 -3.25 c 128
 356.166992188 -9.4169921875 326.666992188 -12.5 294 -12.5 c 0
 250.333007812 -12.5 212.25 -5.8330078125 179.75 7.5 c 128
 147.25 20.8330078125 120.083007812 39.0830078125 98.25 62.25 c 128
 76.4169921875 85.4169921875 60.0830078125 112.5 49.25 143.5 c 128
 38.4169921875 174.5 33 207.833007812 33 243.5 c 0
 33 282.166992188 39.0830078125 317.916992188 51.25 350.75 c 128
 63.4169921875 383.583007812 80.75 411.916992188 103.25 435.75 c 128
 125.75 459.583007812 152.916992188 478.25 184.75 491.75 c 128
 216.583007812 505.25 252 512 291 512 c 0
 331 512 364.916992188 505.416992188 392.75 492.25 c 128
 420.583007812 479.083007812 443.166992188 461.583007812 460.5 439.75 c 128
 477.833007812 417.916992188 490.416992188 393 498.25 365 c 128
 506.083007812 337 510 308.166992188 510 278.5 c 2
 510 254 l 1
 174 254 l 1
 174 226 177.5 200.833007812 184.5 178.5 c 128
 191.5 156.166992188 201.75 137.166992188 215.25 121.5 c 128
 228.75 105.833007812 245.333007812 93.75 265 85.25 c 128
 284.666992188 76.75 307 72.5 332 72.5 c 0
 358 72.5 381.75 75.4169921875 403.25 81.25 c 128
 424.75 87.0830078125 443.5 93.6669921875 459.5 101 c 0
 477.833007812 109.666992188 494.666992188 119.333007812 510 130 c 1
 510 48 l 1
EndSplineSet
EndChar

StartChar: f
Encoding: 102 102 52
Width: 355
VWidth: 1024
GlyphClass: 2
Flags: HW
LayerCount: 2
Back
Fore
SplineSet
430 676 m 0
 430 668 428.25 660.5 424.75 653.5 c 128
 421.25 646.5 416.583007812 640.083007812 410.75 634.25 c 128
 404.916992188 628.416992188 398.166992188 623.333007812 390.5 619 c 128
 382.833007812 614.666992188 374.833007812 611.166992188 366.5 608.5 c 1
 265 703.5 l 1
 260 695.833007812 255.416992188 687.75 251.25 679.25 c 128
 247.083007812 670.75 243.666992188 660.583007812 241 648.75 c 128
 238.333007812 636.916992188 236.25 622.833007812 234.75 606.5 c 128
 233.25 590.166992188 232.5 570.333007812 232.5 547 c 2
 232.5 487.5 l 1
 344 487.5 l 1
 344 422 l 1
 233.5 422 l 1
 233.5 75 l 2
 233.5 68.6669921875 235.583007812 63.0830078125 239.75 58.25 c 128
 243.916992188 53.4169921875 249.333007812 51 256 51 c 2
 318.5 48 l 1
 318.5 0 l 1
 21.5 0 l 1
 21.5 48 l 1
 73.5 51 l 2
 79.8330078125 51.6669921875 85.25 54.25 89.75 58.75 c 128
 94.25 63.25 96.5 68.6669921875 96.5 75 c 2
 96.5 422 l 1
 29.5 422 l 1
 29.5 463 l 1
 95 496.5 l 1
 95 523.5 98.75 549 106.25 573 c 128
 113.75 597 124.833007812 620.333007812 139.5 643 c 1
 149.5 659.666992188 161.25 675 174.75 689 c 128
 188.25 703 203.166992188 715.166992188 219.5 725.5 c 128
 235.833007812 735.833007812 253.416992188 743.833007812 272.25 749.5 c 128
 291.083007812 755.166992188 311 758 332 758 c 0
 342 758 352.75 756.416992188 364.25 753.25 c 128
 375.75 750.083007812 386.416992188 745.25 396.25 738.75 c 128
 406.083007812 732.25 414.166992188 723.75 420.5 713.25 c 128
 426.833007812 702.75 430 690.333007812 430 676 c 0
EndSplineSet
EndChar

StartChar: g
Encoding: 103 103 53
Width: 568
VWidth: 1024
GlyphClass: 2
Flags: HW
LayerCount: 2
Back
Fore
SplineSet
396.5 -70.5 m 0
 396.5 -58.5 392.833007812 -48.1669921875 385.5 -39.5 c 128
 378.166992188 -30.8330078125 368.666992188 -23.4169921875 357 -17.25 c 128
 345.333007812 -11.0830078125 332.166992188 -6 317.5 -2 c 128
 302.833007812 2 288.166992188 5.25 273.5 7.75 c 128
 258.833007812 10.25 245 12.0830078125 232 13.25 c 128
 219 14.4169921875 208.166992188 15.5 199.5 16.5 c 1
 196.166992188 11.5 192.666992188 6.3330078125 189 1 c 128
 185.333007812 -4.3330078125 181.916992188 -10.1669921875 178.75 -16.5 c 128
 175.583007812 -22.8330078125 173 -29.9169921875 171 -37.75 c 128
 169 -45.5830078125 168 -54.1669921875 168 -63.5 c 0
 167.666992188 -79.8330078125 170.833007812 -95.0830078125 177.5 -109.25 c 128
 184.166992188 -123.416992188 192.833007812 -135.75 203.5 -146.25 c 128
 214.166992188 -156.75 226.25 -165 239.75 -171 c 128
 253.25 -177 266.833007812 -180 280.5 -180 c 256
 294.166992188 -180 307.916992188 -177.416992188 321.75 -172.25 c 128
 335.583007812 -167.083007812 348 -159.75 359 -150.25 c 128
 370 -140.75 379 -129.25 386 -115.75 c 128
 393 -102.25 396.5 -87.1669921875 396.5 -70.5 c 0
354.5 344 m 0
 354.5 358 352.916992188 372.083007812 349.75 386.25 c 128
 346.583007812 400.416992188 341.75 413.083007812 335.25 424.25 c 128
 328.75 435.416992188 320.666992188 444.5 311 451.5 c 128
 301.333007812 458.5 290.166992188 462 277.5 462 c 0
 262.166992188 462 249.166992188 458.583007812 238.5 451.75 c 128
 227.833007812 444.916992188 219.25 435.833007812 212.75 424.5 c 128
 206.25 413.166992188 201.583007812 400.416992188 198.75 386.25 c 128
 195.916992188 372.083007812 194.5 357.666992188 194.5 343 c 0
 194.5 328 196.083007812 313.083007812 199.25 298.25 c 128
 202.416992188 283.416992188 207.25 270.25 213.75 258.75 c 128
 220.25 247.25 228.666992188 237.916992188 239 230.75 c 128
 249.333007812 223.583007812 261.5 220 275.5 220 c 256
 289.5 220 301.416992188 223.583007812 311.25 230.75 c 128
 321.083007812 237.916992188 329.25 247.416992188 335.75 259.25 c 128
 342.25 271.083007812 347 284.416992188 350 299.25 c 128
 353 314.083007812 354.5 329 354.5 344 c 0
469 420 m 1
 472.666992188 412.666992188 476 404.833007812 479 396.5 c 0
 481.666992188 389.166992188 484.083007812 380.916992188 486.25 371.75 c 128
 488.416992188 362.583007812 489.5 352.666992188 489.5 342 c 0
 489.5 319 485.666992188 298.75 478 281.25 c 128
 470.333007812 263.75 460.083007812 248.583007812 447.25 235.75 c 128
 434.416992188 222.916992188 419.666992188 212.166992188 403 203.5 c 128
 386.333007812 194.833007812 368.916992188 188 350.75 183 c 128
 332.583007812 178 314.333007812 174.666992188 296 173 c 128
 277.666992188 171.333007812 260.5 171 244.5 172 c 1
 238.5 168 233.083007812 163.833007812 228.25 159.5 c 128
 223.416992188 155.166992188 219.666992188 150.583007812 217 145.75 c 128
 214.333007812 140.916992188 212.916992188 135.666992188 212.75 130 c 128
 212.583007812 124.333007812 214 117.833007812 217 110.5 c 1
 273 105.833007812 320.75 99.3330078125 360.25 91 c 128
 399.75 82.6669921875 432 72.3330078125 457 60 c 128
 482 47.6669921875 500.166992188 33.0830078125 511.5 16.25 c 128
 522.833007812 -0.5830078125 528.5 -19.6669921875 528.5 -41 c 0
 528.5 -60.6669921875 524.75 -79.1669921875 517.25 -96.5 c 128
 509.75 -113.833007812 499.5 -129.75 486.5 -144.25 c 128
 473.5 -158.75 458.166992188 -171.75 440.5 -183.25 c 128
 422.833007812 -194.75 403.75 -204.416992188 383.25 -212.25 c 128
 362.75 -220.083007812 341.333007812 -226.083007812 319 -230.25 c 128
 296.666992188 -234.416992188 274.333007812 -236.5 252 -236.5 c 0
 225 -236.5 198.416992188 -233.416992188 172.25 -227.25 c 128
 146.083007812 -221.083007812 122.666992188 -211.5 102 -198.5 c 128
 81.3330078125 -185.5 64.6669921875 -169 52 -149 c 128
 39.3330078125 -129 33 -105.333007812 33 -78 c 0
 33 -56.6669921875 37 -38.9169921875 45 -24.75 c 128
 53 -10.5830078125 62.5 0.75 73.5 9.25 c 128
 84.5 17.75 95.75 23.5 107.25 26.5 c 128
 118.75 29.5 128 30.5 135 29.5 c 1
 130.333007812 38.8330078125 127 48.5830078125 125 58.75 c 128
 123 68.9169921875 122 77.3330078125 122 84 c 0
 122 92.6669921875 123.166992188 100.916992188 125.5 108.75 c 128
 127.833007812 116.583007812 131.333007812 124.25 136 131.75 c 128
 140.666992188 139.25 146.583007812 146.833007812 153.75 154.5 c 128
 160.916992188 162.166992188 169.333007812 170.333007812 179 179 c 1
 170 181 158.416992188 185.166992188 144.25 191.5 c 128
 130.083007812 197.833007812 116.25 207.083007812 102.75 219.25 c 128
 89.25 231.416992188 77.5830078125 246.75 67.75 265.25 c 128
 57.9169921875 283.75 53 306.333007812 53 333 c 0
 53 363.666992188 58.9169921875 390.25 70.75 412.75 c 128
 82.5830078125 435.25 98.75 453.833007812 119.25 468.5 c 128
 139.75 483.166992188 163.75 494.083007812 191.25 501.25 c 128
 218.75 508.416992188 248.166992188 512 279.5 512 c 0
 295.5 512 310.583007812 510.833007812 324.75 508.5 c 128
 338.916992188 506.166992188 352.083007812 503.416992188 364.25 500.25 c 128
 376.416992188 497.083007812 387.583007812 493.666992188 397.75 490 c 128
 407.916992188 486.333007812 417.333007812 483.166992188 426 480.5 c 1
 559 480.5 l 1
 559 420 l 1
 469 420 l 1
EndSplineSet
EndChar

StartChar: h
Encoding: 104 104 54
Width: 641
VWidth: 1024
GlyphClass: 2
Flags: HW
LayerCount: 2
Back
Fore
SplineSet
356.5 0 m 1
 356.5 48 l 1
 389 51 l 2
 395.333007812 51.6669921875 400.666992188 54.25 405 58.75 c 128
 409.333007812 63.25 411.5 68.6669921875 411.5 75 c 2
 411.5 316.5 l 2
 411.5 324.833007812 410.583007812 334.833007812 408.75 346.5 c 128
 406.916992188 358.166992188 403 369.25 397 379.75 c 128
 391 390.25 382.333007812 399.25 371 406.75 c 128
 359.666992188 414.25 344.5 418 325.5 418 c 0
 315.166992188 418 304.416992188 417.25 293.25 415.75 c 128
 282.083007812 414.25 271.666992188 412.666992188 262 411 c 0
 251 409 240.166992188 406.833007812 229.5 404.5 c 1
 229.5 75 l 2
 229.5 68.6669921875 231.666992188 63.25 236 58.75 c 128
 240.333007812 54.25 245.666992188 51.6669921875 252 51 c 2
 287.5 48 l 1
 287.5 0 l 1
 27.5 0 l 1
 27.5 48 l 1
 69.5 51 l 2
 75.8330078125 51.6669921875 81.1669921875 54.25 85.5 58.75 c 128
 89.8330078125 63.25 92 68.6669921875 92 75 c 2
 92 664.5 l 1
 19.5 664.5 l 1
 19.5 706.5 l 1
 176 758 l 1
 229.5 758 l 1
 229.5 448.5 l 1
 248.5 460.166992188 268.333007812 470.666992188 289 480 c 0
 297.666992188 484 306.916992188 487.916992188 316.75 491.75 c 128
 326.583007812 495.583007812 336.583007812 499 346.75 502 c 128
 356.916992188 505 367.25 507.416992188 377.75 509.25 c 128
 388.25 511.083007812 398.5 512 408.5 512 c 0
 428.5 512 445.916992188 509.416992188 460.75 504.25 c 128
 475.583007812 499.083007812 488.25 492.25 498.75 483.75 c 128
 509.25 475.25 517.75 465.416992188 524.25 454.25 c 128
 530.75 443.083007812 535.833007812 431.5 539.5 419.5 c 128
 543.166992188 407.5 545.666992188 395.583007812 547 383.75 c 128
 548.333007812 371.916992188 549 361 549 351 c 2
 549 75 l 2
 549 68.6669921875 551.166992188 63.25 555.5 58.75 c 128
 559.833007812 54.25 565.166992188 51.6669921875 571.5 51 c 2
 614.5 48 l 1
 614.5 0 l 1
 356.5 0 l 1
EndSplineSet
EndChar

StartChar: i
Encoding: 105 105 55
Width: 341
VWidth: 1024
GlyphClass: 2
Flags: HW
LayerCount: 2
Back
Fore
SplineSet
33 0 m 1
 33 48 l 1
 80 51 l 2
 86 51.6669921875 91.25 54.25 95.75 58.75 c 128
 100.25 63.25 102.5 68.6669921875 102.5 75 c 2
 102.5 419 l 1
 37 419 l 1
 37 461 l 1
 186.5 512 l 1
 238.5 512 l 1
 238.5 75 l 2
 238.5 68.6669921875 240.916992188 63.25 245.75 58.75 c 128
 250.583007812 54.25 256 51.6669921875 262 51 c 2
 311.5 48 l 1
 311.5 0 l 1
 33 0 l 1
253 679 m 256
 253 668 250.916992188 657.666992188 246.75 648 c 128
 242.583007812 638.333007812 236.833007812 629.833007812 229.5 622.5 c 128
 222.166992188 615.166992188 213.666992188 609.416992188 204 605.25 c 128
 194.333007812 601.083007812 184 599 173 599 c 256
 162 599 151.666992188 601.083007812 142 605.25 c 128
 132.333007812 609.416992188 124 615.166992188 117 622.5 c 128
 110 629.833007812 104.416992188 638.333007812 100.25 648 c 128
 96.0830078125 657.666992188 94 668 94 679 c 256
 94 690 96.0830078125 700.333007812 100.25 710 c 128
 104.416992188 719.666992188 110 728 117 735 c 128
 124 742 132.333007812 747.583007812 142 751.75 c 128
 151.666992188 755.916992188 162 758 173 758 c 256
 184 758 194.333007812 755.916992188 204 751.75 c 128
 213.666992188 747.583007812 222.166992188 742 229.5 735 c 128
 236.833007812 728 242.583007812 719.666992188 246.75 710 c 128
 250.916992188 700.333007812 253 690 253 679 c 256
EndSplineSet
EndChar

StartChar: j
Encoding: 106 106 56
Width: 332
VWidth: 1024
GlyphClass: 2
Flags: HW
LayerCount: 2
Back
Fore
SplineSet
238.5 48 m 2
 238.5 10.6669921875 234 -25.5 225 -60.5 c 128
 216 -95.5 201.833007812 -126.5 182.5 -153.5 c 1
 163.833007812 -178.833007812 140.333007812 -199 112 -214 c 128
 83.6669921875 -229 49.6669921875 -236.5 10 -236.5 c 0
 -3.6669921875 -236.5 -16.6669921875 -234.833007812 -29 -231.5 c 128
 -41.3330078125 -228.166992188 -52.1669921875 -223.166992188 -61.5 -216.5 c 128
 -70.8330078125 -209.833007812 -78.25 -201.666992188 -83.75 -192 c 128
 -89.25 -182.333007812 -92 -171.166992188 -92 -158.5 c 0
 -92 -149.5 -90.25 -141 -86.75 -133 c 128
 -83.25 -125 -78.5 -117.916992188 -72.5 -111.75 c 128
 -66.5 -105.583007812 -59.5 -100.583007812 -51.5 -96.75 c 128
 -43.5 -92.9169921875 -35.1669921875 -90.6669921875 -26.5 -90 c 1
 73.5 -191.5 l 1
 77.5 -185.166992188 81 -177.583007812 84 -168.75 c 128
 87 -159.916992188 89.5 -150.5 91.5 -140.5 c 128
 93.5 -130.5 95.1669921875 -120.25 96.5 -109.75 c 128
 97.8330078125 -99.25 99 -89 100 -79 c 0
 101.666992188 -55.6669921875 102.5 -31 102.5 -5 c 2
 102.5 419 l 1
 29.5 419 l 1
 29.5 461 l 1
 186.5 512 l 1
 238.5 512 l 1
 238.5 48 l 2
249 679 m 256
 249 668 246.916992188 657.666992188 242.75 648 c 128
 238.583007812 638.333007812 233 629.833007812 226 622.5 c 128
 219 615.166992188 210.666992188 609.416992188 201 605.25 c 128
 191.333007812 601.083007812 181 599 170 599 c 256
 159 599 148.666992188 601.083007812 139 605.25 c 128
 129.333007812 609.416992188 120.833007812 615.166992188 113.5 622.5 c 128
 106.166992188 629.833007812 100.416992188 638.333007812 96.25 648 c 128
 92.0830078125 657.666992188 90 668 90 679 c 256
 90 690 92.0830078125 700.333007812 96.25 710 c 128
 100.416992188 719.666992188 106.166992188 728 113.5 735 c 128
 120.833007812 742 129.333007812 747.583007812 139 751.75 c 128
 148.666992188 755.916992188 159 758 170 758 c 256
 181 758 191.333007812 755.916992188 201 751.75 c 128
 210.666992188 747.583007812 219 742 226 735 c 128
 233 728 238.583007812 719.666992188 242.75 710 c 128
 246.916992188 700.333007812 249 690 249 679 c 256
EndSplineSet
EndChar

StartChar: k
Encoding: 107 107 57
Width: 606
VWidth: 1024
GlyphClass: 2
Flags: HW
LayerCount: 2
Back
Fore
SplineSet
390 0 m 1
 390 42 l 1
 277.5 231.5 l 1
 229.5 231.5 l 1
 229.5 75 l 2
 229.5 68.6669921875 231.583007812 63.25 235.75 58.75 c 128
 239.916992188 54.25 245.333007812 51.6669921875 252 51 c 2
 293 48 l 1
 293 0 l 1
 26.5 0 l 1
 26.5 48 l 1
 69.5 51 l 2
 75.8330078125 51.6669921875 81.1669921875 54.25 85.5 58.75 c 128
 89.8330078125 63.25 92 68.6669921875 92 75 c 2
 92 664.5 l 1
 20.5 664.5 l 1
 20.5 706.5 l 1
 177 758 l 1
 229.5 758 l 1
 229.5 266 l 1
 252 266 l 1
 389 430 l 2
 392.333007812 433.666992188 393.25 437.333007812 391.75 441 c 128
 390.25 444.666992188 387 446.833007812 382 447.5 c 2
 343 451.5 l 1
 343 499.5 l 1
 556 499.5 l 1
 556 451.5 l 1
 488.5 443.5 l 1
 379 318.5 l 1
 536.5 53 l 1
 597 48 l 1
 597 0 l 1
 390 0 l 1
EndSplineSet
EndChar

StartChar: l
Encoding: 108 108 58
Width: 341
VWidth: 1024
GlyphClass: 2
Flags: HW
LayerCount: 2
Back
Fore
SplineSet
29.5 0 m 1
 29.5 48 l 1
 80 51 l 2
 86.6669921875 51.6669921875 92.0830078125 54.1669921875 96.25 58.5 c 128
 100.416992188 62.8330078125 102.5 68.3330078125 102.5 75 c 2
 102.5 664.5 l 1
 29.5 664.5 l 1
 29.5 706.5 l 1
 186.5 758 l 1
 238.5 758 l 1
 238.5 75 l 2
 238.5 68.3330078125 240.583007812 62.8330078125 244.75 58.5 c 128
 248.916992188 54.1669921875 254.333007812 51.6669921875 261 51 c 2
 312.5 48 l 1
 312.5 0 l 1
 29.5 0 l 1
EndSplineSet
EndChar

StartChar: m
Encoding: 109 109 59
Width: 927
VWidth: 1024
GlyphClass: 2
Flags: HW
LayerCount: 2
Back
Fore
SplineSet
648 0 m 1
 648 48 l 1
 680 51 l 2
 686 51.6669921875 691.416992188 54.25 696.25 58.75 c 128
 701.083007812 63.25 703.5 68.6669921875 703.5 75 c 2
 703.5 321.5 l 2
 703.5 333.833007812 702 345.833007812 699 357.5 c 128
 696 369.166992188 691.083007812 379.5 684.25 388.5 c 128
 677.416992188 397.5 668.333007812 404.666992188 657 410 c 128
 645.666992188 415.333007812 631.5 418 614.5 418 c 0
 603.5 418 593.083007812 417.083007812 583.25 415.25 c 128
 573.416992188 413.416992188 564.666992188 411.5 557 409.5 c 0
 548.333007812 407.166992188 540.166992188 404.5 532.5 401.5 c 1
 532.5 75 l 2
 532.5 68.6669921875 534.666992188 63.25 539 58.75 c 128
 543.333007812 54.25 548.666992188 51.6669921875 555 51 c 2
 587 48 l 1
 587 0 l 1
 341 0 l 1
 341 48 l 1
 372.5 51 l 2
 378.833007812 51.6669921875 384.25 54.25 388.75 58.75 c 128
 393.25 63.25 395.5 68.6669921875 395.5 75 c 2
 395.5 321.5 l 2
 395.5 333.833007812 393.833007812 345.833007812 390.5 357.5 c 128
 387.166992188 369.166992188 382 379.5 375 388.5 c 128
 368 397.5 358.916992188 404.666992188 347.75 410 c 128
 336.583007812 415.333007812 323 418 307 418 c 0
 293 418 280.75 417.083007812 270.25 415.25 c 128
 259.75 413.416992188 251.166992188 411.5 244.5 409.5 c 0
 236.5 407.166992188 229.833007812 404.5 224.5 401.5 c 1
 224.5 75 l 2
 224.5 68.6669921875 226.833007812 63.25 231.5 58.75 c 128
 236.166992188 54.25 241.666992188 51.6669921875 248 51 c 2
 279.5 48 l 1
 279.5 0 l 1
 27.5 0 l 1
 27.5 48 l 1
 65.5 51 l 2
 71.8330078125 51.6669921875 77.1669921875 54.25 81.5 58.75 c 128
 85.8330078125 63.25 88 68.6669921875 88 75 c 2
 88 418 l 1
 22.5 418 l 1
 22.5 460 l 1
 173 512 l 1
 224.5 512 l 1
 224.5 449.5 l 1
 241.833007812 461.166992188 259.833007812 471.5 278.5 480.5 c 0
 294.5 488.166992188 312.416992188 495.333007812 332.25 502 c 128
 352.083007812 508.666992188 372 512 392 512 c 0
 411.333007812 512 427.833007812 509.416992188 441.5 504.25 c 128
 455.166992188 499.083007812 466.75 492.916992188 476.25 485.75 c 128
 485.75 478.583007812 493.583007812 471 499.75 463 c 128
 505.916992188 455 511.333007812 448.166992188 516 442.5 c 1
 536 455.166992188 556.333007812 466.666992188 577 477 c 0
 586 481.333007812 595.5 485.583007812 605.5 489.75 c 128
 615.5 493.916992188 625.75 497.666992188 636.25 501 c 128
 646.75 504.333007812 657.25 507 667.75 509 c 128
 678.25 511 688.5 512 698.5 512 c 0
 719.166992188 512 737 509.25 752 503.75 c 128
 767 498.25 779.75 491 790.25 482 c 128
 800.75 473 809.166992188 462.916992188 815.5 451.75 c 128
 821.833007812 440.583007812 826.833007812 429.166992188 830.5 417.5 c 128
 834.166992188 405.833007812 836.583007812 394.583007812 837.75 383.75 c 128
 838.916992188 372.916992188 839.5 363.5 839.5 355.5 c 2
 839.5 75 l 2
 839.5 68.6669921875 841.75 63.25 846.25 58.75 c 128
 850.75 54.25 856 51.6669921875 862 51 c 2
 899 48 l 1
 899 0 l 1
 648 0 l 1
EndSplineSet
EndChar

StartChar: n
Encoding: 110 110 60
Width: 640
VWidth: 1024
GlyphClass: 2
Flags: HW
LayerCount: 2
Back
Fore
SplineSet
351 0 m 1
 351 48 l 1
 389 51 l 2
 395.333007812 51.6669921875 400.666992188 54.25 405 58.75 c 128
 409.333007812 63.25 411.5 68.6669921875 411.5 75 c 2
 411.5 315.5 l 2
 411.5 328.5 410 341.166992188 407 353.5 c 128
 404 365.833007812 399.166992188 376.75 392.5 386.25 c 128
 385.833007812 395.75 377.166992188 403.416992188 366.5 409.25 c 128
 355.833007812 415.083007812 342.833007812 418 327.5 418 c 0
 313.5 418 300.5 417.25 288.5 415.75 c 128
 276.5 414.25 266.166992188 412.666992188 257.5 411 c 0
 247.166992188 409 237.833007812 406.833007812 229.5 404.5 c 1
 229.5 75 l 2
 229.5 68.6669921875 231.833007812 63.25 236.5 58.75 c 128
 241.166992188 54.25 246.666992188 51.6669921875 253 51 c 2
 283.5 48 l 1
 283.5 0 l 1
 33 0 l 1
 33 48 l 1
 69.5 51 l 2
 75.8330078125 51.6669921875 81.1669921875 54.25 85.5 58.75 c 128
 89.8330078125 63.25 92 68.6669921875 92 75 c 2
 92 418 l 1
 21.5 418 l 1
 21.5 460 l 1
 176 512 l 1
 229.5 512 l 1
 229.5 449.5 l 1
 247.166992188 461.166992188 266 471.5 286 480.5 c 0
 303 488.166992188 322.166992188 495.333007812 343.5 502 c 128
 364.833007812 508.666992188 386.5 512 408.5 512 c 0
 437.833007812 512 461.666992188 506.916992188 480 496.75 c 128
 498.333007812 486.583007812 512.5 473.166992188 522.5 456.5 c 128
 532.5 439.833007812 539.25 420.833007812 542.75 399.5 c 128
 546.25 378.166992188 548 356.333007812 548 334 c 2
 548 75 l 2
 548 68.6669921875 550.333007812 63.25 555 58.75 c 128
 559.666992188 54.25 565.166992188 51.6669921875 571.5 51 c 2
 603 48 l 1
 603 0 l 1
 351 0 l 1
EndSplineSet
EndChar

StartChar: o
Encoding: 111 111 61
Width: 598
VWidth: 1024
GlyphClass: 2
Flags: HW
LayerCount: 2
Back
Fore
SplineSet
413.5 248 m 0
 413.5 262.333007812 412.833007812 277.416992188 411.5 293.25 c 128
 410.166992188 309.083007812 407.916992188 324.666992188 404.75 340 c 128
 401.583007812 355.333007812 397.166992188 369.833007812 391.5 383.5 c 128
 385.833007812 397.166992188 378.75 409.166992188 370.25 419.5 c 128
 361.75 429.833007812 351.666992188 438.083007812 340 444.25 c 128
 328.333007812 450.416992188 314.666992188 453.5 299 453.5 c 0
 276 453.5 257.166992188 447.166992188 242.5 434.5 c 128
 227.833007812 421.833007812 216.416992188 405.583007812 208.25 385.75 c 128
 200.083007812 365.916992188 194.416992188 344.166992188 191.25 320.5 c 128
 188.083007812 296.833007812 186.5 274 186.5 252 c 0
 186.5 237.333007812 187.083007812 222 188.25 206 c 128
 189.416992188 190 191.583007812 174.333007812 194.75 159 c 128
 197.916992188 143.666992188 202.166992188 129.166992188 207.5 115.5 c 128
 212.833007812 101.833007812 219.75 89.75 228.25 79.25 c 128
 236.75 68.75 246.833007812 60.4169921875 258.5 54.25 c 128
 270.166992188 48.0830078125 284 45 300 45 c 0
 323.333007812 45 342.333007812 51.25 357 63.75 c 128
 371.666992188 76.25 383.166992188 92.3330078125 391.5 112 c 128
 399.833007812 131.666992188 405.583007812 153.5 408.75 177.5 c 128
 411.916992188 201.5 413.5 225 413.5 248 c 0
566.5 247 m 0
 566.5 208.666992188 560.416992188 173.583007812 548.25 141.75 c 128
 536.083007812 109.916992188 518.333007812 82.5830078125 495 59.75 c 128
 471.666992188 36.9169921875 443.25 19.1669921875 409.75 6.5 c 128
 376.25 -6.1669921875 338.333007812 -12.5 296 -12.5 c 0
 257 -12.5 221.416992188 -6.5 189.25 5.5 c 128
 157.083007812 17.5 129.416992188 34.6669921875 106.25 57 c 128
 83.0830078125 79.3330078125 65.0830078125 106.583007812 52.25 138.75 c 128
 39.4169921875 170.916992188 33 207.333007812 33 248 c 0
 33 290 39.6669921875 327.333007812 53 360 c 128
 66.3330078125 392.666992188 84.9169921875 420.25 108.75 442.75 c 128
 132.583007812 465.25 161 482.416992188 194 494.25 c 128
 227 506.083007812 263.333007812 512 303 512 c 0
 345.333007812 512 382.833007812 505.5 415.5 492.5 c 128
 448.166992188 479.5 475.666992188 461.25 498 437.75 c 128
 520.333007812 414.25 537.333007812 386.333007812 549 354 c 128
 560.666992188 321.666992188 566.5 286 566.5 247 c 0
EndSplineSet
EndChar

StartChar: p
Encoding: 112 112 62
Width: 618
VWidth: 1024
GlyphClass: 2
Flags: HW
LayerCount: 2
Back
Fore
SplineSet
434 249 m 0
 434 271.333007812 431.416992188 292.833007812 426.25 313.5 c 128
 421.083007812 334.166992188 413.25 352.25 402.75 367.75 c 128
 392.25 383.25 378.916992188 395.666992188 362.75 405 c 128
 346.583007812 414.333007812 327.333007812 419 305 419 c 0
 296 419 287.083007812 418.166992188 278.25 416.5 c 128
 269.416992188 414.833007812 261.333007812 413 254 411 c 0
 245.333007812 408.666992188 237.166992188 406.166992188 229.5 403.5 c 1
 229.5 55.5 l 1
 236.166992188 52.8330078125 242.833007812 50.6669921875 249.5 49 c 0
 255.166992188 47.3330078125 261.166992188 45.9169921875 267.5 44.75 c 128
 273.833007812 43.5830078125 279.833007812 43 285.5 43 c 0
 310.166992188 43 331.75 48.3330078125 350.25 59 c 128
 368.75 69.6669921875 384.25 84.25 396.75 102.75 c 128
 409.25 121.25 418.583007812 143.083007812 424.75 168.25 c 128
 430.916992188 193.416992188 434 220.333007812 434 249 c 0
585.5 264 m 0
 585.5 222.666992188 579 185 566 151 c 128
 553 117 534.5 87.9169921875 510.5 63.75 c 128
 486.5 39.5830078125 457.5 20.8330078125 423.5 7.5 c 128
 389.5 -5.8330078125 351.333007812 -12.5 309 -12.5 c 0
 298.666992188 -12.5 288.833007812 -12 279.5 -11 c 128
 270.166992188 -10 261.666992188 -8.8330078125 254 -7.5 c 0
 245.333007812 -6.1669921875 237.166992188 -4.3330078125 229.5 -2 c 1
 229.5 -149.5 l 2
 229.5 -156.166992188 231.583007812 -161.75 235.75 -166.25 c 128
 239.916992188 -170.75 245.333007812 -173 252 -173 c 1
 306 -176 l 1
 306 -224.5 l 1
 24.5 -224.5 l 1
 24.5 -176 l 1
 69.5 -173 l 1
 75.8330078125 -173 81.1669921875 -170.75 85.5 -166.25 c 128
 89.8330078125 -161.75 92 -156.166992188 92 -149.5 c 2
 92 418 l 1
 24.5 418 l 1
 24.5 460 l 1
 176 512 l 1
 229.5 512 l 1
 229.5 447.5 l 1
 245.5 459.5 262.666992188 470.166992188 281 479.5 c 0
 296.666992188 487.5 314.166992188 494.916992188 333.5 501.75 c 128
 352.833007812 508.583007812 373 512 394 512 c 0
 414.666992188 512 433.833007812 508.666992188 451.5 502 c 128
 469.166992188 495.333007812 485.083007812 486.25 499.25 474.75 c 128
 513.416992188 463.25 525.916992188 449.583007812 536.75 433.75 c 128
 547.583007812 417.916992188 556.583007812 400.833007812 563.75 382.5 c 128
 570.916992188 364.166992188 576.333007812 344.916992188 580 324.75 c 128
 583.666992188 304.583007812 585.5 284.333007812 585.5 264 c 0
EndSplineSet
EndChar

StartChar: q
Encoding: 113 113 63
Width: 617
VWidth: 1024
GlyphClass: 2
Flags: HW
LayerCount: 2
Back
Fore
SplineSet
388 447.5 m 1
 384.666992188 448.166992188 380.833007812 448.833007812 376.5 449.5 c 0
 372.833007812 450.166992188 368.416992188 450.666992188 363.25 451 c 128
 358.083007812 451.333007812 352.666992188 451.5 347 451.5 c 0
 316.666992188 451.5 291 446.583007812 270 436.75 c 128
 249 426.916992188 232 413.333007812 219 396 c 128
 206 378.666992188 196.666992188 358.166992188 191 334.5 c 128
 185.333007812 310.833007812 182.5 285.333007812 182.5 258 c 0
 182.5 230 185.666992188 204.833007812 192 182.5 c 128
 198.333007812 160.166992188 207.5 141.166992188 219.5 125.5 c 128
 231.5 109.833007812 246.166992188 97.8330078125 263.5 89.5 c 128
 280.833007812 81.1669921875 300.5 77 322.5 77 c 0
 330.166992188 77 337.833007812 77.1669921875 345.5 77.5 c 128
 353.166992188 77.8330078125 360.166992188 78.3330078125 366.5 79 c 0
 373.833007812 79.6669921875 381 80.3330078125 388 81 c 1
 388 447.5 l 1
309 -224.5 m 1
 309 -176 l 1
 365.5 -173 l 1
 372.166992188 -173 377.583007812 -170.75 381.75 -166.25 c 128
 385.916992188 -161.75 388 -156.166992188 388 -149.5 c 2
 388 40 l 1
 373.666992188 30 358.333007812 21.1669921875 342 13.5 c 0
 327.666992188 6.8330078125 311.25 0.8330078125 292.75 -4.5 c 128
 274.25 -9.8330078125 254.5 -12.5 233.5 -12.5 c 0
 202.833007812 -12.5 175.083007812 -5.8330078125 150.25 7.5 c 128
 125.416992188 20.8330078125 104.333007812 38.8330078125 87 61.5 c 128
 69.6669921875 84.1669921875 56.3330078125 110.416992188 47 140.25 c 128
 37.6669921875 170.083007812 33 201.5 33 234.5 c 0
 33 282.833007812 41.1669921875 324.5 57.5 359.5 c 128
 73.8330078125 394.5 96.5830078125 423.25 125.75 445.75 c 128
 154.916992188 468.25 189.75 484.916992188 230.25 495.75 c 128
 270.75 506.583007812 315.166992188 512 363.5 512 c 0
 380.833007812 512 399 511.333007812 418 510 c 128
 437 508.666992188 454.5 507.166992188 470.5 505.5 c 0
 489.166992188 503.833007812 507.5 501.833007812 525.5 499.5 c 1
 525.5 -149.5 l 2
 525.5 -156.166992188 527.666992188 -161.75 532 -166.25 c 128
 536.333007812 -170.75 541.666992188 -173 548 -173 c 1
 590 -176 l 1
 590 -224.5 l 1
 309 -224.5 l 1
EndSplineSet
EndChar

StartChar: r
Encoding: 114 114 64
Width: 442
VWidth: 1024
GlyphClass: 2
Flags: HW
LayerCount: 2
Back
Fore
SplineSet
362.5 338 m 1
 360.166992188 341.333007812 357.25 345.333007812 353.75 350 c 128
 350.25 354.666992188 345.916992188 359.166992188 340.75 363.5 c 128
 335.583007812 367.833007812 329.333007812 371.5 322 374.5 c 128
 314.666992188 377.5 306 379 296 379 c 0
 286.333007812 379 277.333007812 378 269 376 c 128
 260.666992188 374 253.666992188 371.833007812 248 369.5 c 0
 241 366.833007812 234.833007812 363.833007812 229.5 360.5 c 1
 229.5 73.5 l 2
 229.5 67.5 231.583007812 62.0830078125 235.75 57.25 c 128
 239.916992188 52.4169921875 245.333007812 50 252 50 c 2
 317.5 47 l 1
 317.5 -1 l 1
 24.5 -1 l 1
 24.5 47 l 1
 69.5 50 l 2
 75.8330078125 50.6669921875 81.1669921875 53.25 85.5 57.75 c 128
 89.8330078125 62.25 92 67.5 92 73.5 c 2
 92 418 l 1
 17.5 418 l 1
 17.5 460 l 1
 176 512 l 1
 229.5 512 l 1
 229.5 403.5 l 1
 235.833007812 411.5 244.416992188 421.666992188 255.25 434 c 128
 266.083007812 446.333007812 277.833007812 458.25 290.5 469.75 c 128
 303.166992188 481.25 316.25 491.166992188 329.75 499.5 c 128
 343.25 507.833007812 355.833007812 512 367.5 512 c 0
 373.5 512 379.666992188 511.5 386 510.5 c 128
 392.333007812 509.5 398.416992188 508.083007812 404.25 506.25 c 128
 410.083007812 504.416992188 415.416992188 502.416992188 420.25 500.25 c 128
 425.083007812 498.083007812 429 495.833007812 432 493.5 c 1
 432 338 l 1
 362.5 338 l 1
EndSplineSet
EndChar

StartChar: s
Encoding: 115 115 65
Width: 455
VWidth: 1024
GlyphClass: 2
Flags: HW
LayerCount: 2
Back
Fore
SplineSet
407.5 343 m 1
 344 343 l 1
 333 425 l 1
 326.333007812 432.666992188 316 438.833007812 302 443.5 c 128
 288 448.166992188 271.666992188 450.5 253 450.5 c 0
 229 450.5 210.166992188 445.583007812 196.5 435.75 c 128
 182.833007812 425.916992188 176 412 176 394 c 0
 176 384 178.833007812 374.666992188 184.5 366 c 128
 190.166992188 357.333007812 197.833007812 349.166992188 207.5 341.5 c 128
 217.166992188 333.833007812 228.166992188 326.583007812 240.5 319.75 c 128
 252.833007812 312.916992188 265.833007812 306 279.5 299 c 0
 296.5 290.333007812 313.666992188 281.5 331 272.5 c 128
 348.333007812 263.5 363.833007812 253.5 377.5 242.5 c 128
 391.166992188 231.5 402.333007812 219.25 411 205.75 c 128
 419.666992188 192.25 424 176.833007812 424 159.5 c 0
 424 127.166992188 417.833007812 100.083007812 405.5 78.25 c 128
 393.166992188 56.4169921875 377.166992188 38.75 357.5 25.25 c 128
 337.833007812 11.75 315.5 2.0830078125 290.5 -3.75 c 128
 265.5 -9.5830078125 240.333007812 -12.5 215 -12.5 c 256
 189.666992188 -12.5 166.083007812 -11.0830078125 144.25 -8.25 c 128
 122.416992188 -5.4169921875 103.166992188 -2.1669921875 86.5 1.5 c 0
 67.1669921875 5.5 49.3330078125 10.1669921875 33 15.5 c 1
 33 171 l 1
 97.5 171 l 1
 98.1669921875 164 99.1669921875 155.166992188 100.5 144.5 c 128
 101.833007812 133.833007812 103.166992188 123.5 104.5 113.5 c 0
 105.833007812 101.833007812 107.5 89.6669921875 109.5 77 c 1
 110.166992188 75.3330078125 114 72.9169921875 121 69.75 c 128
 128 66.5830078125 136.333007812 63.3330078125 146 60 c 128
 155.666992188 56.6669921875 165.833007812 53.8330078125 176.5 51.5 c 128
 187.166992188 49.1669921875 196.666992188 48 205 48 c 0
 222.333007812 48 236.666992188 50.3330078125 248 55 c 128
 259.333007812 59.6669921875 268.333007812 65.3330078125 275 72 c 128
 281.666992188 78.6669921875 286.333007812 85.75 289 93.25 c 128
 291.666992188 100.75 293 107.5 293 113.5 c 0
 293 127.5 288.583007812 139.583007812 279.75 149.75 c 128
 270.916992188 159.916992188 259.5 169.166992188 245.5 177.5 c 128
 231.5 185.833007812 215.75 193.75 198.25 201.25 c 128
 180.75 208.75 163.5 216.833007812 146.5 225.5 c 0
 132.166992188 232.5 118.5 240.166992188 105.5 248.5 c 128
 92.5 256.833007812 81.0830078125 266.166992188 71.25 276.5 c 128
 61.4169921875 286.833007812 53.5830078125 298.5 47.75 311.5 c 128
 41.9169921875 324.5 39 339.5 39 356.5 c 0
 39 380.166992188 44.0830078125 401.583007812 54.25 420.75 c 128
 64.4169921875 439.916992188 78.6669921875 456.25 97 469.75 c 128
 115.333007812 483.25 137 493.666992188 162 501 c 128
 187 508.333007812 214.5 512 244.5 512 c 0
 269.833007812 512 292.583007812 510.583007812 312.75 507.75 c 128
 332.916992188 504.916992188 350 501.666992188 364 498 c 0
 380.333007812 494 394.833007812 489.5 407.5 484.5 c 1
 407.5 343 l 1
EndSplineSet
EndChar

StartChar: t
Encoding: 116 116 66
Width: 384
VWidth: 1024
GlyphClass: 2
Flags: HW
LayerCount: 2
Back
Fore
SplineSet
380 22.5 m 1
 364 15.8330078125 347 10 329 5 c 1
 313.666992188 0.3330078125 296.25 -3.75 276.75 -7.25 c 128
 257.25 -10.75 237 -12.5 216 -12.5 c 0
 193.333007812 -12.5 174.083007812 -10 158.25 -5 c 128
 142.416992188 0 129.583007812 7.75 119.75 18.25 c 128
 109.916992188 28.75 102.833007812 41.8330078125 98.5 57.5 c 128
 94.1669921875 73.1669921875 92 91.8330078125 92 113.5 c 2
 92 434 l 1
 24.5 434 l 1
 24.5 475 l 1
 103.5 522 l 1
 158.5 631 l 1
 229.5 631 l 1
 229.5 499.5 l 1
 371.5 499.5 l 1
 371.5 434 l 1
 229.5 434 l 1
 229.5 155.5 l 2
 229.5 122.833007812 236.666992188 99.8330078125 251 86.5 c 128
 265.333007812 73.1669921875 286.166992188 66.5 313.5 66.5 c 0
 321.5 66.5 329.5 66.8330078125 337.5 67.5 c 128
 345.5 68.1669921875 352.666992188 69 359 70 c 0
 366.333007812 71 373.333007812 72.1669921875 380 73.5 c 1
 380 22.5 l 1
EndSplineSet
EndChar

StartChar: u
Encoding: 117 117 67
Width: 635
VWidth: 1024
GlyphClass: 2
Flags: HW
LayerCount: 2
Back
Fore
SplineSet
405.5 0 m 1
 405.5 56.5 l 1
 388.5 43.5 370.833007812 32 352.5 22 c 0
 336.833007812 13.3330078125 319.5 5.4169921875 300.5 -1.75 c 128
 281.5 -8.9169921875 262.5 -12.5 243.5 -12.5 c 0
 214.5 -12.5 190.25 -8.6669921875 170.75 -1 c 128
 151.25 6.6669921875 135.666992188 17.6669921875 124 32 c 128
 112.333007812 46.3330078125 104.083007812 63.8330078125 99.25 84.5 c 128
 94.4169921875 105.166992188 92 128.5 92 154.5 c 2
 92 419 l 1
 25.5 419 l 1
 25.5 461 l 1
 176 512 l 1
 229.5 512 l 1
 229.5 194.5 l 2
 229.5 181.833007812 230.333007812 168.833007812 232 155.5 c 128
 233.666992188 142.166992188 237.666992188 130 244 119 c 128
 250.333007812 108 259.75 98.9169921875 272.25 91.75 c 128
 284.75 84.5830078125 301.833007812 81 323.5 81 c 0
 334.166992188 81 344.416992188 81.8330078125 354.25 83.5 c 128
 364.083007812 85.1669921875 372.833007812 87.1669921875 380.5 89.5 c 0
 389.166992188 92.1669921875 397.5 95.1669921875 405.5 98.5 c 1
 405.5 419 l 1
 341 419 l 1
 341 461 l 1
 490.5 512 l 1
 542.5 512 l 1
 542.5 75 l 2
 542.5 68.6669921875 544.916992188 63.25 549.75 58.75 c 128
 554.583007812 54.25 560.166992188 51.6669921875 566.5 51 c 2
 611.5 48 l 1
 611.5 0 l 1
 405.5 0 l 1
EndSplineSet
EndChar

StartChar: v
Encoding: 118 118 68
Width: 579
VWidth: 1024
GlyphClass: 2
Flags: HW
LayerCount: 2
Back
Fore
SplineSet
512 444.5 m 1
 336 0 l 1
 234.5 0 l 1
 70.5 445.5 l 1
 10 451.5 l 1
 10 499.5 l 1
 279.5 499.5 l 1
 279.5 451.5 l 1
 232.5 448.5 l 2
 226.166992188 447.833007812 221.666992188 445.333007812 219 441 c 128
 216.333007812 436.666992188 216 431.666992188 218 426 c 2
 318.5 142.5 l 1
 430 426 l 2
 432 431 431.333007812 435.833007812 428 440.5 c 128
 424.666992188 445.166992188 420.166992188 447.833007812 414.5 448.5 c 2
 371.5 451.5 l 1
 371.5 499.5 l 1
 570.5 499.5 l 1
 570.5 451.5 l 1
 512 444.5 l 1
EndSplineSet
EndChar

StartChar: w
Encoding: 119 119 69
Width: 861
VWidth: 1024
GlyphClass: 2
Flags: HW
LayerCount: 2
Back
Fore
SplineSet
794.5 444.5 m 1
 657.5 0 l 1
 543.5 0 l 1
 432 363.5 l 1
 314.5 0 l 1
 203 0 l 1
 70.5 445.5 l 1
 10 451.5 l 1
 10 499.5 l 1
 272.5 499.5 l 1
 272.5 451.5 l 1
 228.5 448.5 l 2
 222.833007812 447.833007812 218.416992188 445.333007812 215.25 441 c 128
 212.083007812 436.666992188 211.333007812 431.666992188 213 426 c 2
 293 144.5 l 1
 407.5 499.5 l 1
 520 499.5 l 1
 630 142.5 l 1
 715 426 l 2
 716.666992188 431 716.083007812 435.833007812 713.25 440.5 c 128
 710.416992188 445.166992188 706.166992188 447.833007812 700.5 448.5 c 2
 655.5 451.5 l 1
 655.5 499.5 l 1
 852 499.5 l 1
 852 451.5 l 1
 794.5 444.5 l 1
EndSplineSet
EndChar

StartChar: x
Encoding: 120 120 70
Width: 559
VWidth: 1024
GlyphClass: 2
Flags: HW
LayerCount: 2
Back
Fore
SplineSet
290 0 m 1
 290 48 l 1
 329.5 52 l 2
 334.833007812 52.6669921875 338.25 54.75 339.75 58.25 c 128
 341.25 61.75 340.666992188 65.5 338 69.5 c 2
 257 180 l 1
 167 69.5 l 2
 164 65.8330078125 163.166992188 62.1669921875 164.5 58.5 c 128
 165.833007812 54.8330078125 169 52.6669921875 174 52 c 2
 210 48 l 1
 210 0 l 1
 10 0 l 1
 10 48 l 1
 71.5 56.5 l 1
 218 233.5 l 1
 66.5 444.5 l 1
 12.5 451.5 l 1
 12.5 499.5 l 1
 264 499.5 l 1
 264 451.5 l 1
 234.5 448.5 l 2
 228.833007812 447.833007812 225.416992188 445.5 224.25 441.5 c 128
 223.083007812 437.5 224.166992188 433.666992188 227.5 430 c 1
 299 331 l 1
 381 430 l 2
 383.666992188 433.666992188 384.416992188 437.5 383.25 441.5 c 128
 382.083007812 445.5 379 447.833007812 374 448.5 c 2
 341 451.5 l 1
 341 499.5 l 1
 531.5 499.5 l 1
 531.5 451.5 l 1
 474 444.5 l 1
 338 276.5 l 1
 495.5 56.5 l 1
 550 48 l 1
 550 0 l 1
 290 0 l 1
EndSplineSet
EndChar

StartChar: y
Encoding: 121 121 71
Width: 579
VWidth: 1024
GlyphClass: 2
Flags: HW
LayerCount: 2
Back
Fore
SplineSet
516 444.5 m 1
 339 10 l 2
 332.666992188 -5.3330078125 325.666992188 -22 318 -40 c 128
 310.333007812 -58 301.75 -76.0830078125 292.25 -94.25 c 128
 282.75 -112.416992188 272.333007812 -129.916992188 261 -146.75 c 128
 249.666992188 -163.583007812 237 -178.5 223 -191.5 c 1
 208.666992188 -205.5 193.083007812 -216.5 176.25 -224.5 c 128
 159.416992188 -232.5 141 -236.5 121 -236.5 c 0
 111 -236.5 100.583007812 -234.583007812 89.75 -230.75 c 128
 78.9169921875 -226.916992188 69.0830078125 -221.416992188 60.25 -214.25 c 128
 51.4169921875 -207.083007812 44.1669921875 -198.416992188 38.5 -188.25 c 128
 32.8330078125 -178.083007812 30.1669921875 -166.833007812 30.5 -154.5 c 0
 30.5 -145.166992188 32.25 -136.583007812 35.75 -128.75 c 128
 39.25 -120.916992188 43.75 -113.833007812 49.25 -107.5 c 128
 54.75 -101.166992188 61.0830078125 -95.6669921875 68.25 -91 c 128
 75.4169921875 -86.3330078125 82.6669921875 -82.3330078125 90 -79 c 1
 177 -145.5 l 1
 186.333007812 -136.833007812 195.083007812 -126.5 203.25 -114.5 c 128
 211.416992188 -102.5 218.75 -90.0830078125 225.25 -77.25 c 128
 231.75 -64.4169921875 237.416992188 -52 242.25 -40 c 128
 247.083007812 -28 250.666992188 -17.6669921875 253 -9 c 1
 70.5 445.5 l 1
 10 451.5 l 1
 10 499.5 l 1
 279.5 499.5 l 1
 279.5 451.5 l 1
 232.5 448.5 l 2
 226.166992188 447.833007812 221.5 445.333007812 218.5 441 c 128
 215.5 436.666992188 215 431.666992188 217 426 c 2
 322.5 163 l 1
 431 426 l 2
 433 431 432.333007812 435.833007812 429 440.5 c 128
 425.666992188 445.166992188 421.166992188 447.833007812 415.5 448.5 c 2
 370.5 451.5 l 1
 370.5 499.5 l 1
 570.5 499.5 l 1
 570.5 451.5 l 1
 516 444.5 l 1
EndSplineSet
EndChar

StartChar: z
Encoding: 122 122 72
Width: 503
VWidth: 1024
GlyphClass: 2
Flags: HW
LayerCount: 2
Back
Fore
SplineSet
33 0 m 1
 33 66.5 l 1
 295 441.5 l 1
 140.5 441.5 l 2
 135.166992188 441.5 130.583007812 439.083007812 126.75 434.25 c 128
 122.916992188 429.416992188 121 424.666992188 121 420 c 1
 113.5 341 l 1
 41 341 l 1
 41 499.5 l 1
 455.5 499.5 l 1
 455.5 442.5 l 1
 187.5 60.5 l 1
 363.5 60.5 l 2
 365.833007812 60.5 368.166992188 61.3330078125 370.5 63 c 128
 372.833007812 64.6669921875 375.083007812 66.6669921875 377.25 69 c 128
 379.416992188 71.3330078125 381.25 73.9169921875 382.75 76.75 c 128
 384.25 79.5830078125 385.333007812 82.3330078125 386 85 c 2
 399.5 172 l 1
 470 172 l 1
 470 0 l 1
 33 0 l 1
EndSplineSet
EndChar

StartChar: braceleft
Encoding: 123 123 73
Width: 507
VWidth: 1024
GlyphClass: 2
Flags: HW
LayerCount: 2
Back
Fore
SplineSet
432 -125 m 1
 412 -125 l 2
 403 -125 392.416992188 -124.75 380.25 -124.25 c 128
 368.083007812 -123.75 355 -122.75 341 -121.25 c 128
 327 -119.75 313.166992188 -117.416992188 299.5 -114.25 c 128
 285.833007812 -111.083007812 272.833007812 -107 260.5 -102 c 128
 248.166992188 -97 237.833007812 -90.6669921875 229.5 -83 c 0
 213.833007812 -69.3330078125 202.5 -53.1669921875 195.5 -34.5 c 128
 188.5 -15.8330078125 183.916992188 3.75 181.75 24.25 c 128
 179.583007812 44.75 178.75 65.5830078125 179.25 86.75 c 128
 179.75 107.916992188 179.833007812 128.166992188 179.5 147.5 c 128
 179.166992188 166.833007812 177.416992188 184.5 174.25 200.5 c 128
 171.083007812 216.5 164.5 229.5 154.5 239.5 c 256
 144.5 249.5 133 256.583007812 120 260.75 c 128
 107 264.916992188 94.6669921875 267.666992188 83 269 c 0
 69.6669921875 270.333007812 56 270.166992188 42 268.5 c 1
 42 329.5 l 1
 56 327.5 69.6669921875 327.166992188 83 328.5 c 0
 94.6669921875 329.5 107 332.083007812 120 336.25 c 128
 133 340.416992188 144.5 347.5 154.5 357.5 c 256
 164.5 367.5 171.083007812 380.583007812 174.25 396.75 c 128
 177.416992188 412.916992188 179.166992188 430.666992188 179.5 450 c 128
 179.833007812 469.333007812 179.75 489.666992188 179.25 511 c 128
 178.75 532.333007812 179.583007812 553.25 181.75 573.75 c 128
 183.916992188 594.25 188.5 613.833007812 195.5 632.5 c 128
 202.5 651.166992188 213.833007812 667.333007812 229.5 681 c 0
 237.833007812 688.666992188 248.166992188 695 260.5 700 c 128
 272.833007812 705 285.833007812 709.083007812 299.5 712.25 c 128
 313.166992188 715.416992188 327 717.75 341 719.25 c 128
 355 720.75 368.083007812 721.75 380.25 722.25 c 128
 392.416992188 722.75 403 723 412 723 c 2
 432 723 l 1
 432 666.5 l 1
 419.666992188 666.5 407.5 665.666992188 395.5 664 c 0
 385.166992188 662.333007812 374.416992188 659.666992188 363.25 656 c 128
 352.083007812 652.333007812 342.666992188 646.666992188 335 639 c 0
 324.666992188 629 317.666992188 616.583007812 314 601.75 c 128
 310.333007812 586.916992188 308.166992188 570.75 307.5 553.25 c 128
 306.833007812 535.75 306.666992188 517.5 307 498.5 c 128
 307.333007812 479.5 306.5 460.75 304.5 442.25 c 128
 302.5 423.75 298.416992188 406 292.25 389 c 128
 286.083007812 372 276 357 262 344 c 0
 251.333007812 333.666992188 240.166992188 325.5 228.5 319.5 c 128
 216.833007812 313.5 206 309 196 306 c 128
 186 303 177.166992188 301 169.5 300 c 0
 163.833007812 299.333007812 159.5 299 156.5 299 c 1
 159.5 298.666992188 163.833007812 298.166992188 169.5 297.5 c 0
 177.166992188 296.5 186 294.416992188 196 291.25 c 128
 206 288.083007812 216.833007812 283.5 228.5 277.5 c 128
 240.166992188 271.5 251.333007812 263.333007812 262 253 c 0
 276 239.666992188 286.083007812 224.583007812 292.25 207.75 c 128
 298.416992188 190.916992188 302.5 173.25 304.5 154.75 c 128
 306.5 136.25 307.333007812 117.583007812 307 98.75 c 128
 306.666992188 79.9169921875 306.833007812 61.8330078125 307.5 44.5 c 128
 308.166992188 27.1669921875 310.333007812 11.0830078125 314 -3.75 c 128
 317.666992188 -18.5830078125 324.666992188 -31 335 -41 c 0
 342.666992188 -48.6669921875 352.083007812 -54.3330078125 363.25 -58 c 128
 374.416992188 -61.6669921875 385.166992188 -64.3330078125 395.5 -66 c 0
 407.5 -67.6669921875 419.666992188 -68.5 432 -68.5 c 1
 432 -125 l 1
EndSplineSet
EndChar

StartChar: bar
Encoding: 124 124 74
Width: 407
VWidth: 1024
GlyphClass: 2
Flags: HW
LayerCount: 2
Back
Fore
SplineSet
160 -264 m 1
 160 815 l 1
 247.5 815 l 1
 247.5 -264 l 1
 160 -264 l 1
EndSplineSet
EndChar

StartChar: braceright
Encoding: 125 125 75
Width: 507
VWidth: 1024
GlyphClass: 2
Flags: HW
LayerCount: 2
Back
Fore
SplineSet
465 268.5 m 1
 450.666992188 270.166992188 436.833007812 270.333007812 423.5 269 c 0
 411.833007812 267.666992188 399.5 264.916992188 386.5 260.75 c 128
 373.5 256.583007812 362.166992188 249.5 352.5 239.5 c 0
 342.5 229.166992188 335.833007812 216 332.5 200 c 128
 329.166992188 184 327.25 166.333007812 326.75 147 c 128
 326.25 127.666992188 326.25 107.416992188 326.75 86.25 c 128
 327.25 65.0830078125 326.416992188 44.25 324.25 23.75 c 128
 322.083007812 3.25 317.583007812 -16.25 310.75 -34.75 c 128
 303.916992188 -53.25 292.833007812 -69.3330078125 277.5 -83 c 0
 268.833007812 -90.6669921875 258.416992188 -97 246.25 -102 c 128
 234.083007812 -107 221.166992188 -111.083007812 207.5 -114.25 c 128
 193.833007812 -117.416992188 180 -119.75 166 -121.25 c 128
 152 -122.75 138.916992188 -123.75 126.75 -124.25 c 128
 114.583007812 -124.75 103.833007812 -125 94.5 -125 c 2
 75 -125 l 1
 75 -68.5 l 1
 87.3330078125 -68.5 99.5 -67.6669921875 111.5 -66 c 0
 121.833007812 -64.3330078125 132.5 -61.6669921875 143.5 -58 c 128
 154.5 -54.3330078125 164 -48.6669921875 172 -41 c 0
 182.333007812 -31 189.333007812 -18.6669921875 193 -4 c 128
 196.666992188 10.6669921875 198.833007812 26.6669921875 199.5 44 c 128
 200.166992188 61.3330078125 200.333007812 79.4169921875 200 98.25 c 128
 199.666992188 117.083007812 200.416992188 135.75 202.25 154.25 c 128
 204.083007812 172.75 208.083007812 190.5 214.25 207.5 c 128
 220.416992188 224.5 230.5 239.666992188 244.5 253 c 0
 255.166992188 263 266.166992188 271 277.5 277 c 128
 288.833007812 283 299.583007812 287.583007812 309.75 290.75 c 128
 319.916992188 293.916992188 328.833007812 296 336.5 297 c 128
 344.166992188 298 349.5 298.666992188 352.5 299 c 1
 350.166992188 299 345.25 299.333007812 337.75 300 c 128
 330.25 300.666992188 321.416992188 302.5 311.25 305.5 c 128
 301.083007812 308.5 290.166992188 313 278.5 319 c 128
 266.833007812 325 255.5 333.333007812 244.5 344 c 0
 230.5 357.333007812 220.416992188 372.5 214.25 389.5 c 128
 208.083007812 406.5 204.083007812 424.25 202.25 442.75 c 128
 200.416992188 461.25 199.666992188 480 200 499 c 128
 200.333007812 518 200.166992188 536.25 199.5 553.75 c 128
 198.833007812 571.25 196.666992188 587.333007812 193 602 c 128
 189.333007812 616.666992188 182.333007812 629 172 639 c 0
 164 646.666992188 154.5 652.333007812 143.5 656 c 128
 132.5 659.666992188 121.833007812 662.333007812 111.5 664 c 0
 99.5 665.666992188 87.3330078125 666.5 75 666.5 c 1
 75 723 l 1
 94.5 723 l 2
 103.833007812 723 114.583007812 722.75 126.75 722.25 c 128
 138.916992188 721.75 152 720.75 166 719.25 c 128
 180 717.75 193.833007812 715.416992188 207.5 712.25 c 128
 221.166992188 709.083007812 234.166992188 705 246.5 700 c 128
 258.833007812 695 269.166992188 688.666992188 277.5 681 c 0
 292.833007812 667 303.916992188 650.75 310.75 632.25 c 128
 317.583007812 613.75 322.083007812 594.25 324.25 573.75 c 128
 326.416992188 553.25 327.25 532.333007812 326.75 511 c 128
 326.25 489.666992188 326.25 469.333007812 326.75 450 c 128
 327.25 430.666992188 329.166992188 412.916992188 332.5 396.75 c 128
 335.833007812 380.583007812 342.5 367.5 352.5 357.5 c 0
 362.166992188 347.5 373.5 340.416992188 386.5 336.25 c 128
 399.5 332.083007812 411.833007812 329.5 423.5 328.5 c 0
 436.833007812 327.166992188 450.666992188 327.5 465 329.5 c 1
 465 268.5 l 1
EndSplineSet
EndChar

StartChar: asciitilde
Encoding: 126 126 76
Width: 853
VWidth: 1024
GlyphClass: 2
Flags: HW
LayerCount: 2
Back
Fore
SplineSet
765 307 m 1
 744.333007812 292.333007812 725.083007812 280 707.25 270 c 128
 689.416992188 260 672.583007812 252 656.75 246 c 128
 640.916992188 240 625.666992188 235.75 611 233.25 c 128
 596.333007812 230.75 581.833007812 229.5 567.5 229.5 c 0
 542.5 229.5 518.25 233.083007812 494.75 240.25 c 128
 471.25 247.416992188 447.916992188 255.25 424.75 263.75 c 128
 401.583007812 272.25 378.166992188 280.083007812 354.5 287.25 c 128
 330.833007812 294.416992188 306.5 298 281.5 298 c 0
 257.833007812 298 230.333007812 290.75 199 276.25 c 128
 167.666992188 261.75 130.666992188 238.333007812 88 206 c 1
 88 303 l 1
 126.666992188 332.333007812 162.666992188 352.833007812 196 364.5 c 128
 229.333007812 376.166992188 259.833007812 382 287.5 382 c 0
 306.833007812 382 325.666992188 379.916992188 344 375.75 c 128
 362.333007812 371.583007812 380.416992188 366.5 398.25 360.5 c 128
 416.083007812 354.5 433.833007812 348.083007812 451.5 341.25 c 128
 469.166992188 334.416992188 487 328.5 505 323.5 c 0
 515.666992188 320.5 526.333007812 318.083007812 537 316.25 c 128
 547.666992188 314.416992188 558.166992188 313.5 568.5 313.5 c 0
 579.5 313.5 591.333007812 314.833007812 604 317.5 c 128
 616.666992188 320.166992188 630.916992188 324.916992188 646.75 331.75 c 128
 662.583007812 338.583007812 680.166992188 347.916992188 699.5 359.75 c 128
 718.833007812 371.583007812 740.666992188 386.5 765 404.5 c 1
 765 307 l 1
EndSplineSet
EndChar

StartChar: exclam
Encoding: 33 33 83
Width: 348
VWidth: 1024
GlyphClass: 2
Flags: HW
LayerCount: 2
Back
Fore
SplineSet
257 71.5 m 0
 257 59.8330078125 254.75 48.8330078125 250.25 38.5 c 128
 245.75 28.1669921875 239.75 19.25 232.25 11.75 c 128
 224.75 4.25 216.083007812 -1.6669921875 206.25 -6 c 128
 196.416992188 -10.3330078125 186 -12.5 175 -12.5 c 0
 166.666992188 -12.5 157.666992188 -10.9169921875 148 -7.75 c 128
 138.333007812 -4.5830078125 129.333007812 0.3330078125 121 7 c 128
 112.666992188 13.6669921875 105.75 22.3330078125 100.25 33 c 128
 94.75 43.6669921875 92 56.5 92 71.5 c 0
 92 84.8330078125 94.5 96.5830078125 99.5 106.75 c 128
 104.5 116.916992188 111 125.333007812 119 132 c 128
 127 138.666992188 135.916992188 143.75 145.75 147.25 c 128
 155.583007812 150.75 165.333007812 152.5 175 152.5 c 0
 184.333007812 152.5 193.916992188 150.666992188 203.75 147 c 128
 213.583007812 143.333007812 222.416992188 138 230.25 131 c 128
 238.083007812 124 244.5 115.5 249.5 105.5 c 128
 254.5 95.5 257 84.1669921875 257 71.5 c 0
203 213 m 1
 147.5 213 l 1
 91 620.5 l 1
 91 634.833007812 93.25 647.25 97.75 657.75 c 128
 102.25 668.25 108.25 676.833007812 115.75 683.5 c 128
 123.25 690.166992188 132.083007812 695.166992188 142.25 698.5 c 128
 152.416992188 701.833007812 163.333007812 703.5 175 703.5 c 0
 186.333007812 703.5 197.083007812 701.916992188 207.25 698.75 c 128
 217.416992188 695.583007812 226.25 690.666992188 233.75 684 c 128
 241.25 677.333007812 247.166992188 668.75 251.5 658.25 c 128
 255.833007812 647.75 258 635.166992188 258 620.5 c 1
 203 213 l 1
EndSplineSet
EndChar

StartChar: quoteleft
Encoding: 8216 8216 84
Width: 237
GlyphClass: 2
Flags: HW
LayerCount: 2
Back
Fore
SplineSet
212 809 m 1
 166.692 779.956 127 729.8 127 677 c 1
 201 617 l 1
 112 540 l 1
 26 615 l 1
 56.3271 692.503 86.3064 734.431 162 841 c 1
 212 809 l 1
EndSplineSet
EndChar

StartChar: u25CC
Encoding: 9676 9676 85
Width: 747
GlyphClass: 2
Flags: HW
LayerCount: 2
Back
Fore
SplineSet
841 596 m 1
 -39 596 l 1
 -39 680 l 1
 841 680 l 1
 841 596 l 1
596 464 m 0
 617.972 464 640 455.8 640 423 c 0
 640 401.034 629.4 370 587 370 c 0
 565 370 549 375.333 539 386 c 1
 531.407 407.26 554.83 445.081 570 457 c 1
 579.333 461.667 588 464 596 464 c 0
511 552 m 0
 524.6 552 554 539.85 554 502 c 0
 554 492.667 552.333 484 549 476 c 1
 539.647 461.302 493.874 440.608 475 446 c 1
 462.2 458.8 460 485.2 460 495 c 0
 460 529.376 484.325 552 511 552 c 0
567 301 m 1
 567 323.076 601.917 345 630 345 c 256
 650 345 681.658 333.816 680 299 c 1
 674.309 271.968 652.127 254 629 254 c 0
 608.101 254 568.547 273.148 567 301 c 1
391 576 m 0
 420.398 576 445 554.373 445 527 c 0
 445 502.05 417.5 468 391 468 c 0
 370.769 468 347 501.046 347 527 c 0
 347 554.2 364.6 576 391 576 c 0
648 181 m 0
 648 168.741 641.98 140 595 140 c 0
 587.667 140 580.333 141.333 573 144 c 1
 556.693 154.872 542 176.4 542 198 c 0
 542 216 555.529 228 594 228 c 0
 606.667 228 616 226.333 622 223 c 0
 639.333 210.333 648 196.333 648 181 c 0
269 545 m 0
 308.316 545 321 511.328 321 492 c 0
 321 469.682 313.815 445 285 445 c 0
 262.333 445 243.667 454 229 472 c 1
 226.333 477.333 225 484.667 225 494 c 0
 225 534.8 251.4 545 269 545 c 0
463 111 m 0
 463 151.834 483.356 154 492 154 c 0
 514.543 154 541.966 139.045 554 123 c 0
 557.333 117 559 109.333 559 100 c 0
 559 81.3333 551.333 67 536 57 c 0
 532.667 55.6667 526.333 55 517 55 c 0
 492.556 55 463 66.2 463 111 c 0
241 399 m 0
 241 379.2 230.562 366 195 366 c 0
 149.875 366 137 393.7 137 417 c 0
 137 442.2 155.8 459 184 459 c 0
 208.249 459 241 434.463 241 399 c 0
390 126 m 0
 412.82 126 444 95.1507 444 68 c 256
 444 43.0585 418.635 16 390 16 c 0
 365.495 16 346 41.2078 346 69 c 0
 346 94.2319 370.091 126 390 126 c 0
155 345 m 0
 176.39 345 216.505 328.098 215 301 c 1
 215 276.078 182.255 254 152 254 c 0
 127.656 254 105 272.433 105 301 c 0
 105 330.333 121.667 345 155 345 c 0
131 187 m 0
 131 209.481 158.793 234 193 234 c 0
 213 234 228 228 238 216 c 0
 239.333 213.333 240 209 240 203 c 0
 240 175.794 214.718 141 184 141 c 0
 165.747 141 131 150.2 131 187 c 0
318 106 m 0
 318 90.5234 316.648 56 263 56 c 0
 255 56 248.667 56.6667 244 58 c 1
 230 68.6667 223 82.3333 223 99 c 0
 223 143.923 271.503 155 287 155 c 0
 305.6 155 318 142.875 318 106 c 0
EndSplineSet
EndChar

StartChar: u0950
Encoding: 2384 2384 86
Width: 992
GlyphClass: 2
Flags: HW
LayerCount: 2
Back
Fore
SplineSet
603 939 m 1
 522 860 l 1
 447 935 l 1
 522 1012 l 1
 603 939 l 1
512 806 m 0
 639.061 806 698 925.963 698 973 c 1
 772 893 l 1
 752.667 855.667 735.333 827.667 720 809 c 0
 670.667 753 609.667 725 537 725 c 0
 491 725 443.333 742.667 394 778 c 0
 326 826 284.667 868.667 270 906 c 1
 316 945 l 1
 316 921 330.333 894.667 359 866 c 0
 397.667 826 448.667 806 512 806 c 0
411 399 m 1
 436.892 381.738 450.2 379 460 379 c 0
 508 379 551 425.167 589 517.5 c 128
 627 609.833 674 656 730 656 c 0
 776.667 656 824.5 628.167 873.5 572.5 c 128
 922.5 516.833 944.667 459 940 399 c 1
 940 193.825 833.2 162 762 162 c 0
 709.12 162 625.192 262.173 623 283 c 1
 663 325 l 1
 663 281.872 690.596 244.04 741 239 c 1
 824.413 239 847 380.728 847 477 c 0
 847 541 810.6 557 761 557 c 0
 718.333 557 685 531 661 479 c 0
 608.333 365.667 556.667 309 506 309 c 0
 500.667 309 488 313.667 468 323 c 1
 488.047 291.108 519 234.8 519 176 c 0
 519 73.8594 453.43 21 369 21 c 0
 180.798 21 49 378.325 49 395 c 1
 113 431 l 1
 111.667 427.667 111 420.667 111 410 c 0
 111 357.333 128.667 300.667 164 240 c 0
 208.667 164 263.333 126 328 126 c 0
 382.43 126 434 154.228 434 211 c 0
 434 293.051 388.866 359.134 372 376 c 1
 263 350 l 1
 217 435 l 1
 233 451 l 1
 249.667 440.333 286.667 446 344 468 c 0
 378 480.667 395 498.667 395 522 c 0
 395 571.2 377.65 604 298 604 c 0
 273.6 604 232.041 598.802 176 572 c 1
 153 567 l 1
 110 651 l 1
 119.986 659.738 217.613 690 271 690 c 0
 385.507 690 462 592.725 462 492 c 0
 462 436.2 434.531 413.974 411 399 c 1
EndSplineSet
EndChar

StartChar: u093D
Encoding: 2365 2365 87
Width: 667
GlyphClass: 2
Flags: HW
LayerCount: 2
Back
Fore
SplineSet
221 581 m 2
 187.147 581 182 575.038 182 551 c 0
 182 515.667 217 477 287 435 c 0
 411.667 360.333 476.333 321.333 481 318 c 0
 551.667 265.333 587.333 208.667 588 148 c 0
 588 15.8031 477.143 -51 354 -51 c 0
 231.6 -51 76.4324 71.5664 48 93 c 1
 77 126 l 1
 87.0272 90.9049 199.837 12 313 12 c 0
 395.4 12 482 41.6 482 160 c 0
 482 230.667 447 292.333 377 345 c 1
 183 458 l 2
 113 498.667 78 540.333 78 583 c 0
 78 634.956 124.457 674 172 674 c 2
 520 674 l 1
 520 581 l 1
 221 581 l 2
EndSplineSet
EndChar

StartChar: u0903
Encoding: 2307 2307 88
Width: 324
GlyphClass: 2
Flags: HW
LayerCount: 2
Back
Fore
SplineSet
393 597 m 1
 -39 597 l 1
 -39 679 l 1
 393 679 l 1
 393 597 l 1
266 399 m 1
 178 313 l 1
 85 409 l 1
 180 487 l 1
 266 399 l 1
266 149 m 1
 178 66 l 1
 88 156 l 1
 180 237 l 1
 266 149 l 1
EndSplineSet
EndChar

StartChar: quoteright
Encoding: 8217 8217 89
Width: 277
GlyphClass: 2
Flags: HW
LayerCount: 2
Back
Fore
SplineSet
291 768 m 1
 253.474 680.939 206.419 616.861 153 546 c 1
 109 574 l 1
 178.426 634.044 189 683.6 189 711 c 1
 115 772 l 1
 204 853 l 1
 291 768 l 1
EndSplineSet
EndChar

StartChar: parenleft
Encoding: 40 40 90
Width: 401
VWidth: 1024
GlyphClass: 2
Flags: HW
LayerCount: 2
Back
Fore
SplineSet
366.5 -145.5 m 1
 316.166992188 -144.166992188 271.916992188 -133 233.75 -112 c 128
 195.583007812 -91 163.666992188 -61.5 138 -23.5 c 128
 112.333007812 14.5 93 60.3330078125 80 114 c 128
 67 167.666992188 60.5 228 60.5 295 c 0
 60.5 361.666992188 67 421.75 80 475.25 c 128
 93 528.75 112.333007812 574.416992188 138 612.25 c 128
 163.666992188 650.083007812 195.583007812 679.416992188 233.75 700.25 c 128
 271.916992188 721.083007812 316.166992188 732.333007812 366.5 734 c 1
 366.5 679 l 1
 330.5 674 301.083007812 661.083007812 278.25 640.25 c 128
 255.416992188 619.416992188 237.5 592.166992188 224.5 558.5 c 128
 211.5 524.833007812 202.583007812 485.583007812 197.75 440.75 c 128
 192.916992188 395.916992188 190.5 347.333007812 190.5 295 c 0
 190.5 242.333007812 192.916992188 193.583007812 197.75 148.75 c 128
 202.583007812 103.916992188 211.5 64.6669921875 224.5 31 c 128
 237.5 -2.6669921875 255.416992188 -30 278.25 -51 c 128
 301.083007812 -72 330.5 -85 366.5 -90 c 1
 366.5 -145.5 l 1
EndSplineSet
EndChar

StartChar: parenright
Encoding: 41 41 91
Width: 401
VWidth: 1024
GlyphClass: 2
Flags: HW
LayerCount: 2
Back
Fore
SplineSet
341 295 m 0
 341 228 334.5 167.666992188 321.5 114 c 128
 308.5 60.3330078125 289.083007812 14.5 263.25 -23.5 c 128
 237.416992188 -61.5 205.416992188 -91 167.25 -112 c 128
 129.083007812 -133 85 -144.166992188 35 -145.5 c 1
 35 -90 l 1
 70.6669921875 -85 99.9169921875 -72 122.75 -51 c 128
 145.583007812 -30 163.5 -2.6669921875 176.5 31 c 128
 189.5 64.6669921875 198.5 103.916992188 203.5 148.75 c 128
 208.5 193.583007812 211 242.333007812 211 295 c 0
 211 347.333007812 208.5 395.916992188 203.5 440.75 c 128
 198.5 485.583007812 189.5 524.833007812 176.5 558.5 c 128
 163.5 592.166992188 145.583007812 619.416992188 122.75 640.25 c 128
 99.9169921875 661.083007812 70.6669921875 674 35 679 c 1
 35 734 l 1
 85 732.333007812 129.083007812 721.083007812 167.25 700.25 c 128
 205.416992188 679.416992188 237.416992188 650.083007812 263.25 612.25 c 128
 289.083007812 574.416992188 308.5 528.75 321.5 475.25 c 128
 334.5 421.75 341 361.666992188 341 295 c 0
EndSplineSet
EndChar

StartChar: u0964
Encoding: 2404 2404 92
Width: 732
GlyphClass: 2
Flags: HW
LayerCount: 2
Back
Fore
SplineSet
485 -49 m 1
 379 23 l 1
 379 797 l 1
 485 725 l 1
 485 -49 l 1
EndSplineSet
EndChar

StartChar: u0905
Encoding: 2309 2309 112
Width: 812
GlyphClass: 2
Flags: HW
LayerCount: 2
Back
Fore
SplineSet
526 362 m 0
 573.203 362 602.974 375.254 637 400 c 1
 637 598 l 1
 516 598 l 1
 479 680 l 1
 901 680 l 1
 897 597 l 1
 741 597 l 1
 741 -49 l 1
 635 25 l 1
 635 292 l 1
 609.519 284.922 590.036 285 557 285 c 0
 541.548 285.813 522.612 289.222 481 313 c 1
 489.181 290.502 504 241.6 504 194 c 0
 504 95.0163 427.19 36 320 36 c 0
 107.522 36 10.6067 409.623 15 425 c 1
 87 451 l 1
 79.6667 441 76 423.667 76 399 c 0
 76 271.052 150.817 131 290 131 c 0
 348.543 131 427 159.6 427 274 c 0
 427 329.8 401.32 375.76 385 388 c 1
 348.809 373.024 303.292 360 254 360 c 1
 191 455 l 1
 235.667 458.333 268.667 462.667 290 468 c 0
 356 486.667 389 518.333 389 563 c 0
 389 591.8 376 611 312 611 c 0
 256.35 611 187.968 576.819 169 549 c 1
 116 649 l 1
 131.643 664.643 216.634 693 269 693 c 0
 358.536 693 474 618.511 474 516 c 0
 474 472.302 448.718 440.459 421 414 c 1
 462.512 364.705 510.37 362 526 362 c 0
EndSplineSet
EndChar

StartChar: comma
Encoding: 44 44 113
Width: 325
VWidth: 1024
GlyphClass: 2
Flags: HW
LayerCount: 2
Back
Fore
SplineSet
248 60.5 m 0
 248 39.1669921875 245 18.6669921875 239 -1 c 128
 233 -20.6669921875 224.916992188 -39.25 214.75 -56.75 c 128
 204.583007812 -74.25 192.583007812 -90.25 178.75 -104.75 c 128
 164.916992188 -119.25 150.166992188 -131.916992188 134.5 -142.75 c 128
 118.833007812 -153.583007812 102.583007812 -162.25 85.75 -168.75 c 128
 68.9169921875 -175.25 52.3330078125 -179 36 -180 c 1
 36 -130 l 1
 49 -128 62.9169921875 -124.25 77.75 -118.75 c 128
 92.5830078125 -113.25 106.166992188 -105.166992188 118.5 -94.5 c 128
 130.833007812 -83.8330078125 140.833007812 -70.25 148.5 -53.75 c 128
 156.166992188 -37.25 159.5 -17 158.5 7 c 1
 96.5 7 l 1
 90.1669921875 12 85 17.25 81 22.75 c 128
 77 28.25 73.75 33.8330078125 71.25 39.5 c 128
 68.75 45.1669921875 67 50.8330078125 66 56.5 c 128
 65 62.1669921875 64.5 67.5 64.5 72.5 c 0
 64.5 85.5 66.9169921875 97.25 71.75 107.75 c 128
 76.5830078125 118.25 83 127.25 91 134.75 c 128
 99 142.25 108.166992188 148.083007812 118.5 152.25 c 128
 128.833007812 156.416992188 139.5 158.5 150.5 158.5 c 0
 181.5 158.5 205.5 149.666992188 222.5 132 c 128
 239.5 114.333007812 248 90.5 248 60.5 c 0
EndSplineSet
EndChar

StartChar: hyphen
Encoding: 45 45 114
Width: 336
VWidth: 1024
GlyphClass: 2
Flags: HW
LayerCount: 2
Back
Fore
SplineSet
34 192.5 m 1
 34 301 l 1
 302 301 l 1
 302 192.5 l 1
 34 192.5 l 1
EndSplineSet
EndChar

StartChar: period
Encoding: 46 46 115
Width: 325
VWidth: 1024
GlyphClass: 2
Flags: HW
LayerCount: 2
Back
Fore
SplineSet
235.5 72.5 m 0
 235.5 60.8330078125 233.333007812 49.8330078125 229 39.5 c 128
 224.666992188 29.1669921875 218.666992188 20.1669921875 211 12.5 c 128
 203.333007812 4.8330078125 194.333007812 -1.25 184 -5.75 c 128
 173.666992188 -10.25 162.5 -12.5 150.5 -12.5 c 0
 138.833007812 -12.5 127.75 -10.25 117.25 -5.75 c 128
 106.75 -1.25 97.5830078125 4.8330078125 89.75 12.5 c 128
 81.9169921875 20.1669921875 75.75 29.1669921875 71.25 39.5 c 128
 66.75 49.8330078125 64.5 60.8330078125 64.5 72.5 c 0
 64.5 84.5 66.75 95.6669921875 71.25 106 c 128
 75.75 116.333007812 81.9169921875 125.416992188 89.75 133.25 c 128
 97.5830078125 141.083007812 106.75 147.25 117.25 151.75 c 128
 127.75 156.25 138.833007812 158.5 150.5 158.5 c 0
 162.5 158.5 173.666992188 156.25 184 151.75 c 128
 194.333007812 147.25 203.333007812 141.083007812 211 133.25 c 128
 218.666992188 125.416992188 224.666992188 116.333007812 229 106 c 128
 233.333007812 95.6669921875 235.5 84.5 235.5 72.5 c 0
EndSplineSet
EndChar

StartChar: slash
Encoding: 47 47 116
Width: 513
VWidth: 1024
GlyphClass: 2
Flags: HW
LayerCount: 2
Back
Fore
SplineSet
80 -95 m 1
 0 -95 l 1
 432 687 l 1
 513 687 l 1
 80 -95 l 1
EndSplineSet
EndChar

StartChar: u0966
Encoding: 2406 2406 117
Width: 667
GlyphClass: 2
Flags: HW
LayerCount: 2
Back
Fore
SplineSet
336 570 m 1
 477.619 570 584.681 463.912 586 336 c 0
 586 269.333 560.833 212.667 510.5 166 c 128
 460.167 119.333 400 96 330 96 c 0
 261.333 96 203.333 120.167 156 168.5 c 128
 108.667 216.833 85 275.333 85 344 c 0
 85 471.559 196.82 570 336 570 c 1
 336 559 l 1
 336 570 l 1
306 185 m 0
 398.555 185 499 263.626 499 356 c 0
 499 410.667 489 445.833 469 461.5 c 128
 449 477.167 411 485 355 485 c 1
 355 494 l 1
 355 485 l 1
 316.333 485 274.5 466.333 229.5 429 c 128
 184.5 391.667 162 353.667 162 315 c 0
 162 211.21 202.673 185 306 185 c 0
EndSplineSet
EndChar

StartChar: u0967
Encoding: 2407 2407 118
Width: 667
GlyphClass: 2
Flags: HW
LayerCount: 2
Back
Fore
SplineSet
291 206 m 1
 341.188 163.995 538.565 10.836 540 -81 c 0
 540 -109.8 530.691 -126.309 504 -153 c 1
 408 -90 l 1
 431.333 -73.3333 443 -60 443 -50 c 0
 443 4.6 244.621 172.739 180 223 c 1
 239.626 275.398 302.883 354.195 315 370 c 1
 182.312 442.375 156 509.2 156 544 c 0
 156 620.394 219.264 693 298 693 c 0
 347.333 693 392 671.333 432 628 c 0
 468 589.333 486 551 486 513 c 0
 486 471.667 462.333 420.667 415 360 c 1
 291 206 l 1
343 418 m 1
 365.799 449.484 396.572 507.84 395 544 c 1
 395 591.313 371.067 622 327 622 c 0
 294.494 622 247 577.92 247 526 c 0
 247 490.73 289.262 451.879 343 418 c 1
EndSplineSet
EndChar

StartChar: u0968
Encoding: 2408 2408 119
Width: 667
GlyphClass: 2
Flags: HW
LayerCount: 2
Back
Fore
SplineSet
523 438 m 0
 523 298.2 428.745 233.14 352 205 c 1
 548 -54 l 1
 473 -100 l 1
 303 203 l 1
 325 208 l 1
 316.8 208 308.6 206 284 206 c 0
 155.225 206 136 255.8 136 289 c 0
 136 320.042 154.587 371 211 371 c 0
 248.2 371 283.696 348.533 304 313 c 1
 352.987 313 455 354.541 455 457 c 0
 455 550.596 371.01 592 267 592 c 0
 202.337 592 159.368 570.785 118 541 c 1
 51 636 l 1
 69.8876 645.444 135.4 686 262 686 c 0
 328 686 389 657.333 445 600 c 0
 497 546 523 492 523 438 c 0
EndSplineSet
EndChar

StartChar: u0969
Encoding: 2409 2409 120
Width: 667
GlyphClass: 2
Flags: HW
LayerCount: 2
Back
Fore
SplineSet
530 196 m 0
 530 95.8 446.244 48.5318 373 29 c 1
 558 -144 l 1
 490 -183 l 1
 320 19 l 1
 217.417 19 144 35.6854 144 113 c 0
 144 146.198 164.675 194 217 194 c 0
 263.195 194 299.22 162.24 312 131 c 1
 379.721 139.317 453 178.949 453 231 c 0
 453 276.092 404.046 339.286 385 350 c 1
 357.2 350 287.7 329 246 329 c 1
 196 421 l 1
 218 429 l 1
 227.333 428.333 234.667 428 240 428 c 0
 333.94 428 452 453.486 452 517 c 0
 452 585.081 410.099 598 334 598 c 2
 301 598 l 2
 269.6 598 236.741 591.193 144 567 c 1
 111 663 l 1
 155.667 681.667 205.333 691 260 691 c 0
 400.025 691 511 631.618 511 511 c 0
 511 452.198 477.976 401.738 440 369 c 1
 491.366 300.512 530 230.6 530 196 c 0
EndSplineSet
EndChar

StartChar: u096A
Encoding: 2410 2410 121
Width: 667
GlyphClass: 2
Flags: HW
LayerCount: 2
Back
Fore
SplineSet
338 409 m 1
 381.104 434.144 493 521.262 493 555 c 0
 493 575 489.333 591.333 482 604 c 1
 451 640 l 1
 484 675 l 1
 554 613 l 1
 572.667 589 582 563.333 582 536 c 256
 582 495.604 510.86 422.786 416 351 c 1
 450.416 326.291 526 262.8 526 204 c 0
 526 97.3091 450.646 41 363 41 c 0
 278.814 41 184 121.391 184 221 c 0
 184 252.6 202.995 308.451 300 379 c 1
 200.167 456.995 123 535.8 123 575 c 0
 123 599.667 131.667 622.667 149 644 c 1
 184 678 l 1
 272 620 l 1
 202.409 588.368 200 569.6 200 557 c 0
 200 517.25 275.007 449.89 338 409 c 1
324 104 m 0
 396.15 104 439 166.843 439 230 c 0
 439 266.852 425.612 310.655 372 328 c 1
 357.089 325.87 262 245.021 262 191 c 0
 262 144.118 280.479 104 324 104 c 0
EndSplineSet
EndChar

StartChar: u096B
Encoding: 2411 2411 122
Width: 667
GlyphClass: 2
Flags: HW
LayerCount: 2
Back
Fore
SplineSet
492 471 m 0
 531.873 471 544 451.177 544 386 c 0
 544 352 527 319.667 493 289 c 0
 468.333 267.667 443.667 252.333 419 243 c 1
 366 28 l 1
 571 -75 l 1
 539 -136 l 1
 348 -20 l 1
 331.766 -38.5528 302.666 -54 271 -54 c 0
 214.4 -54 196 -13.2 196 14 c 0
 196 36.4 209 70 261 70 c 0
 270.2 70 284.498 68.6255 307 63 c 1
 363 231 l 1
 338 230 l 1
 217.142 230 136 375.443 136 511 c 0
 136 538.333 141.333 569.667 152 605 c 1
 196 719 l 1
 310 655 l 1
 282.865 640.787 221 541.727 221 473 c 0
 221 352.171 256.462 321 315 321 c 0
 344.6 321 376.12 333.64 389 341 c 1
 393.72 388.197 430.2 471 492 471 c 0
EndSplineSet
EndChar

StartChar: u096C
Encoding: 2412 2412 123
Width: 667
GlyphClass: 2
Flags: HW
LayerCount: 2
Back
Fore
SplineSet
558 148 m 0
 558 98.437 528.592 57.749 490 34 c 1
 632 -149 l 1
 567 -193 l 1
 453 15 l 1
 425.341 11.9268 411.562 9 407 9 c 0
 347.667 9 289.667 36 233 90 c 0
 172.333 147.333 142 209.333 142 276 c 0
 142 360.6 185.27 402.116 220 417 c 1
 139.65 480.019 119 534.6 119 564 c 0
 119 624.206 162.2 677 227 677 c 2
 487 677 l 1
 530 586 l 1
 260 586 l 2
 234.559 586 214 560.283 214 532 c 0
 214 474.36 249.081 434 259 434 c 2
 457 434 l 1
 506 342 l 1
 322 342 l 2
 265 342 227 293.217 227 236 c 0
 227 136.8 280.25 112 364 112 c 0
 398 112 412 120.637 412 164 c 2
 412 180 l 2
 412 224.753 426.523 234 465 234 c 0
 545.951 234 558 189.101 558 148 c 0
EndSplineSet
EndChar

StartChar: u096D
Encoding: 2413 2413 124
Width: 585
GlyphClass: 2
Flags: HW
LayerCount: 2
Back
Fore
SplineSet
383 572 m 0
 504.366 572 582 452.959 582 312 c 0
 582 127.94 494.953 -13 329 -13 c 0
 89 -13 29 205.25 29 407 c 0
 29 484.2 38.536 561.752 44 600 c 1
 112 600 l 1
 85.3333 567.333 72 530.667 72 490 c 1
 70.6769 478.092 67 425.375 67 402 c 0
 67 122.975 225.4 79 331 79 c 0
 427 79 469.125 132.458 491 201 c 1
 357.155 235.277 245 310.618 245 434 c 0
 245 497.347 281.621 572 383 572 c 0
406 490 m 0
 361.559 490 339 447.072 339 401 c 0
 339 293.016 433.509 246 503 246 c 1
 515 276.667 521 310 521 346 c 0
 521 430.169 482.777 490 406 490 c 0
EndSplineSet
EndChar

StartChar: u096E
Encoding: 2414 2414 125
Width: 667
GlyphClass: 2
Flags: HW
LayerCount: 2
Back
Fore
SplineSet
404 144 m 0
 535.481 144 621.49 115.282 618 42 c 1
 618 10.6667 609.667 -12.3333 593 -27 c 1
 553 -56 l 1
 502 2 l 1
 540.667 10 560 23.3333 560 42 c 0
 560 48 552.667 51 538 51 c 0
 519.8 51 465.2 47 447 47 c 0
 388.333 47 334 66 284 104 c 0
 215.333 156 181 229.333 181 324 c 0
 181 379.24 196.043 410.582 226 450 c 1
 99 450 l 1
 81 538 l 1
 562 538 l 1
 574 450 l 1
 372 450 l 2
 325.003 450 248 379.412 248 274 c 0
 248 196 315.732 144 404 144 c 0
EndSplineSet
EndChar

StartChar: u096F
Encoding: 2415 2415 126
Width: 667
GlyphClass: 2
Flags: HW
LayerCount: 2
Back
Fore
SplineSet
412 120 m 0
 523.897 120 628.76 94.8229 627 -9 c 0
 627 -51.803 601.931 -66.129 566 -88 c 1
 523 -46 l 1
 551 -36 l 1
 563.667 -30 570 -20.6667 570 -8 c 0
 570 5.2 516.63 25 430 25 c 0
 272.566 25 173 71 173 255 c 0
 173 292.6 182.094 316.443 210 349 c 1
 104 347 l 1
 82 435 l 1
 222 435 l 1
 201.187 455.813 188 489.614 188 533 c 0
 188 638.714 273.724 663 397 663 c 0
 425.8 663 440.2 662 469 662 c 1
 484 576 l 1
 380.832 582.878 367.875 584 355 584 c 0
 301.413 584 253 549.2 253 497 c 0
 253 459.8 289.415 440.392 299 435 c 1
 566 435 l 1
 578 349 l 1
 353 349 l 2
 316.343 349 246 266.525 246 210 c 0
 246 137.2 283.638 119 360 119 c 2
 385 119 l 130
 393.667 119 402.667 119.333 412 120 c 0
EndSplineSet
EndChar

StartChar: colon
Encoding: 58 58 127
Width: 325
VWidth: 1024
GlyphClass: 2
Flags: HW
LayerCount: 2
Back
Fore
SplineSet
235.5 426 m 0
 235.5 414 233.333007812 402.833007812 229 392.5 c 128
 224.666992188 382.166992188 218.666992188 373.166992188 211 365.5 c 128
 203.333007812 357.833007812 194.333007812 351.833007812 184 347.5 c 128
 173.666992188 343.166992188 162.5 341 150.5 341 c 0
 138.833007812 341 127.75 343.166992188 117.25 347.5 c 128
 106.75 351.833007812 97.5830078125 357.833007812 89.75 365.5 c 128
 81.9169921875 373.166992188 75.75 382.166992188 71.25 392.5 c 128
 66.75 402.833007812 64.5 414 64.5 426 c 0
 64.5 437.666992188 66.75 448.75 71.25 459.25 c 128
 75.75 469.75 81.9169921875 478.916992188 89.75 486.75 c 128
 97.5830078125 494.583007812 106.75 500.75 117.25 505.25 c 128
 127.75 509.75 138.833007812 512 150.5 512 c 0
 162.5 512 173.666992188 509.75 184 505.25 c 128
 194.333007812 500.75 203.333007812 494.583007812 211 486.75 c 128
 218.666992188 478.916992188 224.666992188 469.75 229 459.25 c 128
 233.333007812 448.75 235.5 437.666992188 235.5 426 c 0
235.5 72.5 m 0
 235.5 60.8330078125 233.333007812 49.8330078125 229 39.5 c 128
 224.666992188 29.1669921875 218.666992188 20.1669921875 211 12.5 c 128
 203.333007812 4.8330078125 194.333007812 -1.25 184 -5.75 c 128
 173.666992188 -10.25 162.5 -12.5 150.5 -12.5 c 0
 138.833007812 -12.5 127.75 -10.25 117.25 -5.75 c 128
 106.75 -1.25 97.5830078125 4.8330078125 89.75 12.5 c 128
 81.9169921875 20.1669921875 75.75 29.1669921875 71.25 39.5 c 128
 66.75 49.8330078125 64.5 60.8330078125 64.5 72.5 c 0
 64.5 84.5 66.75 95.6669921875 71.25 106 c 128
 75.75 116.333007812 81.9169921875 125.416992188 89.75 133.25 c 128
 97.5830078125 141.083007812 106.75 147.25 117.25 151.75 c 128
 127.75 156.25 138.833007812 158.5 150.5 158.5 c 0
 162.5 158.5 173.666992188 156.25 184 151.75 c 128
 194.333007812 147.25 203.333007812 141.083007812 211 133.25 c 128
 218.666992188 125.416992188 224.666992188 116.333007812 229 106 c 128
 233.333007812 95.6669921875 235.5 84.5 235.5 72.5 c 0
EndSplineSet
EndChar

StartChar: semicolon
Encoding: 59 59 128
Width: 325
VWidth: 1024
GlyphClass: 2
Flags: HW
LayerCount: 2
Back
Fore
SplineSet
235.5 426 m 0
 235.5 414 233.333007812 402.833007812 229 392.5 c 128
 224.666992188 382.166992188 218.666992188 373.166992188 211 365.5 c 128
 203.333007812 357.833007812 194.333007812 351.833007812 184 347.5 c 128
 173.666992188 343.166992188 162.5 341 150.5 341 c 0
 138.833007812 341 127.75 343.166992188 117.25 347.5 c 128
 106.75 351.833007812 97.5830078125 357.833007812 89.75 365.5 c 128
 81.9169921875 373.166992188 75.75 382.166992188 71.25 392.5 c 128
 66.75 402.833007812 64.5 414 64.5 426 c 0
 64.5 437.666992188 66.75 448.75 71.25 459.25 c 128
 75.75 469.75 81.9169921875 478.916992188 89.75 486.75 c 128
 97.5830078125 494.583007812 106.75 500.75 117.25 505.25 c 128
 127.75 509.75 138.833007812 512 150.5 512 c 0
 162.5 512 173.666992188 509.75 184 505.25 c 128
 194.333007812 500.75 203.333007812 494.583007812 211 486.75 c 128
 218.666992188 478.916992188 224.666992188 469.75 229 459.25 c 128
 233.333007812 448.75 235.5 437.666992188 235.5 426 c 0
248 60.5 m 0
 248 39.1669921875 245 18.6669921875 239 -1 c 128
 233 -20.6669921875 224.916992188 -39.25 214.75 -56.75 c 128
 204.583007812 -74.25 192.583007812 -90.25 178.75 -104.75 c 128
 164.916992188 -119.25 150.166992188 -131.916992188 134.5 -142.75 c 128
 118.833007812 -153.583007812 102.583007812 -162.25 85.75 -168.75 c 128
 68.9169921875 -175.25 52.3330078125 -179 36 -180 c 1
 36 -130 l 1
 49 -128 62.9169921875 -124.25 77.75 -118.75 c 128
 92.5830078125 -113.25 106.166992188 -105.166992188 118.5 -94.5 c 128
 130.833007812 -83.8330078125 140.833007812 -70.25 148.5 -53.75 c 128
 156.166992188 -37.25 159.5 -17 158.5 7 c 1
 96.5 7 l 1
 90.1669921875 12 85 17.25 81 22.75 c 128
 77 28.25 73.75 33.8330078125 71.25 39.5 c 128
 68.75 45.1669921875 67 50.8330078125 66 56.5 c 128
 65 62.1669921875 64.5 67.5 64.5 72.5 c 0
 64.5 85.5 66.9169921875 97.25 71.75 107.75 c 128
 76.5830078125 118.25 83 127.25 91 134.75 c 128
 99 142.25 108.166992188 148.083007812 118.5 152.25 c 128
 128.833007812 156.416992188 139.5 158.5 150.5 158.5 c 0
 181.5 158.5 205.5 149.666992188 222.5 132 c 128
 239.5 114.333007812 248 90.5 248 60.5 c 0
EndSplineSet
EndChar

StartChar: u0907
Encoding: 2311 2311 130
Width: 487
GlyphClass: 2
Flags: HW
LayerCount: 2
Back
Fore
SplineSet
22 396 m 0
 22 463.462 55.1943 517 117 517 c 2
 289 517 l 1
 289 596 l 1
 -42 596 l 1
 -42 680 l 1
 604 680 l 1
 607 596 l 1
 392 596 l 1
 392 430 l 1
 135 430 l 2
 99.8 430 91 404.6 91 384 c 256
 91 365.252 100.541 327.365 134 319 c 1
 160.667 331 190.667 337 224 337 c 0
 342.263 337 438 267.8 438 164 c 0
 438 59.6 349.215 6.38108 297 -10 c 1
 456 -147 l 1
 400 -198 l 1
 251 -22 l 1
 236.333 -23.3333 222.667 -24 210 -24 c 0
 97.375 -24 55 12.4 55 67 c 0
 55 108.007 83.5227 143 132 143 c 0
 192 143 223.579 102.737 232 88 c 1
 267.342 93.2358 370 104.4 370 170 c 0
 370 225.009 324.619 254 270 254 c 0
 228 254 194 241 168 215 c 1
 144.633 215 22 354.283 22 396 c 0
EndSplineSet
EndChar

StartChar: u0909
Encoding: 2313 2313 131
Width: 602
GlyphClass: 2
Flags: HW
LayerCount: 2
Back
Fore
SplineSet
417 508 m 0
 417 529.404 409.363 557.766 366 592 c 1
 -37 592 l 1
 -37 676 l 1
 721 676 l 1
 719 596 l 1
 423 596 l 1
 448.35 567.981 474 515.311 474 456 c 0
 474 422.4 456.594 389.173 444 372 c 1
 503.865 317.678 549 249.6 549 168 c 0
 549 20.8 445.9 -16 358 -16 c 0
 198.038 -16 100.661 151.71 52 306 c 0
 28.6667 377.333 19.3333 417.667 24 427 c 1
 71 446 l 1
 71 350 93.1667 266.167 137.5 194.5 c 128
 181.833 122.833 244.333 87 325 87 c 0
 397.209 87 484 133.4 484 203 c 256
 484 261.929 453.191 308.406 409 339 c 1
 358 321 l 1
 284 309 l 1
 224 411 l 1
 242 411 l 2
 336.675 411 417 434.542 417 508 c 0
EndSplineSet
EndChar

StartChar: u090A
Encoding: 2314 2314 132
Width: 567
GlyphClass: 2
Flags: HW
LayerCount: 2
Back
Fore
SplineSet
415 510 m 0
 415 546 400.288 578.784 372 600 c 1
 -35 600 l 1
 -35 684 l 1
 961 684 l 1
 957 596 l 1
 430 596 l 1
 455.191 573.208 484 530.427 484 484 c 0
 484 417.407 461.951 388.961 447 377 c 1
 463 361 l 1
 539.684 412.123 603 435 638 435 c 0
 682.667 435 724.333 413.833 763 371.5 c 128
 801.667 329.167 821 282.333 821 231 c 0
 821 131.024 743.814 27.537 693 -6 c 1
 579 78 l 1
 605 78 637.333 95 676 129 c 0
 723.333 171 747 217 747 267 c 0
 747 319.832 739.383 347 677 347 c 0
 615.4 347 530.225 269.569 523 262 c 1
 536.833 238.287 539 196.463 539 161 c 0
 539 63.0435 460.538 -4 353 -4 c 0
 123.074 -4 14.9337 409.634 26 429 c 1
 72 433 l 1
 86 347 l 1
 113.215 229.857 180.8 101 323 101 c 0
 383.96 101 460 137.114 460 212 c 0
 460 271.194 448.358 331.807 409 353 c 1
 344.291 325.057 315.368 313 276 313 c 1
 220 415 l 1
 307.5 415 415 434 415 510 c 0
EndSplineSet
EndChar

StartChar: question
Encoding: 63 63 133
Width: 534
VWidth: 1024
Flags: HW
LayerCount: 2
Back
Fore
SplineSet
296 66.5 m 256
 296 55.1669921875 293.75 44.6669921875 289.25 35 c 128
 284.75 25.3330078125 278.666992188 17 271 10 c 128
 263.333007812 3 254.416992188 -2.5 244.25 -6.5 c 128
 234.083007812 -10.5 223.333007812 -12.5 212 -12.5 c 0
 201 -12.5 190.75 -10.25 181.25 -5.75 c 128
 171.75 -1.25 163.5 4.8330078125 156.5 12.5 c 128
 149.5 20.1669921875 144 29 140 39 c 128
 136 49 134 59.5 134 70.5 c 0
 134 81.8330078125 136.083007812 92.4169921875 140.25 102.25 c 128
 144.416992188 112.083007812 150 120.75 157 128.25 c 128
 164 135.75 172.333007812 141.666992188 182 146 c 128
 191.666992188 150.333007812 202 152.5 213 152.5 c 0
 225.333007812 152.5 236.583007812 150.166992188 246.75 145.5 c 128
 256.916992188 140.833007812 265.666992188 134.583007812 273 126.75 c 128
 280.333007812 118.916992188 286 109.75 290 99.25 c 128
 294 88.75 296 77.8330078125 296 66.5 c 256
469 509 m 0
 469 487.333007812 465.833007812 467.583007812 459.5 449.75 c 128
 453.166992188 431.916992188 444.75 415.75 434.25 401.25 c 128
 423.75 386.75 411.916992188 374 398.75 363 c 128
 385.583007812 352 372 342.333007812 358 334 c 0
 325.333007812 314.666992188 288.333007812 300 247 290 c 1
 247 203 l 1
 177 203 l 1
 177 339 l 1
 204.666992188 346.333007812 229.333007812 357.5 251 372.5 c 0
 260.333007812 378.833007812 269.416992188 386.333007812 278.25 395 c 128
 287.083007812 403.666992188 295 413.666992188 302 425 c 128
 309 436.333007812 314.666992188 449.083007812 319 463.25 c 128
 323.333007812 477.416992188 325.5 493.333007812 325.5 511 c 0
 325.5 530.333007812 322.75 547.916992188 317.25 563.75 c 128
 311.75 579.583007812 303.416992188 593.25 292.25 604.75 c 128
 281.083007812 616.25 267.083007812 625.166992188 250.25 631.5 c 128
 233.416992188 637.833007812 213.833007812 641 191.5 641 c 1
 145.5 518 l 2
 145.166992188 517.666992188 144.333007812 517.333007812 143 517 c 0
 142 516.666992188 140.75 516.416992188 139.25 516.25 c 128
 137.75 516.083007812 135.666992188 516 133 516 c 0
 126.333007812 516 118 516.416992188 108 517.25 c 128
 98 518.083007812 88.3330078125 520.666992188 79 525 c 128
 69.6669921875 529.333007812 61.6669921875 535.833007812 55 544.5 c 128
 48.3330078125 553.166992188 45 565.5 45 581.5 c 0
 45 603.833007812 51.0830078125 622.75 63.25 638.25 c 128
 75.4169921875 653.75 90.8330078125 666.333007812 109.5 676 c 128
 128.166992188 685.666992188 148.833007812 692.666992188 171.5 697 c 128
 194.166992188 701.333007812 215.833007812 703.5 236.5 703.5 c 0
 269.5 703.5 300.166992188 698.916992188 328.5 689.75 c 128
 356.833007812 680.583007812 381.416992188 667.583007812 402.25 650.75 c 128
 423.083007812 633.916992188 439.416992188 613.5 451.25 589.5 c 128
 463.083007812 565.5 469 538.666992188 469 509 c 0
EndSplineSet
EndChar

StartChar: u090B
Encoding: 2315 2315 134
Width: 501
GlyphClass: 2
Flags: HW
LayerCount: 2
Back
Fore
SplineSet
239 411 m 0
 201.126 411 72.0058 354.003 72 354 c 2
 29 459 l 1
 205 499 l 2
 232.167 504.175 254.233 490.644 283 459 c 130
 331 405 l 2
 341 393 354.667 375.333 372 352 c 1
 372 595 l 1
 -38 595 l 1
 -38 679 l 1
 912 679 l 1
 911 596 l 1
 472 596 l 1
 472 337 l 1
 557 381 l 1
 549 395 545 409.667 545 425 c 0
 545 464.809 576.471 502 622 502 c 0
 668.4 502 680 465.3 680 436 c 0
 680 396.375 663.316 364.197 634 354 c 1
 729 217 l 1
 711 203 l 1
 645.229 177.422 603 143.667 603 83 c 0
 603 49 631 32 687 32 c 0
 720.6 32 750.908 55.3729 771 83 c 1
 824 -22 l 1
 806.627 -37.2018 751.4 -59 703 -59 c 0
 609.07 -59 548 29.1256 548 129 c 0
 548 171.46 557.857 241.984 632 274 c 1
 590 337 l 1
 471 261 l 1
 471 -63 l 1
 371 12 l 1
 371 205 l 1
 138 60 l 1
 81 160 l 1
 372 287 l 1
 262 403 l 2
 257.333 408.333 249.667 411 239 411 c 0
EndSplineSet
EndChar

StartChar: u0960
Encoding: 2400 2400 135
Width: 501
GlyphClass: 2
Flags: HW
LayerCount: 2
Back
Fore
SplineSet
239 409 m 0
 205.4 409 72.4673 351.734 71 351 c 1
 28 457 l 1
 204 497 l 2
 217.308 499.535 241.122 501.038 280 460 c 0
 313.333 424 344 387 372 349 c 1
 372 595 l 1
 -24 595 l 1
 -24 679 l 1
 912 679 l 1
 911 596 l 1
 472 596 l 1
 472 335 l 1
 557 381 l 1
 549 395 545 409.667 545 425 c 0
 545 464.809 576.471 502 622 502 c 0
 668.4 502 680 465.3 680 436 c 0
 680 415.864 674.074 366.939 634 353 c 1
 725 221 l 1
 638.951 192.317 620 163.4 620 149 c 0
 620 134.333 631.667 127 655 127 c 0
 676.333 127 694.667 134.667 710 150 c 1
 789 72 l 1
 748.829 55.0044 657 13.8 657 -25 c 0
 657 -49.6667 672.667 -62 704 -62 c 0
 730.667 -62 763 -51.3333 801 -30 c 1
 811.651 -41.6196 836.895 -72.3423 850 -92 c 1
 803.333 -120 759 -134 717 -134 c 0
 629.047 -134 575 -70.1578 575 -12 c 0
 575 16 586 40.6667 608 62 c 1
 533.849 88.6945 528 125.825 528 160 c 0
 528 211.898 586.301 247.556 632 272 c 1
 589 336 l 1
 470 259 l 1
 470 -68 l 1
 370 7 l 1
 370 201 l 1
 137 54 l 1
 80 156 l 1
 371 284 l 1
 261 400 l 2
 255.667 406 248.333 409 239 409 c 0
EndSplineSet
EndChar

StartChar: u090F
Encoding: 2319 2319 139
Width: 602
GlyphClass: 2
Flags: HW
LayerCount: 2
Back
Fore
SplineSet
716 596 m 1
 515 596 l 1
 515 321 l 2
 515 297.667 506 273 488 247 c 0
 466.667 217.667 444.667 203 422 203 c 1
 319 274 l 1
 383 274 415 289.667 415 321 c 2
 415 596 l 1
 173 596 l 1
 173 224 l 1
 552 -5 l 1
 580.988 -18.9142 609 -46.9516 609 -86 c 0
 609 -111.6 593.748 -154.806 530 -214 c 1
 437 -132 l 1
 453 -116 l 1
 457.717 -120.717 550 -88.4289 550 -72 c 256
 550 -64.6667 546.333 -57.3333 539 -50 c 1
 65 218 l 1
 65 597 l 1
 -37 597 l 1
 -37 681 l 1
 719 681 l 1
 716 596 l 1
EndSplineSet
EndChar

StartChar: u0915.half
Encoding: 65551 -1 140
Width: 536
GlyphClass: 3
Flags: HW
AnchorPoint: "N" 185 165 basechar 0
LayerCount: 2
Back
Fore
SplineSet
178 214 m 0
 251.473 214 347 315.932 347 327 c 2
 347 597 l 1
 -36 597 l 1
 -36 681 l 1
 696 681 l 1
 693 596 l 1
 451 596 l 1
 451 416 l 1
 470.613 431.35 490.853 443 588 443 c 2
 610 443 l 1
 610 344 l 1
 593.333 348.667 579 351 567 351 c 0
 511.251 351 465.83 315.546 451 276 c 1
 451 -48 l 1
 345 24 l 1
 345 183 l 1
 289.418 129.271 230.516 129 218 129 c 0
 119.125 129 33 230.007 33 323 c 0
 33 437.845 103.283 493 225 493 c 0
 235.2 493 266.259 492.435 276 490 c 1
 319 404 l 1
 300 392 l 1
 294.667 397.333 277.667 400 249 400 c 0
 184.725 400 115 375.6 115 278 c 0
 115 234.875 146.6 214 178 214 c 0
EndSplineSet
Ligature2: "'half' Half Forms in Devanagari lookup 3 subtable" u0915 u094D
LCarets2: 1 2
EndChar

StartChar: u0958.half
Encoding: 65552 -1 141
Width: 536
GlyphClass: 3
Flags: HW
LayerCount: 2
Back
Fore
SplineSet
453 413 m 1
 472.613 428.35 492.853 440 590 440 c 2
 612 440 l 1
 611 341 l 1
 598.333 345.667 583.667 348 567 348 c 0
 498 348 464.616 304.54 452 273 c 1
 452 -53 l 1
 346 21 l 1
 346 180 l 1
 336 170 320.333 159 299 147 c 1
 39 -50 l 1
 -38 29 l 1
 150 142 l 1
 88.1325 170.459 32 243.688 32 320 c 0
 32 456.8 133.775 491 223 491 c 0
 241.058 491 265.031 489.492 275 487 c 1
 318 401 l 1
 299 389 l 1
 293.667 394.333 276.667 397 248 397 c 0
 140.8 397 114 332.65 114 273 c 0
 114 227.1 155.055 210 178 210 c 0
 247.89 210 346 312.438 346 324 c 2
 346 595 l 1
 -37 595 l 1
 -37 679 l 1
 653 679 l 1
 653 595 l 1
 453 595 l 1
 453 413 l 1
EndSplineSet
Ligature2: "'half' Half Forms in Devanagari lookup 3 subtable" u0958 u094D
EndChar

StartChar: u0915
Encoding: 2325 2325 142
Width: 536
GlyphClass: 2
Flags: HW
AnchorPoint: "N" 104 156 basechar 0
LayerCount: 2
Back
Fore
SplineSet
96 309 m 0
 96 260.4 110.4 210 168 210 c 0
 206 210 246.333 230.333 289 271 c 0
 324.333 304.333 342 326 342 336 c 2
 342 596 l 1
 -41 596 l 1
 -41 680 l 1
 884 680 l 1
 886 596 l 1
 451 596 l 1
 451 413 l 1
 475.763 436.637 517 466 561 466 c 0
 601.667 466 641 443.667 679 399 c 128
 717 354.333 736 306 736 254 c 256
 736 141.198 641.332 22.9157 608 0 c 1
 506 78 l 1
 530 78 558.333 98 591 138 c 0
 631 186 651 239.333 651 298 c 0
 651 347.917 645.303 371 594 371 c 0
 523.958 371 449 281.417 449 270 c 2
 449 -47 l 1
 343 25 l 1
 343 186 l 1
 311.512 149.474 264.234 114 207 114 c 0
 113.397 114 27 233.434 27 337 c 0
 27 460.101 110.021 517 250 517 c 0
 262.667 516.333 269.667 516 271 516 c 1
 331 399 l 1
 312.333 409 283.667 414 245 414 c 0
 160.83 414 96 384.375 96 309 c 0
EndSplineSet
EndChar

StartChar: u0958
Encoding: 2392 2392 143
Width: 536
GlyphClass: 2
Flags: HW
LayerCount: 2
Back
Fore
SplineSet
96 309 m 0
 96 260.4 110.4 210 168 210 c 0
 206 210 246.333 230.333 289 271 c 0
 324.333 304.333 342 326 342 336 c 2
 342 596 l 1
 -41 596 l 1
 -41 680 l 1
 884 680 l 1
 886 596 l 1
 451 596 l 1
 451 413 l 1
 475.763 436.637 517 466 561 466 c 0
 601.667 466 641 443.667 679 399 c 128
 717 354.333 736 306 736 254 c 256
 736 141.198 641.332 22.9157 608 0 c 1
 506 78 l 1
 530 78 558.333 98 591 138 c 0
 631 186 651 239.333 651 298 c 0
 651 347.917 645.303 371 594 371 c 0
 523.958 371 449 281.417 449 270 c 2
 449 -47 l 1
 343 25 l 1
 343 186 l 1
 311.512 149.474 264.234 114 207 114 c 0
 113.397 114 27 233.434 27 337 c 0
 27 460.101 110.021 517 250 517 c 0
 262.667 516.333 269.667 516 271 516 c 1
 331 399 l 1
 312.333 409 283.667 414 245 414 c 0
 160.83 414 96 384.375 96 309 c 0
149 21 m 1
 78 -49 l 1
 8 26 l 1
 76 89 l 1
 149 21 l 1
EndSplineSet
EndChar

StartChar: u0915.vatu
Encoding: 65553 -1 144
Width: 536
GlyphClass: 3
Flags: HW
AnchorPoint: "N" 52 -108 basechar 0
LayerCount: 2
Back
Fore
SplineSet
580 359 m 0
 519.721 359 464.27 325.804 448 282 c 1
 448 -51 l 1
 345 9 l 1
 345 224 l 1
 71 9 l 1
 4 98 l 1
 154 201 l 1
 74.4059 234.164 33 294.6 33 357 c 0
 33 411 55.6667 451.333 101 478 c 0
 162.333 514.667 215.667 526.667 261 514 c 1
 318 442 l 1
 304 426 l 2
 303.333 426.667 296 427 282 427 c 0
 207.8 427 122 406.6 122 325 c 0
 122 254.6 178.175 237 206 237 c 1
 341 333 l 1
 341 597 l 1
 -39 597 l 1
 -39 681 l 1
 886 681 l 1
 886 597 l 1
 448 597 l 1
 448 418 l 1
 473.38 439.373 511.573 454 559 454 c 0
 648.259 454 729 339.773 729 232 c 0
 729 134.4 668.07 29.0701 627 -12 c 1
 525 62 l 1
 554.333 88.6667 576.333 110.667 591 128 c 0
 636.333 183.333 659 236 659 286 c 0
 659 344.4 615.25 359 580 359 c 0
EndSplineSet
Ligature2: "'vatu' Vattu Variants in Devanagari lookup 4 subtable" u0915 u0930.sub
LCarets2: 1 0
EndChar

StartChar: u0915_u094D_u0924
Encoding: 65554 -1 145
Width: 634
GlyphClass: 2
Flags: HW
LayerCount: 2
Back
Fore
SplineSet
82 308 m 0
 82 351.011 105.999 373.559 133 393 c 1
 24 393 l 1
 2 483 l 1
 429 483 l 1
 429 596 l 1
 -34 596 l 1
 -34 680 l 1
 996 680 l 1
 991 596 l 1
 529 596 l 1
 529 461 l 1
 564.298 475.934 598.387 486 640 486 c 0
 649.333 485.333 656.333 485 661 485 c 0
 701 485 741.333 466.333 782 429 c 0
 826.667 388.333 849 344.333 849 297 c 0
 849 188.014 767.693 20.3321 745 6 c 1
 632 85 l 1
 672.768 85 770 212.349 770 321 c 0
 770 396.677 743.147 398 677 398 c 0
 628.824 398 549.342 361.342 530 342 c 1
 530 -48 l 1
 426 24 l 1
 426 389 l 1
 295 389 l 2
 225.891 389 189 308.684 189 259 c 0
 189 119.34 304.726 26.1149 355 13 c 1
 304 -13 l 1
 291.333 -13 254 22.3333 192 93 c 0
 118.667 175.667 82 247.333 82 308 c 0
EndSplineSet
EndChar

StartChar: u0915_u094D_u0937.half
Encoding: 65556 -1 147
Width: 424
GlyphClass: 3
Flags: HW
AnchorPoint: "N" 124 108 basechar 0
LayerCount: 2
Back
Fore
SplineSet
530 596 m 1
 399 596 l 1
 373 680 l 1
 531 680 l 1
 530 596 l 1
385 520 m 0
 385 474.8 335.145 428.387 308 407 c 1
 340 402.5 l 130
 356.667 400.167 370 399 380 399 c 0
 406.667 399 434.667 405 464 417 c 1
 549 458 l 1
 546 339 l 1
 542.235 339 476.527 325 426 325 c 0
 389.881 325 317.503 347.665 266 382 c 1
 212.247 355.537 120 292.994 120 209 c 0
 120 161 153.234 149 185 149 c 0
 204.861 149 231.054 155.018 246 160 c 1
 243.333 168 242 179.667 242 195 c 0
 242 229.005 253.447 261 308 261 c 0
 343.325 261 391 244 391 176 c 0
 391 133.875 365.526 97.0148 334 79 c 1
 426 -39 l 1
 362 -72 l 1
 290 65 l 1
 274.667 62.3333 260.333 61 247 61 c 0
 143.327 61 34 134.931 34 263 c 0
 34 332.2 88.7221 388.365 171 436 c 1
 121.783 457.214 51 506.919 51 581 c 0
 51 666.6 139.054 688 191 688 c 0
 283.184 688 385 614.936 385 520 c 0
211 460 m 1
 239.323 479.219 291.638 516.516 293 556 c 1
 293 607.594 281.008 621.832 238 629 c 1
 191.067 634.074 150 607.437 150 547 c 0
 150 494.8 192.373 470.16 211 460 c 1
EndSplineSet
Ligature2: "'half' Half Forms in Devanagari lookup 3 subtable" u0915_u094D_u0937 u094D
LCarets2: 1 0
EndChar

StartChar: u0916.half
Encoding: 65557 -1 149
Width: 536
GlyphClass: 3
Flags: HW
AnchorPoint: "N" 130 125 basechar 0
LayerCount: 2
Back
Fore
SplineSet
474 255 m 0
 520.732 255 581.206 288.307 634 323 c 1
 657 323 l 1
 658 225 l 1
 645.096 212.096 599.2 165 511 165 c 0
 403.12 165 316 242.795 316 358 c 0
 316 488.4 434.467 521 504 521 c 0
 528 521 551 518.333 573 513 c 1
 627 392 l 1
 575.686 423.85 530.2 426 506 426 c 0
 435.109 426 378 394.016 378 329 c 0
 378 284.6 400.9 255 474 255 c 0
400 66 m 0
 508.204 66 602.06 102.06 657 157 c 1
 657 97 l 1
 614.579 65.7424 488.4 -25 376 -25 c 0
 294 -25 216 31.3333 142 144 c 0
 78 242 46 320.667 46 380 c 0
 46 400.7 59.2 420 79 420 c 2
 140 420 l 1
 140 595 l 1
 -37 595 l 1
 -37 679 l 1
 658 679 l 1
 658 595 l 1
 233 595 l 1
 242.543 566.372 249 537.536 249 499 c 0
 249 363.987 202.416 283.261 130 258 c 1
 179.498 143.642 270.076 66 400 66 c 0
EndSplineSet
Ligature2: "'half' Half Forms in Devanagari lookup 3 subtable" u0916 u094D
LCarets2: 1 0
EndChar

StartChar: u0959.half
Encoding: 65558 -1 151
Width: 536
GlyphClass: 3
Flags: HW
LayerCount: 2
Back
Fore
SplineSet
474 255 m 0
 520.732 255 581.206 288.307 634 323 c 1
 657 323 l 1
 658 225 l 1
 645.096 212.096 599.2 165 511 165 c 0
 403.12 165 316 242.795 316 358 c 0
 316 488.4 434.467 521 504 521 c 0
 528 521 551 518.333 573 513 c 1
 627 392 l 1
 575.686 423.85 530.2 426 506 426 c 0
 435.109 426 378 394.016 378 329 c 0
 378 284.6 400.9 255 474 255 c 0
400 66 m 0
 508.204 66 602.06 102.06 657 157 c 1
 657 97 l 1
 614.579 65.7424 488.4 -25 376 -25 c 0
 294 -25 216 31.3333 142 144 c 0
 78 242 46 320.667 46 380 c 0
 46 400.7 59.2 420 79 420 c 2
 140 420 l 1
 140 595 l 1
 -37 595 l 1
 -37 679 l 1
 658 679 l 1
 658 595 l 1
 233 595 l 1
 242.543 566.372 249 537.536 249 499 c 0
 249 363.987 202.416 283.261 130 258 c 1
 179.498 143.642 270.076 66 400 66 c 0
151 23 m 1
 80 -47 l 1
 10 28 l 1
 78 91 l 1
 151 23 l 1
EndSplineSet
Ligature2: "'half' Half Forms in Devanagari lookup 3 subtable" u0959 u094D
EndChar

StartChar: u0916.half.vatu
Encoding: 65560 -1 153
Width: 536
GlyphClass: 3
Flags: HW
LayerCount: 2
Back
Fore
SplineSet
474 254 m 0
 520.732 254 581.206 287.307 634 322 c 1
 657 322 l 1
 658 226 l 1
 645.096 213.096 599.2 166 511 166 c 0
 403.12 166 316 243.795 316 359 c 0
 316 488.305 433.07 521 505 521 c 0
 528.333 521 551 518.333 573 513 c 1
 627 393 l 1
 586.761 417.762 537.706 425 508 425 c 0
 437.296 425 378 392.979 378 328 c 0
 378 283.6 400.9 254 474 254 c 0
397 62 m 0
 501.8 62 601.208 118.325 659 153 c 1
 659 72 l 1
 342 -168 l 1
 267 -90 l 1
 368 -27 l 1
 287.333 -27 210.667 29.6667 138 143 c 0
 76 239.667 45 317.667 45 377 c 0
 45 400.4 57.8 416 77 416 c 2
 138 416 l 1
 138 591 l 1
 -39 591 l 1
 -39 675 l 1
 656 675 l 1
 656 591 l 1
 231 591 l 1
 240.543 562.372 247 533.536 247 495 c 0
 247 373.392 210.298 286.707 127 252 c 1
 174.346 138.02 267.708 62 397 62 c 0
EndSplineSet
Ligature2: "'vatu' Vattu Variants in Devanagari lookup 4 subtable" u0916.half u0930.sub
LCarets2: 1 0
EndChar

StartChar: u0917.half
Encoding: 65561 -1 156
Width: 341
GlyphClass: 3
Flags: HW
AnchorPoint: "N" 25 430 basechar 0
LayerCount: 2
Back
Fore
SplineSet
43 382 m 0
 43 395.35 53.8 412 70 412 c 2
 135 412 l 1
 135 595 l 1
 -38 595 l 1
 -38 679 l 1
 447 679 l 1
 446 596 l 1
 237 596 l 1
 237 270 l 2
 237 255.559 219.447 241 202 241 c 1
 181.853 238.314 43 355.139 43 382 c 0
EndSplineSet
Ligature2: "'half' Half Forms in Devanagari lookup 3 subtable" u0917 u094D
LCarets2: 1 0
EndChar

StartChar: u095A.half
Encoding: 65562 -1 158
Width: 341
GlyphClass: 3
Flags: HW
LayerCount: 2
Back
Fore
SplineSet
43 379 m 0
 43 392.35 53.8 409 70 409 c 2
 135 409 l 1
 135 595 l 1
 -38 595 l 1
 -38 679 l 1
 447 679 l 1
 446 596 l 1
 237 596 l 1
 237 267 l 2
 237 252.559 219.447 238 202 238 c 1
 181.853 235.314 43 352.139 43 379 c 0
236 20 m 1
 165 -50 l 1
 96 25 l 1
 164 88 l 1
 236 20 l 1
EndSplineSet
Ligature2: "'half' Half Forms in Devanagari lookup 3 subtable" u095A u094D
EndChar

StartChar: u0917.half.vatu
Encoding: 65564 -1 160
Width: 341
GlyphClass: 3
Flags: HW
LayerCount: 2
Back
Fore
SplineSet
42 379 m 0
 42 392.35 52.8 409 69 409 c 2
 134 409 l 1
 134 596 l 1
 -39 596 l 1
 -39 680 l 1
 446 680 l 1
 446 596 l 1
 237 596 l 1
 237 265 l 2
 237 251.035 217.413 235 201 235 c 1
 180.741 232.299 42 352.244 42 379 c 0
465 132 m 1
 148 -108 l 1
 73 -30 l 1
 466 212 l 1
 465 132 l 1
EndSplineSet
Ligature2: "'vatu' Vattu Variants in Devanagari lookup 4 subtable" u0917.half u0930.sub
EndChar

StartChar: u0918.half
Encoding: 65565 -1 162
Width: 341
GlyphClass: 3
Flags: HW
AnchorPoint: "N" 110 305 basechar 0
LayerCount: 2
Back
Fore
SplineSet
257 196 m 0
 340.415 196 431.857 262.628 437 276 c 1
 460 271 l 1
 459 178 l 1
 449.592 165.456 357.56 102 283 102 c 0
 242.333 102 196.333 122 145 162 c 0
 86.3333 208 57 259 57 315 c 0
 57 372.633 91.8079 401.188 132 424 c 1
 44 491 l 1
 44 596 l 1
 -38 596 l 1
 -38 680 l 1
 461 680 l 1
 461 596 l 1
 148 596 l 1
 148 477 l 1
 180 444 l 1
 235.815 450.379 269.6 453 292 453 c 1
 355 364 l 1
 345.667 364.667 338.333 365 333 365 c 0
 167.938 365 143 308 143 270 c 0
 143 236 152.333 214.333 171 205 c 0
 183.667 199 212.333 196 257 196 c 0
EndSplineSet
Ligature2: "'half' Half Forms in Devanagari lookup 3 subtable" u0918 u094D
LCarets2: 1 0
EndChar

StartChar: u0918.half.vatu
Encoding: 65567 -1 164
Width: 341
GlyphClass: 3
Flags: HW
LayerCount: 2
Back
Fore
SplineSet
257 193 m 0
 340.415 193 431.857 259.628 437 273 c 1
 460 271 l 1
 459 178 l 1
 147 -45 l 1
 73 34 l 1
 211 118 l 1
 134.843 151.319 55 220.886 55 314 c 0
 55 356.8 76.45 390.844 132 421 c 1
 44 488 l 1
 44 593 l 1
 -38 593 l 1
 -38 677 l 1
 461 677 l 1
 461 593 l 1
 148 593 l 1
 148 474 l 1
 180 441 l 1
 235.815 447.379 269.6 450 292 450 c 1
 355 361 l 1
 345.667 361.667 338.333 362 333 362 c 0
 167.938 362 143 305 143 267 c 0
 143 233 152.333 211.333 171 202 c 0
 183.667 196 212.333 193 257 193 c 0
EndSplineSet
Ligature2: "'vatu' Vattu Variants in Devanagari lookup 4 subtable" u0918.half u0930.sub
EndChar

StartChar: u0919
Encoding: 2329 2329 165
Width: 453
GlyphClass: 2
Flags: HW
AnchorPoint: "N" 160 125 basechar 0
LayerCount: 2
Back
Fore
SplineSet
620 376 m 1
 538 301 l 1
 452 378 l 1
 538 457 l 1
 620 376 l 1
67 441 m 0
 67 487.2 99 528 147 528 c 2
 333 528 l 1
 333 596 l 1
 -42 596 l 1
 -42 680 l 1
 733 680 l 1
 736 595 l 1
 428 595 l 1
 428 437 l 1
 195 437 l 2
 178.333 437 167.333 435.5 162 432.5 c 128
 156.667 429.5 154 418 154 398 c 0
 154 376.514 170.425 340.575 185 326 c 1
 221.704 341.73 287.4 362 313 362 c 0
 386.987 362 485 328.8 485 196 c 0
 485 85.1328 417.375 4 297 4 c 0
 231.667 4 165 38.3333 97 107 c 0
 39.6667 165.667 11 206.667 11 230 c 1
 43 252 l 1
 81.297 166.47 149.497 110 262 110 c 0
 339.313 110 435 141.339 435 201 c 0
 435 239.667 410 259 360 259 c 0
 309.091 259 265.428 246.961 227 226 c 1
 209.781 226 67 375.375 67 441 c 0
EndSplineSet
EndChar

StartChar: u091A.half
Encoding: 65568 -1 167
Width: 407
GlyphClass: 3
Flags: HW
AnchorPoint: "N" 120 250 basechar 0
LayerCount: 2
Back
Fore
SplineSet
526 596 m 1
 -39 596 l 1
 -39 680 l 1
 526 680 l 1
 526 596 l 1
318 184 m 0
 407.766 184 491.932 250.33 503 278 c 1
 526 274 l 1
 528 153 l 1
 488.115 115.608 435.25 94 362 94 c 0
 295.333 94 238 111.667 190 147 c 0
 136 185.667 109 235.333 109 296 c 0
 109 344.709 131.336 383.845 155 410 c 1
 43 410 l 1
 3 499 l 1
 411 499 l 1
 455 410 l 1
 321 410 l 2
 305.529 410 196 333.798 196 269 c 0
 196 204.622 222.62 184 318 184 c 0
EndSplineSet
Ligature2: "'half' Half Forms in Devanagari lookup 3 subtable" u091A u094D
LCarets2: 1 0
EndChar

StartChar: u091A.half.vatu
Encoding: 65570 -1 169
Width: 407
GlyphClass: 3
Flags: HW
LayerCount: 2
Back
Fore
SplineSet
526 596 m 1
 -39 596 l 1
 -39 680 l 1
 526 680 l 1
 526 596 l 1
318 182 m 0
 407.021 182 489.11 246.367 503 276 c 1
 526 274 l 1
 528 154 l 1
 503.333 129.333 474.333 112 441 102 c 1
 191 -87 l 1
 116 -8 l 1
 314 94 l 1
 203.971 111.912 109 184.7 109 294 c 0
 109 341.493 131.094 384.094 155 408 c 1
 43 408 l 1
 3 497 l 1
 411 497 l 1
 455 408 l 1
 321 408 l 2
 305.529 408 196 331.798 196 267 c 0
 196 202.622 222.62 182 318 182 c 0
EndSplineSet
Ligature2: "'vatu' Vattu Variants in Devanagari lookup 4 subtable" u091A.half u0930.sub
EndChar

StartChar: u091B
Encoding: 2331 2331 170
Width: 667
GlyphClass: 2
Flags: HW
AnchorPoint: "N" 95 100 basechar 0
LayerCount: 2
Back
Fore
SplineSet
49 264 m 0
 49 310.8 85.7535 352.502 138 381 c 1
 60 467 l 1
 59 595 l 1
 -37 595 l 1
 -37 679 l 1
 779 679 l 1
 777 596 l 1
 530 596 l 1
 530 524 l 1
 633.666 469.233 639 356.843 639 312 c 0
 639 117.822 530.389 3.59066e-18 351 0 c 0
 279.667 0 213 24.6667 151 74 c 0
 83 128 49 191.333 49 264 c 0
487 448 m 1
 451.332 446.449 436 402.567 436 359 c 0
 436 269.6 492.368 223.525 537 210 c 1
 546.798 229.595 573 297 573 355 c 0
 573 412.57 548.13 448 487 448 c 1
130 212 m 0
 130 100 226.7 72 297 72 c 0
 382.4 72 471.173 106.566 517 176 c 1
 455.462 195.487 339 258.8 339 383 c 0
 339 458.515 378.113 505.135 445 524 c 1
 445 591 l 1
 161 591 l 1
 161 422 l 1
 182 393 l 1
 193.113 394.235 226.583 406 243 406 c 1
 313 320 l 1
 254.861 320 130 285.45 130 212 c 0
EndSplineSet
EndChar

StartChar: u091C.half
Encoding: 65571 -1 174
Width: 470
GlyphClass: 3
Flags: HW
AnchorPoint: "N" 130 275 basechar 0
LayerCount: 2
Back
Fore
SplineSet
606 596 m 1
 -39 596 l 1
 -39 680 l 1
 606 680 l 1
 606 596 l 1
322 284 m 0
 322 356.4 261.511 426.276 225 465 c 1
 576 465 l 1
 578 372 l 1
 353 372 l 1
 365.36 347.28 396 283.948 396 244 c 0
 396 141.762 344 103 266 103 c 0
 199.333 103 136.667 154.667 78 258 c 0
 26 350 3.66667 403.333 11 418 c 1
 53 439 l 1
 58.1562 414.186 88.4 209 230 209 c 0
 282.452 209 322 233.697 322 284 c 0
EndSplineSet
Ligature2: "'half' Half Forms in Devanagari lookup 3 subtable" u091C u094D
LCarets2: 1 5
EndChar

StartChar: u095B.half
Encoding: 65572 -1 176
Width: 470
GlyphClass: 3
Flags: HW
LayerCount: 2
Back
Fore
SplineSet
592 596 m 1
 -39 596 l 1
 -39 680 l 1
 592 680 l 1
 592 596 l 1
323 287 m 0
 323 359.4 262.511 429.276 226 468 c 1
 577 468 l 1
 578 374 l 1
 353 374 l 1
 365.36 349.28 396 285.948 396 246 c 0
 396 171.675 370.2 106 267 106 c 0
 200.333 106 137.667 157.667 79 261 c 0
 27 352.333 4.66667 405.333 12 420 c 1
 54 439 l 1
 59.1524 414.848 89.4 213 231 213 c 0
 284.826 213 323 237.708 323 287 c 0
151 23 m 1
 80 -47 l 1
 10 28 l 1
 78 91 l 1
 151 23 l 1
EndSplineSet
Ligature2: "'half' Half Forms in Devanagari lookup 3 subtable" u095B u094D
LCarets2: 1 0
EndChar

StartChar: u091C.half.vatu
Encoding: 65574 -1 178
Width: 470
GlyphClass: 3
Flags: HW
LayerCount: 2
Back
Fore
SplineSet
578 596 m 1
 -39 596 l 1
 -39 680 l 1
 578 680 l 1
 578 596 l 1
323 282 m 0
 323 354.8 259.139 427.849 226 464 c 1
 577 464 l 1
 578 372 l 1
 353 372 l 1
 382.929 312.142 397 268.8 397 243 c 0
 397 140.762 345 102 267 102 c 0
 200.333 102 137.667 154 79 258 c 0
 27 350 4.66667 403.333 12 418 c 1
 54 437 l 1
 59.1562 412.186 89.4 207 231 207 c 0
 286.2 207 323 237 323 282 c 0
591 152 m 1
 274 -88 l 1
 199 -10 l 1
 592 232 l 1
 591 152 l 1
EndSplineSet
Ligature2: "'vatu' Vattu Variants in Devanagari lookup 4 subtable" u091C.half u0930.sub
EndChar

StartChar: u091C_u094D_u091E.half
Encoding: 65576 -1 180
Width: 424
GlyphClass: 3
Flags: HW
AnchorPoint: "N" 72 -20 basechar 0
LayerCount: 2
Back
Fore
SplineSet
536 596 m 1
 -39 596 l 1
 -39 680 l 1
 536 680 l 1
 536 596 l 1
40 423 m 0
 40 495 93.0789 513 142 513 c 2
 534 513 l 1
 535 426 l 1
 187 426 l 2
 143.889 426 131 414.15 131 379 c 0
 130.031 353.808 133.646 332 157 332 c 0
 172.2 332 217.8 344 233 344 c 0
 347.48 344 412 252.945 412 173 c 256
 412 145.409 406.202 61.8338 270 24 c 1
 362 -68 l 1
 311 -110 l 1
 223 18 l 1
 213.667 17.3333 206.667 17 202 17 c 0
 140.812 17 65 31.6 65 90 c 0
 65 122.3 78.6 175 133 175 c 0
 194.972 175 214.199 147.886 219 121 c 1
 224.333 119.667 231 119 239 119 c 0
 293.744 119 358 140.352 358 184 c 0
 358 225.4 338.148 253 283 253 c 0
 245.792 253 196.96 235.303 169 223 c 1
 132.202 266.644 40 376.039 40 423 c 0
EndSplineSet
Ligature2: "'half' Half Forms in Devanagari lookup 3 subtable" u091C_u094D_u091E u094D
LCarets2: 1 0
EndChar

StartChar: u091D.half
Encoding: 65577 -1 182
Width: 456
GlyphClass: 3
Flags: HW
AnchorPoint: "N" 108 -100 basechar 0
LayerCount: 2
Back
Fore
SplineSet
137 445 m 2
 111.4 445 105 422.2 105 407 c 0
 105 380.5 118.6 360 139 360 c 1
 193.5 374 l 130
 212.5 378.667 226 381 234 381 c 0
 264.667 381 289.333 375.667 308 365 c 1
 358 322 l 1
 368.667 319.333 380.333 318 393 318 c 0
 424.333 318 461.333 328 504 348 c 2
 566 378 l 1
 565 260 l 1
 553 256.667 543.333 254.667 536 254 c 0
 511.333 248.667 494.333 246 485 246 c 0
 458.945 246 431.055 250.558 398 262 c 1
 402.667 248 405 231.333 405 212 c 0
 405 109.4 321.386 59.8938 280 41 c 1
 386 -61 l 1
 322 -104 l 1
 233 30 l 1
 189 30 l 2
 108.237 30 52 39.9787 52 123 c 0
 52 181.4 97.55 196 134 196 c 256
 186.8 196 213.78 161.523 222 142 c 1
 253.322 142 339 171.946 339 246 c 0
 339 277.042 313.096 289 281 289 c 256
 244.964 289 195.421 272.792 171 260 c 1
 154.333 260 123.333 290.667 78 352 c 0
 51.3333 388 38 416.667 38 438 c 0
 38 488.998 76.1038 531 125 531 c 2
 277 531 l 1
 277 594 l 1
 -35 594 l 1
 -35 678 l 1
 554 678 l 1
 554 594 l 1
 367 594 l 1
 367 445 l 1
 137 445 l 2
EndSplineSet
Ligature2: "'half' Half Forms in Devanagari lookup 3 subtable" u091D u094D
LCarets2: 1 12
EndChar

StartChar: u091D.half.vatu
Encoding: 65579 -1 184
Width: 516
GlyphClass: 3
Flags: HW
LayerCount: 2
Back
Fore
SplineSet
632 260 m 1
 630 154 l 1
 472 -22 l 1
 388 55 l 1
 632 260 l 1
37 429 m 0
 37 477.853 68.3406 531 121 531 c 2
 276 531 l 1
 276 596 l 1
 -39 596 l 1
 -39 680 l 1
 670 680 l 1
 676 596 l 1
 374 596 l 1
 374 441 l 1
 149 441 l 2
 124.4 441 108 420.15 108 394 c 0
 108 376.667 115.333 363.333 130 354 c 1
 152.232 359.929 209.695 373 244 373 c 2
 257 373 l 2
 316.732 373 343.021 325 377.5 325 c 130
 391 325 l 2
 485.4 325 605.335 414.968 627 431 c 1
 627 303 l 1
 534.045 276.441 499.8 273 468 273 c 0
 434.667 273 408.333 275.667 389 281 c 1
 402.141 260.193 415 233 415 201 c 0
 415 117.586 352.96 65.9895 272 45 c 1
 367 -46 l 1
 311 -87 l 1
 226 36 l 1
 131.35 36 45 54.6 45 129 c 0
 45 169.925 58.4 200 112 200 c 0
 160.024 200 195.672 179.732 218 145 c 1
 231.333 131 261.667 139.667 309 171 c 0
 335.667 188.333 347.667 210.333 345 237 c 1
 345 278.6 304.3 289 275 289 c 0
 230.077 289 187.223 274.406 159 256 c 1
 138.154 261.486 37 364.8 37 429 c 0
EndSplineSet
Ligature2: "'vatu' Vattu Variants in Devanagari lookup 4 subtable" u091D.half u0930.sub
EndChar

StartChar: u091E.half
Encoding: 65580 -1 186
Width: 456
GlyphClass: 3
Flags: HW
AnchorPoint: "N" 155 250 basechar 0
LayerCount: 2
Back
Fore
SplineSet
541 596 m 1
 -40 596 l 1
 -40 680 l 1
 541 680 l 1
 541 596 l 1
446 353 m 1
 463.667 353 491.638 360 502 360 c 1
 518.352 362.336 550.295 396.236 576 426 c 1
 577 294 l 1
 557 286 537.333 282 518 282 c 0
 501.2 282 483.64 281.52 451 306 c 1
 451 117.525 349 89 281 89 c 0
 222.333 89 159.667 127 93 203 c 0
 37 267 9 308.667 9 328 c 1
 45 363 l 1
 45 324.333 71 283.667 123 241 c 0
 159.667 210.333 201.333 195 248 195 c 0
 347.048 195 374 263.557 374 310 c 0
 374 398.306 357.612 434 294 434 c 0
 232.61 434 191.41 397.052 186 370 c 1
 117 494 l 1
 143.587 506.407 206.088 523 232 523 c 0
 360.4 523 421.751 427.023 446 353 c 1
EndSplineSet
Ligature2: "'half' Half Forms in Devanagari lookup 3 subtable" u091E u094D
LCarets2: 1 0
EndChar

StartChar: u091F
Encoding: 2335 2335 187
Width: 568
GlyphClass: 2
Flags: HW
AnchorPoint: "N" 145 140 basechar 0
AnchorPoint: "B" 536 -48 basechar 0
LayerCount: 2
Back
Fore
SplineSet
304 121 m 256
 405.821 121 481.073 168.627 504 200 c 1
 564 84 l 1
 491 53 l 1
 443 35.6667 398 27 356 27 c 0
 283.333 27 217.333 49.6667 158 95 c 0
 90 147 56 214 56 296 c 0
 56 340.667 107.5 379.667 210.5 413 c 128
 313.5 446.333 365 470.333 365 485 c 2
 365 595 l 1
 -38 595 l 1
 -38 679 l 1
 680 679 l 1
 679 596 l 1
 467 596 l 1
 467 433 l 2
 467 416.333 410.833 389.667 298.5 353 c 128
 186.167 316.333 130 278 130 238 c 0
 130 152.725 204.482 121 304 121 c 256
EndSplineSet
EndChar

StartChar: u091F_u094D_u091F
Encoding: 65581 -1 188
Width: 536
GlyphClass: 2
Flags: HW
LayerCount: 2
Back
Fore
SplineSet
37 430 m 0
 37 489.762 100.812 530 167 530 c 2
 314 530 l 1
 314 594 l 1
 -41 594 l 1
 -41 678 l 1
 603 678 l 1
 604 596 l 1
 408 596 l 1
 408 451 l 1
 197 451 l 2
 142.6 451 129 422.305 129 378 c 0
 129 342 147.203 318 209 318 c 0
 379.888 318 459.504 368.074 475 397 c 1
 524 284 l 1
 479.702 284 419.889 248.921 393 247 c 1
 393 64 l 1
 193 64 l 2
 150.086 64 127 34.09 127 -5 c 0
 127 -40.6969 150.636 -83 203 -83 c 0
 294.457 -83 370.652 -61.3418 436 -24 c 1
 458 -19 l 1
 500 -108 l 1
 446.762 -133.409 359 -164 265 -164 c 0
 207.667 -164 154.333 -142.333 105 -99 c 128
 55.6667 -55.6667 31 -11.3333 31 34 c 0
 31 111.416 90.0859 150 153 150 c 2
 301 150 l 1
 301 238 l 1
 225 238 159.667 259 105 301 c 0
 59.6667 335 37 378 37 430 c 0
EndSplineSet
EndChar

StartChar: u091F_u094D_u0920
Encoding: 65582 -1 189
Width: 536
GlyphClass: 2
Flags: HW
LayerCount: 2
Back
Fore
SplineSet
36 427 m 0
 36 467 52.6 527 169 527 c 2
 316 527 l 1
 316 597 l 1
 -39 597 l 1
 -39 681 l 1
 619 681 l 1
 618 596 l 1
 406 596 l 1
 406 440 l 1
 173 440 l 2
 127.4 440 116 405.95 116 362 c 0
 116 336.4 124.8 298 192 298 c 0
 276.851 298 380.8 316.8 450 386 c 1
 513 298 l 1
 442 256 l 1
 385 233 l 1
 385 134 l 1
 494.277 105.669 495 18.3083 495 -4 c 0
 495 -110.2 394.15 -181 279 -181 c 0
 223.667 -181 168.5 -160 113.5 -118 c 128
 58.5 -76 31 -31 31 17 c 0
 31 83.0922 78.9141 139 150 139 c 2
 289 139 l 1
 289 218 l 1
 185.677 218 36 259.8 36 427 c 0
205 -97 m 0
 265.487 -97 449.408 -79.5492 451 8 c 0
 451 43.2803 421.875 53 389 53 c 0
 379.396 53 369.656 52.808 357 51 c 1
 171 51 l 2
 124.6 51 113 -2.2 113 -28 c 0
 113 -83.2 169.925 -97 205 -97 c 0
EndSplineSet
EndChar

StartChar: u0920
Encoding: 2336 2336 190
Width: 602
GlyphClass: 2
Flags: HW
AnchorPoint: "N" 140 130 basechar 0
LayerCount: 2
Back
Fore
SplineSet
368 4 m 0
 201.44 4 60 104.928 60 287 c 0
 60 337 105 380.333 195 417 c 128
 285 453.667 330 479 330 493 c 2
 330 598 l 1
 -39 598 l 1
 -39 682 l 1
 736 682 l 1
 736 596 l 1
 426 596 l 1
 426 440 l 2
 426 425.333 380.333 399 289 361 c 128
 197.667 323 152 280.333 152 233 c 0
 152 132.789 209.692 88 317 88 c 0
 394.285 88 512 158.762 512 271 c 0
 512 300.333 497.667 327.333 469 352 c 1
 415 389 l 1
 444 424 l 1
 473.436 412.436 587 306.018 587 218 c 0
 587 100.012 510.935 4 368 4 c 0
EndSplineSet
EndChar

StartChar: u0920_u094D_u0920
Encoding: 65583 -1 191
Width: 536
GlyphClass: 2
Flags: HW
LayerCount: 2
Back
Fore
SplineSet
32 421 m 0
 32 490.6 93.5828 537 165 537 c 2
 305 537 l 1
 305 598 l 1
 -43 598 l 1
 -43 682 l 1
 643 682 l 1
 646 596 l 1
 394 596 l 1
 394 501 l 1
 461.384 491.641 490 440.714 490 368 c 0
 490 295.005 443.457 247.196 380 220 c 1
 380 103 l 1
 409.432 97.1137 483 81 483 -7 c 0
 483 -112.37 385.656 -186 268 -186 c 256
 208.667 -186 154.333 -165.5 105 -124.5 c 128
 55.6667 -83.5 31 -36 31 18 c 0
 31 77.2936 79.6679 138 147 138 c 2
 289 138 l 1
 289 210 l 1
 131.009 210 32 294.4 32 421 c 0
236 298 m 2
 356.82 298 436 338 436 398 c 0
 436 439.6 410.066 450 380 450 c 2
 170 450 l 2
 124.923 450 93.6596 406.064 99 358 c 1
 108.022 310.312 156.311 298 217 298 c 2
 236 298 l 2
160 45 m 2
 125.396 45 98 11.0588 98 -27 c 0
 98 -62.015 114.388 -69.4378 140.5 -79 c 128
 164.167 -87.6667 191.333 -92 222 -92 c 0
 269.619 -92 369.317 -74.8941 397.5 -57 c 128
 418.5 -43.6667 428.667 -23.3333 428 4 c 0
 428 43.8826 388.69 44.0148 368 45 c 2
 160 45 l 2
EndSplineSet
EndChar

StartChar: u0921
Encoding: 2337 2337 193
Width: 518
GlyphClass: 2
Flags: HW
AnchorPoint: "N" 140 130 basechar 0
LayerCount: 2
Back
Fore
SplineSet
62 441 m 0
 62 486.6 108.15 517 150 517 c 2
 390 517 l 1
 390 594 l 1
 -42 594 l 1
 -42 678 l 1
 694 678 l 1
 697 596 l 1
 489 596 l 1
 489 433 l 1
 195 433 l 2
 158.435 433 145 408.327 145 386 c 0
 145 369.732 150.61 333.512 191 330 c 1
 229 347.333 272.667 356 322 356 c 0
 445.233 356 541 303.861 541 198 c 0
 541 42.8 459.737 4 353 4 c 0
 295.667 4 222 39.3333 132 110 c 0
 50 174 9 213.667 9 229 c 1
 32 258 l 1
 71.9855 165.62 195.071 102 344 102 c 0
 416.23 102 493 154.208 493 204 c 0
 493 234.6 474.664 255 381 255 c 2
 359 255 l 2
 280.4 255 244.469 235.535 228 226 c 1
 218.667 226 190.333 251 143 301 c 0
 89 358.333 62 405 62 441 c 0
EndSplineSet
EndChar

StartChar: u095C
Encoding: 2396 2396 194
Width: 602
GlyphClass: 2
Flags: HW
LayerCount: 2
Back
Fore
SplineSet
61 443 m 0
 61 488.6 107.15 519 149 519 c 2
 389 519 l 1
 389 596 l 1
 -43 596 l 1
 -43 680 l 1
 707 680 l 1
 711 596 l 1
 489 596 l 1
 489 433 l 1
 195 433 l 2
 161.667 433 145 416.667 145 384 c 0
 145 367.732 150.61 331.512 191 328 c 1
 214.648 339.351 264.242 354 324 354 c 0
 444.921 354 540 300.653 540 196 c 0
 540 42.4 461.575 4 352 4 c 0
 293.333 4 219.333 39 130 109 c 0
 48 173 7 213.333 7 230 c 1
 30 258 l 1
 69.9896 165.61 193.863 103 342 103 c 0
 414.264 103 491 150.792 491 204 c 0
 491 234.6 472.664 255 379 255 c 2
 357 255 l 2
 318.096 255 273.649 250.097 227 228 c 1
 217.667 228 189.333 253 142 303 c 0
 88 360.333 61 407 61 443 c 0
429 -143 m 1
 355 -213 l 1
 278 -139 l 1
 356 -65 l 1
 429 -143 l 1
EndSplineSet
EndChar

StartChar: u0921_u094D_u0921
Encoding: 65584 -1 195
Width: 553
GlyphClass: 2
Flags: HW
LayerCount: 2
Back
Fore
SplineSet
88 476 m 0
 88 528.8 122.6 542 158 542 c 2
 358 542 l 1
 358 592 l 1
 -36 592 l 1
 -36 676 l 1
 671 676 l 1
 667 596 l 1
 448 596 l 1
 448 461 l 1
 201 461 l 2
 179.667 461 169 449 169 425 c 0
 169 405 177.333 394.333 194 393 c 1
 229.661 404.887 291.058 416 317 416 c 0
 431.704 416 499 349.191 499 288 c 0
 499 229.2 475.573 141 321 141 c 0
 286.192 141 243.885 160.284 212 175 c 1
 200 155.667 194 136 194 116 c 0
 194 92.6667 202.333 71.3333 219 52 c 1
 245.667 71.3333 279.333 81 320 81 c 0
 409.424 81 499 33.9875 499 -47 c 0
 499 -113.013 461.208 -197 320 -197 c 0
 256.667 -197 187.667 -167.667 113 -109 c 0
 51 -59.6667 18 -25.3333 14 -6 c 1
 43 20 l 1
 98 -44 l 1
 148 -81.3333 219.333 -100 312 -100 c 1
 406.267 -88.688 457 -71.6681 457 -49 c 0
 457 -15.7 436.564 -11 352 -11 c 0
 318.222 -11 265.968 -33.6615 255 -46 c 1
 228.38 -37.53 109 117.932 109 174 c 0
 109 191.6 109.82 192.756 119 218 c 1
 76 252 l 2
 44 278 22 303 10 327 c 1
 49 356 l 1
 97.7081 290.731 141.086 237 289 237 c 2
 317 237 l 2
 383.539 237 457 240.852 457 293 c 0
 457 320.2 430.2 327 340 327 c 0
 300.872 327 237.127 306.805 229 301 c 1
 211.191 301 88 422.769 88 476 c 0
EndSplineSet
EndChar

StartChar: u0921_u094D_u0922
Encoding: 65585 -1 196
Width: 553
GlyphClass: 2
Flags: HW
LayerCount: 2
Back
Fore
SplineSet
87 483 m 0
 87 520.25 101 548 157 548 c 2
 357 548 l 1
 357 599 l 1
 -37 599 l 1
 -37 683 l 1
 670 683 l 1
 667 596 l 1
 452 596 l 1
 452 463 l 1
 205 463 l 2
 183.846 463 171 438.038 171 414 c 0
 171 394 178 382.667 192 380 c 1
 223.333 398.667 263 408 311 408 c 0
 415.819 408 506 361.817 506 271 c 0
 506 171 419.285 146 350 146 c 0
 304 146 254.84 154.08 235 164 c 1
 219.315 156.157 141 73.2263 141 12 c 0
 141 -80 198.713 -103 290 -103 c 1
 271.502 -88.3964 244 -59.2 244 -30 c 0
 244 46 319.389 65 366 65 c 0
 444.386 65 524 27.9995 524 -43 c 0
 524 -99 477.402 -183 323 -183 c 0
 261.667 -183 203.667 -160.667 149 -116 c 0
 88.3333 -66.6667 58 -9 58 57 c 0
 58 111.438 106.056 173.726 141 211 c 1
 11 338 l 1
 51 375 l 1
 62.2636 342.461 122.908 242 281 242 c 0
 432.2 242 455 278 455 302 c 0
 455 318.8 442.4 330 399 330 c 0
 373.5 330 368.4 329 348 329 c 0
 325.6 329 287.138 321.569 236 296 c 1
 217.702 293.56 87 424.703 87 483 c 0
402 6 m 0
 365.75 6 323 -18.8 323 -56 c 0
 323 -66 326.667 -76.3333 334 -87 c 0
 335.333 -90.3333 338.667 -94.6667 344 -100 c 1
 361.654 -110.592 441.726 -64.103 445 -33 c 1
 445 -7 430.667 6 402 6 c 0
EndSplineSet
EndChar

StartChar: u0922
Encoding: 2338 2338 197
Width: 585
GlyphClass: 2
Flags: HW
AnchorPoint: "N" 140 95 basechar 0
LayerCount: 2
Back
Fore
SplineSet
30 329 m 0
 30 430.31 81.4307 500 175 500 c 2
 358 500 l 1
 358 593 l 1
 -39 593 l 1
 -39 677 l 1
 696 677 l 1
 695 596 l 1
 466 596 l 1
 466 414 l 1
 203 414 l 2
 143 414 128 350.61 128 300 c 0
 128 176.103 169.659 94 290 94 c 2
 312 94 l 1
 321.333 95.3333 327.667 96 331 96 c 1
 299.483 123.735 267 172.868 267 222 c 0
 267 319.6 341.978 344 398 344 c 0
 475.69 344 564 294.722 564 202 c 0
 564 67.9992 459.002 -3.27978e-18 338 0 c 0
 262.667 0 192.5 35.8333 127.5 107.5 c 128
 62.5 179.167 30 253 30 329 c 0
380 101 m 1
 413.258 113.615 498.571 163.698 500 208 c 1
 500 251.2 464.3 262 445 262 c 0
 401.446 262 349 230.4 349 183 c 0
 349 145.383 359.218 116.114 380 101 c 1
EndSplineSet
EndChar

StartChar: u095D
Encoding: 2397 2397 198
Width: 585
GlyphClass: 2
Flags: HW
LayerCount: 2
Back
Fore
SplineSet
380 102 m 1
 423.348 120.578 500.731 169.455 499 211 c 1
 499 252.6 466 263 444 263 c 0
 401.73 263 348 234.175 348 186 c 0
 348 144.055 356.339 121.718 380 102 c 1
565 202 m 0
 565 77.5125 471.033 -3.34657e-18 363 0 c 2
 335 0 l 2
 259.667 0 190.167 36.1667 126.5 108.5 c 128
 62.8333 180.833 31 255 31 331 c 0
 31 432.31 82.4307 502 176 502 c 2
 359 502 l 1
 359 595 l 1
 -38 595 l 1
 -38 679 l 1
 697 679 l 1
 697 595 l 1
 468 595 l 1
 468 413 l 1
 205 413 l 2
 145 413 130 349.61 130 299 c 0
 130 141.55 195.2 92 293 92 c 2
 315 92 l 1
 323 93.3333 328.667 94 332 94 c 1
 298.998 127.002 268 171.313 268 220 c 0
 268 319.2 341.514 344 399 344 c 0
 476.69 344 565 294.722 565 202 c 0
426 -142 m 1
 352 -212 l 1
 275 -138 l 1
 353 -64 l 1
 426 -142 l 1
EndSplineSet
EndChar

StartChar: u0923.half
Encoding: 65586 -1 200
Width: 439
GlyphClass: 3
Flags: HW
AnchorPoint: "N" 90 340 basechar 0
LayerCount: 2
Back
Fore
SplineSet
400 286 m 2
 400 223.197 329.785 187 268 187 c 0
 235.333 187 190.667 210.667 134 258 c 0
 82 301.333 56 327.667 56 337 c 2
 56 596 l 1
 -37 596 l 1
 -37 680 l 1
 563 680 l 1
 561 596 l 1
 400 596 l 1
 400 286 l 2
228 259 m 256
 249.362 259 298.264 268.131 300 315 c 1
 300 596 l 1
 160 596 l 1
 160 307 l 2
 160 278.2 189.6 259 228 259 c 256
EndSplineSet
Ligature2: "'half' Half Forms in Devanagari lookup 3 subtable" u0923 u094D
LCarets2: 1 0
EndChar

StartChar: u0924.half
Encoding: 65587 -1 202
Width: 333
GlyphClass: 3
Flags: HW
AnchorPoint: "N" 105 100 basechar 0
LayerCount: 2
Back
Fore
SplineSet
523 596 m 1
 -39 596 l 1
 -39 680 l 1
 523 680 l 1
 523 596 l 1
33 335 m 0
 33 407.931 86.6 474 167 474 c 2
 442 474 l 1
 442 379 l 1
 195 379 l 2
 150 379 120 338.975 120 293 c 0
 120 231.667 145 163.333 195 88 c 0
 237.667 24 270.667 -12 294 -20 c 1
 244 -52 l 1
 157.254 60.7698 33 231.805 33 335 c 0
EndSplineSet
Ligature2: "'half' Half Forms in Devanagari lookup 3 subtable" u0924 u094D
LCarets2: 1 0
EndChar

StartChar: u0924.half.vatu
Encoding: 65589 -1 204
Width: 358
GlyphClass: 3
Flags: HW
LayerCount: 2
Back
Fore
SplineSet
471 596 m 1
 -39 596 l 1
 -39 680 l 1
 471 680 l 1
 471 596 l 1
268 400 m 0
 231.871 400 70.2409 361.218 61 359 c 1
 17 468 l 1
 242 491 l 2
 282.66 494.872 308.812 459.341 314 453 c 2
 423 340 l 2
 438.333 325.333 454.333 311 471 297 c 1
 472 221 l 1
 149 49 l 1
 95 151 l 1
 418 288 l 1
 309 386 l 2
 299 395.333 285.333 400 268 400 c 0
EndSplineSet
Ligature2: "'vatu' Vattu Variants in Devanagari lookup 4 subtable" u0924.half u0930.sub
EndChar

StartChar: u0924_u094D_u0924.half
Encoding: 65591 -1 206
Width: 439
GlyphClass: 3
Flags: HW
LayerCount: 2
Back
Fore
SplineSet
550 596 m 1
 -39 596 l 1
 -39 680 l 1
 550 680 l 1
 550 596 l 1
86 278 m 0
 86 323.6 109.97 359.711 154 392 c 1
 12 390 l 1
 -10 482 l 1
 550 482 l 1
 549 388 l 1
 313 388 l 2
 259.923 388 194 323.916 194 224 c 1
 204.07 107.474 335.83 7.05862 394 -6 c 1
 338 -25 l 1
 298 -25 240 17 164 101 c 0
 112 157.667 86 216.667 86 278 c 0
EndSplineSet
Ligature2: "'half' Half Forms in Devanagari lookup 3 subtable" u0924_u094D_u0924 u094D
EndChar

StartChar: u0925.half
Encoding: 65592 -1 208
Width: 390
GlyphClass: 3
Flags: HW
AnchorPoint: "N" 65 245 basechar 0
LayerCount: 2
Back
Fore
SplineSet
491 596 m 1
 367 596 l 1
 334 680 l 1
 492 680 l 1
 491 596 l 1
283 198 m 0
 370.554 198 453.459 261.155 505 333 c 1
 506 193 l 1
 472.418 165.899 410.738 102 296 102 c 0
 228 102 171 131.333 125 190 c 0
 66.3333 263.333 37 331.667 37 395 c 1
 61.7984 395 112.407 393.757 203 438 c 1
 100.496 469.859 56 528.6 56 589 c 0
 56 655 95.0148 699 195 699 c 0
 268.119 699 350 628.839 350 515 c 0
 350 338.2 170.486 300.321 115 294 c 1
 133.859 216.468 214.138 198 283 198 c 0
245 469 m 1
 252.671 470.918 265.958 490.853 267 544 c 0
 267 592.357 259.627 633 221 633 c 0
 166.6 633 153 593.5 153 570 c 0
 153 525.039 188.168 469 245 469 c 1
EndSplineSet
Ligature2: "'half' Half Forms in Devanagari lookup 3 subtable" u0925 u094D
LCarets2: 1 0
EndChar

StartChar: u0925.half.vatu
Encoding: 65594 -1 210
Width: 390
GlyphClass: 3
Flags: HW
LayerCount: 2
Back
Fore
SplineSet
503 596 m 1
 366 596 l 1
 333 680 l 1
 503 680 l 1
 503 596 l 1
279 193 m 0
 368.2 193 455.01 259.983 502 329 c 1
 504 193 l 1
 178 -53 l 1
 103 26 l 1
 236 107 l 1
 184 120.333 139.333 155 102 211 c 0
 55.3333 280.333 32 340 32 390 c 1
 73.8935 390 106.736 390.692 199 434 c 1
 121.132 458.59 52 506.349 52 586 c 0
 52 652 91.0148 696 191 696 c 0
 264.119 696 346 625.839 346 512 c 0
 346 335.2 166.486 297.321 111 291 c 1
 117.588 264.647 144.6 193 279 193 c 0
242 463 m 1
 252.105 471.982 262.545 493.433 264 540 c 1
 264 588.357 256.627 629 218 629 c 0
 163.6 629 150 590 150 564 c 0
 150 519.039 185.168 463 242 463 c 1
EndSplineSet
Ligature2: "'vatu' Vattu Variants in Devanagari lookup 4 subtable" u0925.half u0930.sub
EndChar

StartChar: u0926
Encoding: 2342 2342 211
Width: 536
GlyphClass: 2
Flags: HW
AnchorPoint: "N" 180 80 basechar 0
LayerCount: 2
Back
Fore
SplineSet
36 329 m 0
 36 420.009 76.5859 509 150 509 c 2
 310 509 l 1
 310 595 l 1
 -39 595 l 1
 -39 679 l 1
 651 679 l 1
 651 596 l 1
 409 596 l 1
 409 416 l 1
 181 416 l 2
 139.231 416 101 365.256 101 304 c 0
 101 211.111 165.923 186 264 186 c 0
 283.874 186 303.338 191.891 318 198 c 1
 308.667 210 304 224.667 304 242 c 0
 304 279.565 331.307 317.269 375 320 c 1
 423.6 320 456 276.3 456 231 c 0
 456 209.2 451.514 159.923 397 122 c 1
 514 -19 l 1
 456 -58 l 1
 365 104 l 1
 341 94 314.333 89 285 89 c 0
 219.667 89 161.833 113.167 111.5 161.5 c 128
 61.1667 209.833 36 265.667 36 329 c 0
EndSplineSet
EndChar

StartChar: u0926_u0943
Encoding: 65595 -1 212
Width: 536
GlyphClass: 2
Flags: HW
LayerCount: 2
Back
Fore
SplineSet
35 320 m 0
 35 411.292 75.987 503 149 503 c 2
 309 503 l 1
 309 591 l 1
 -40 591 l 1
 -40 676 l 1
 664 676 l 1
 665 595 l 1
 409 595 l 1
 409 412 l 1
 181 412 l 2
 137.041 412 101 353.295 101 296 c 0
 101 202.547 161.981 176 264 176 c 0
 283.874 176 303.338 181.891 318 188 c 1
 308.667 200.667 304 215.667 304 233 c 0
 304 273.571 330.019 309.334 374 312 c 1
 422.6 312 455 269.525 455 221 c 0
 455 173.58 430.062 134.543 397 112 c 1
 538 -63 l 1
 427.682 -63 368 -100.8 368 -126 c 0
 368 -144 387 -153 425 -153 c 0
 465.8 -153 498.048 -142.528 527 -132 c 1
 581 -213 l 1
 553 -227 518.333 -234 477 -234 c 0
 436.235 -234 312.428 -227.396 293 -102 c 1
 284.84 -41.6134 357.424 -9.72034 412 1 c 1
 363 92 l 1
 339 82 311.667 77 281 77 c 0
 216.333 77 159.167 101 109.5 149 c 128
 59.8333 197 35 254 35 320 c 0
EndSplineSet
EndChar

StartChar: u0926.vatu
Encoding: 65596 -1 213
Width: 536
GlyphClass: 3
Flags: HW
LayerCount: 2
Back
Fore
SplineSet
45 395 m 0
 45 493.4 108.45 518 161 518 c 2
 321 518 l 1
 321 597 l 1
 -42 597 l 1
 -42 681 l 1
 641 681 l 1
 644 596 l 1
 420 596 l 1
 420 431 l 1
 205 431 l 2
 171.306 431 144 415.545 144 338 c 0
 144 261.357 174.802 217 250 217 c 0
 258.667 217.667 265.333 218 270 218 c 0
 281.2 218 294.273 220.119 326 234 c 1
 320 250.667 317 266.333 317 281 c 0
 317 307.955 327.344 357 380 357 c 0
 434.648 357 464 313.653 464 256 c 0
 464 214.581 446.482 174.426 415 158 c 1
 515 -21 l 1
 458 -47 l 1
 382 142 l 1
 102 -48 l 1
 37 31 l 1
 268 144 l 1
 224.639 151.932 45 194.2 45 395 c 0
EndSplineSet
Ligature2: "'vatu' Vattu Variants in Devanagari lookup 4 subtable" u0926 u0930.sub
EndChar

StartChar: u0926_u094D_u0926
Encoding: 65597 -1 214
Width: 536
GlyphClass: 2
Flags: HW
LayerCount: 2
Back
Fore
SplineSet
46 428 m 0
 46 476.911 96.6156 520 149 520 c 2
 323 520 l 1
 323 597 l 1
 -43 597 l 1
 -43 681 l 1
 647 681 l 1
 651 596 l 1
 418 596 l 1
 418 433 l 1
 190 433 l 2
 161.526 433 140 416.826 140 391 c 0
 140 344.295 160.421 313.292 173 303 c 1
 232.333 320.333 298.667 329 372 329 c 1
 412 237 l 1
 391 228 l 1
 389.667 231.333 372 233 338 233 c 0
 237.448 233 157 199.396 157 118 c 256
 157 31.6654 193.805 16 266 16 c 0
 295.802 16 315.358 22.8985 334 30 c 1
 326 42.6667 322 55.3333 322 68 c 0
 322 111.938 361.601 154 412 154 c 0
 453.006 154 479 111.434 479 68 c 1
 485.56 4.04201 424.438 -38.1939 408 -47 c 1
 511 -192 l 1
 458 -227 l 1
 370 -59 l 1
 354.667 -62.3333 336.333 -64 315 -64 c 0
 183.776 -64 62 22 62 151 c 0
 62 174.605 65.5256 237.5 131 286 c 1
 107.117 310.838 46 391.349 46 428 c 0
EndSplineSet
EndChar

StartChar: u0926_u094D_u0927
Encoding: 65598 -1 215
Width: 812
GlyphClass: 2
Flags: HW
LayerCount: 2
Back
Fore
SplineSet
311 383 m 0
 311 475.682 379.772 514 448 514 c 2
 588 514 l 1
 588 591 l 1
 -39 591 l 1
 -39 675 l 1
 925 675 l 1
 925 596 l 1
 685 596 l 1
 685 434 l 1
 469 434 l 2
 432.442 434 413 391.705 413 351 c 0
 413 254.966 438.638 220 533 220 c 0
 546.2 220 563.493 223.302 599 245 c 1
 591 251 587 261.667 587 277 c 0
 587 334.6 626 349 652 349 c 0
 693.175 349 731 320.244 731 266 c 0
 731 244.072 728.594 191.911 678 163 c 1
 825 -32 l 1
 762 -65 l 1
 713 20 l 1
 623.164 -38.2273 486.708 -87 381 -87 c 0
 289.207 -87 177 -29.1279 177 42 c 0
 177 61.3333 184.667 80.3333 200 99 c 1
 134.333 129.488 22 207 22 279 c 0
 22 352.333 62 389 142 389 c 0
 203.347 389 253 353.3 253 298 c 0
 253 279.333 247 260.667 235 242 c 1
 164 256 l 1
 200.792 271.051 207 287.2 207 295 c 0
 207 312.17 185.967 323 166 323 c 0
 128.542 323 110 300.958 110 260 c 0
 110 194.23 174.686 143.74 227 127 c 1
 245 139 l 1
 257 144.333 275.333 151 300 159 c 1
 308 160.333 319.333 163.333 334 168 c 1
 404 108 l 1
 390 90 l 1
 380 95.3333 358 91 324 77 c 128
 290 63 273 44.3333 273 21 c 0
 273 -30.2 335 -43 375 -43 c 0
 490.435 -43 630.532 42.8473 662 89 c 1
 632 142 l 1
 610.667 136.667 589.333 134 568 134 c 0
 499.333 134 439.333 158 388 206 c 128
 336.667 254 311 313 311 383 c 0
EndSplineSet
EndChar

StartChar: u0926_u094D_u092E
Encoding: 65599 -1 216
Width: 765
GlyphClass: 2
Flags: HW
LayerCount: 2
Back
Fore
SplineSet
143 270 m 1
 102.715 320.357 49 395.162 49 444 c 0
 49 496 69 522 109 522 c 2
 303 522 l 1
 303 592 l 1
 -37 592 l 1
 -37 676 l 1
 892 676 l 1
 890 596 l 1
 680 596 l 1
 680 -49 l 1
 574 23 l 1
 574 101 l 1
 412 101 l 1
 412 53 l 2
 412 31.6667 404.333 21 389 21 c 1
 356.042 18.1341 232 144.059 232 169 c 0
 232 186.333 241 195 259 195 c 2
 312 195 l 1
 312 270 l 1
 143 270 l 1
130 406 m 0
 130 397.8 136.2 376.8 148 365 c 1
 314 365 l 1
 407 267 l 1
 409 193 l 1
 576 192 l 1
 576 592 l 1
 394 592 l 1
 394 434 l 1
 163 434 l 2
 141 434 130 424.667 130 406 c 0
EndSplineSet
EndChar

